<?xml version="1.0" encoding="utf-8"?>
<!-- Generator: Adobe Illustrator 16.0.0, SVG Export Plug-In . SVG Version: 6.00 Build 0)  -->
<!DOCTYPE svg PUBLIC "-//W3C//DTD SVG 1.1//EN" "http://www.w3.org/Graphics/SVG/1.1/DTD/svg11.dtd">
<svg version="1.1" id="Capa_1" xmlns="http://www.w3.org/2000/svg" xmlns:xlink="http://www.w3.org/1999/xlink" x="0px" y="0px"
	 width="40px" height="40px" viewBox="0 0 40 40" enable-background="new 0 0 40 40" xml:space="preserve">
<g>
	<g>
		<g>
			<path fill="#FBCE00" d="M12.806,25.094c0.121-0.262,0.217-0.529,0.285-0.799c-2.076-1.26-3.465-3.541-3.465-6.145
				c0-3.967,3.215-7.182,7.182-7.182s7.182,3.215,7.182,7.182c0,3.965-3.215,7.18-7.182,7.18c-0.541,0-1.068-0.061-1.576-0.174
				c-0.936,1.166-2.387,1.787-3.855,1.684C11.974,26.403,12.472,25.813,12.806,25.094z"/>
		</g>
		<g>
			<g>
				<path fill="#FFDC5A" d="M10.905,18.852c0-3.502,2.84-6.342,6.342-6.342c2.047,0,3.867,0.971,5.027,2.477
					c-1.096-1.902-3.146-3.182-5.5-3.182c-3.502,0-6.34,2.84-6.34,6.342c0,1.455,0.49,2.795,1.314,3.865
					C11.212,21.083,10.905,20.002,10.905,18.852z"/>
			</g>
		</g>
		<g>
			<path fill="#F9BF00" d="M23.985,17.924c0-0.006,0-0.01,0-0.014c-0.086-2.48-1.43-4.641-3.414-5.861
				c0.713,1.115,1.127,2.439,1.127,3.861c0,3.959-3.209,7.17-7.17,7.17c-1.375,0-2.658-0.387-3.75-1.059
				c0.584,0.914,1.371,1.686,2.297,2.254c-0.002,0.002-0.002,0.004-0.004,0.006c0.005,0.006,0.014,0.01,0.02,0.014
				c-0.068,0.27-0.164,0.537-0.285,0.799c-0.334,0.719-0.832,1.309-1.43,1.746c1.469,0.104,2.92-0.518,3.855-1.684
				c0.004,0.002,0.008,0.002,0.01,0.002c0,0,0-0.002,0-0.004c0.508,0.113,1.037,0.176,1.578,0.176c1.391,0,2.766-0.412,3.926-1.174
				c1.025-0.674,1.871-1.609,2.438-2.695c0.445-0.855,0.713-1.799,0.785-2.76C23.987,18.452,23.993,18.182,23.985,17.924z"/>
		</g>
	</g>
	<g>
		<g>
			<path fill="#F9BF00" d="M27.194,27.274c-0.121-0.262-0.215-0.529-0.285-0.799c2.076-1.26,3.465-3.541,3.465-6.145
				c0-3.967-3.215-7.182-7.182-7.182s-7.182,3.215-7.182,7.182c0,3.965,3.215,7.18,7.182,7.18c0.541,0,1.068-0.061,1.576-0.174
				c0.936,1.166,2.387,1.787,3.855,1.684C28.028,28.583,27.528,27.993,27.194,27.274z"/>
		</g>
		<g>
			<path fill="#DFA400" d="M27.194,27.274c-0.121-0.26-0.215-0.527-0.283-0.795c2.076-1.256,3.463-3.535,3.463-6.139
				c0-2.584-1.367-4.85-3.42-6.109c0.715,1.113,1.129,2.439,1.129,3.861c0,3.959-3.211,7.17-7.17,7.17
				c-1.375,0-2.66-0.387-3.752-1.059c1.276,1.988,3.506,3.307,6.043,3.307c0.537,0,1.063-0.059,1.566-0.172
				c0.936,1.164,2.387,1.785,3.854,1.682C28.028,28.583,27.528,27.993,27.194,27.274z"/>
		</g>
		<g>
			<g>
				<path fill="#FFDC5A" d="M17.29,21.034c0-3.502,2.84-6.342,6.342-6.342c2.047,0,3.867,0.971,5.027,2.475
					c-1.096-1.9-3.148-3.18-5.5-3.18c-3.502,0-6.34,2.838-6.34,6.342c0,1.455,0.49,2.795,1.314,3.865
					C17.597,23.264,17.29,22.184,17.29,21.034z"/>
			</g>
		</g>
	</g>
	<g>
		<circle fill="#FFFFFF" cx="20.55" cy="20.495" r="0.674"/>
	</g>
	<g>
		<circle fill="#FFFFFF" cx="23.192" cy="20.495" r="0.674"/>
	</g>
	<g>
		<circle fill="#FFFFFF" cx="25.771" cy="20.495" r="0.674"/>
	</g>
</g>
</svg>
