<?xml version="1.0" encoding="utf-8"?>
<!-- Generator: Adobe Illustrator 16.0.0, SVG Export Plug-In . SVG Version: 6.00 Build 0)  -->
<!DOCTYPE svg PUBLIC "-//W3C//DTD SVG 1.1//EN" "http://www.w3.org/Graphics/SVG/1.1/DTD/svg11.dtd">
<svg version="1.1" id="Capa_1" xmlns="http://www.w3.org/2000/svg" xmlns:xlink="http://www.w3.org/1999/xlink" x="0px" y="0px"
	 width="88px" height="72.526px" viewBox="168.372 0 88 72.526" enable-background="new 168.372 0 88 72.526" xml:space="preserve">
<g>
	<g>
		<path fill="#FF5B21" d="M219.151,55.354c10.283-6.699,14.49-13.244,14.49-19.01c0-3.738-2.338-5.297-4.207-5.609l-6.543,6.078
			c-3.586-1.246-8.26-4.986-8.26-10.908c0-6.855,5.609-11.375,12.467-11.375c8.412,0,14.023,5.455,14.023,14.959
			c0,11.844-9.039,20.881-20.568,28.049L219.151,55.354z M189.858,55.354c10.283-6.699,14.49-13.244,14.49-19.01
			c0-3.738-2.338-5.297-4.207-5.609l-6.545,6.078c-3.584-1.246-8.26-4.986-8.26-10.908c0-6.855,5.609-11.375,12.467-11.375
			c8.414,0,14.023,5.455,14.023,14.959c0,11.844-9.037,20.881-20.568,28.049L189.858,55.354z"/>
	</g>
</g>
</svg>
