<?xml version="1.0" encoding="utf-8"?>
<!-- Generator: Adobe Illustrator 16.0.0, SVG Export Plug-In . SVG Version: 6.00 Build 0)  -->
<!DOCTYPE svg PUBLIC "-//W3C//DTD SVG 1.1//EN" "http://www.w3.org/Graphics/SVG/1.1/DTD/svg11.dtd">
<svg version="1.1" id="Capa_1" xmlns="http://www.w3.org/2000/svg" xmlns:xlink="http://www.w3.org/1999/xlink" x="0px" y="0px"
	 width="40px" height="40px" viewBox="0 0 40 40" enable-background="new 0 0 40 40" xml:space="preserve">
<linearGradient id="SVGID_1_" gradientUnits="userSpaceOnUse" x1="9.4785" y1="20" x2="30.5215" y2="20">
	<stop  offset="0" style="stop-color:#FFA402"/>
	<stop  offset="1" style="stop-color:#FF5731"/>
</linearGradient>
<path fill="url(#SVGID_1_)" d="M28.93,21.788h-3.533c-0.648,0-1.232,0.394-1.477,0.996l-1.109,2.742
	c-4.285-0.655-7.682-4.052-8.336-8.337l2.742-1.109c0.602-0.243,0.996-0.826,0.996-1.475v-3.534c0-0.88-0.715-1.593-1.594-1.593
	h-3.018c-2.275,0-4.123,1.848-4.123,4.124v2.075l0,0c0,8.185,6.66,14.845,14.844,14.845h2.076c2.277,0,4.123-1.847,4.123-4.123
	v-3.02C30.521,22.5,29.809,21.788,28.93,21.788z"/>
</svg>
