<?xml version="1.0" encoding="utf-8"?>
<!-- Generator: Adobe Illustrator 16.0.0, SVG Export Plug-In . SVG Version: 6.00 Build 0)  -->
<!DOCTYPE svg PUBLIC "-//W3C//DTD SVG 1.1//EN" "http://www.w3.org/Graphics/SVG/1.1/DTD/svg11.dtd">
<svg version="1.1" id="Capa_1" xmlns="http://www.w3.org/2000/svg" xmlns:xlink="http://www.w3.org/1999/xlink" x="0px" y="0px"
	 width="50px" height="50px" viewBox="0 0 50 50" enable-background="new 0 0 50 50" xml:space="preserve">
<g>
	<g>
		<path fill="#FF2B00" d="M41.612,18.127c0,9.174-16.613,30.359-16.613,30.359S8.388,27.301,8.388,18.127S15.825,1.514,24.999,1.514
			S41.612,8.953,41.612,18.127z"/>
		<path fill="#CB0000" d="M41.612,18.127c0-9.174-7.439-16.613-16.613-16.613v46.973C24.999,48.486,41.612,27.301,41.612,18.127z"/>
		<circle fill="#FF5533" cx="25" cy="18.266" r="14.337"/>
		<circle fill="#B20100" cx="25" cy="18.266" r="13.843"/>
		<circle fill="#FFFFFF" cx="24.999" cy="18.266" r="12.586"/>
	</g>
</g>
<g>
	<path fill="#E39B30" d="M19.456,10.392L19.456,10.392L19.456,10.392c-0.083,0.144-0.132,0.308-0.138,0.484l0.002,17.174
		l4.606-2.661l0.012-0.006l0.014-0.007c0.149-0.094,0.269-0.218,0.352-0.362c0.084-0.144,0.131-0.309,0.137-0.485v-5.347v-5.913
		L19.456,10.392z"/>
	<path fill="#A32531" d="M34.544,19.103L34.544,19.103c0.083-0.144,0.133-0.311,0.137-0.486l0.001-4.783
		c-0.005-0.175-0.055-0.341-0.138-0.484l-4.983,2.876L34.544,19.103z"/>
	<path fill="#D35B2B" d="M24.44,7.515L24.44,7.515c-0.167,0-0.333,0.04-0.488,0.124l-4.143,2.393
		c-0.152,0.092-0.271,0.216-0.354,0.361l4.984,2.877V7.515z"/>
	<path fill="#CC2229" d="M34.544,13.348L34.544,13.348c-0.082-0.144-0.201-0.268-0.353-0.362l-4.631-2.673l-4.632-2.674
		c-0.155-0.084-0.322-0.125-0.488-0.125v5.754l5.12,2.957L34.544,13.348L34.544,13.348z"/>
	<g>
		<defs>
			<path id="SVGID_1_" d="M24.44,19.182l4.607,2.662v-0.002l0.006,0.004l0.02,0.012c0.157,0.082,0.322,0.123,0.487,0.121
				c0.165,0.002,0.332-0.039,0.485-0.12l4.146-2.395c0.151-0.093,0.271-0.218,0.354-0.361l-4.984-2.877L24.44,19.182z"/>
		</defs>
		<clipPath id="SVGID_2_">
			<use xlink:href="#SVGID_1_"  overflow="visible"/>
		</clipPath>
		
			<linearGradient id="SVGID_3_" gradientUnits="userSpaceOnUse" x1="-274.6421" y1="422.7803" x2="-274.4538" y2="422.7803" gradientTransform="matrix(40.3733 -23.3102 -23.3102 -40.3733 20968.9453 10688.3125)">
			<stop  offset="0" style="stop-color:#BFC0C1"/>
			<stop  offset="1" style="stop-color:#808183"/>
		</linearGradient>
		<polygon clip-path="url(#SVGID_2_)" fill="url(#SVGID_3_)" points="21.948,17.665 32.019,11.851 37.036,20.542 26.967,26.356 		
			"/>
	</g>
</g>
</svg>
