<?xml version="1.0" encoding="utf-8"?>
<!-- Generator: Adobe Illustrator 16.0.0, SVG Export Plug-In . SVG Version: 6.00 Build 0)  -->
<!DOCTYPE svg PUBLIC "-//W3C//DTD SVG 1.1//EN" "http://www.w3.org/Graphics/SVG/1.1/DTD/svg11.dtd">
<svg version="1.1" id="Capa_1" xmlns="http://www.w3.org/2000/svg" xmlns:xlink="http://www.w3.org/1999/xlink" x="0px" y="0px"
	 width="62px" height="75px" viewBox="0 0 62 75" enable-background="new 0 0 62 75" xml:space="preserve">
<g>
	<path fill="#E39B30" d="M4.018,11.803L4.018,11.803v0.002c-0.289,0.497-0.458,1.067-0.478,1.678l0.004,59.528l15.967-9.222
		l0.042-0.021l0.047-0.026c0.518-0.322,0.93-0.755,1.217-1.254c0.292-0.496,0.457-1.069,0.475-1.683V42.27V21.776L4.018,11.803z"/>
	<path fill="#A32531" d="M56.313,41.996L56.313,41.996c0.286-0.499,0.457-1.075,0.472-1.685l0.003-16.578
		c-0.019-0.61-0.189-1.185-0.476-1.681L39.04,32.024L56.313,41.996z"/>
	<path fill="#D35B2B" d="M21.293,1.83H21.29c-0.576,0-1.152,0.139-1.688,0.428l-14.36,8.294c-0.528,0.321-0.937,0.75-1.224,1.25
		l17.275,9.973V1.83z"/>
	<path fill="#CC2229" d="M56.313,22.05L56.313,22.05c-0.286-0.5-0.697-0.931-1.222-1.253L39.04,11.531l-16.054-9.27
		c-0.538-0.292-1.116-0.433-1.693-0.431v19.946L39.04,32.024l17.273-9.972V22.05z"/>
	<g>
		<defs>
			<path id="SVGID_1_" d="M21.293,42.27l15.969,9.224v-0.005l0.019,0.014l0.072,0.044c0.54,0.284,1.116,0.426,1.688,0.42
				c0.571,0.006,1.152-0.136,1.685-0.416l14.367-8.302c0.523-0.321,0.937-0.754,1.223-1.252L39.04,32.025L21.293,42.27z"/>
		</defs>
		<clipPath id="SVGID_2_">
			<use xlink:href="#SVGID_1_"  overflow="visible"/>
		</clipPath>
		
			<linearGradient id="SVGID_3_" gradientUnits="userSpaceOnUse" x1="-167.354" y1="435.6523" x2="-166.7006" y2="435.6523" gradientTransform="matrix(40.3733 -23.3102 -23.3102 -40.3733 16937.2949 13737.2734)">
			<stop  offset="0" style="stop-color:#BFC0C1"/>
			<stop  offset="1" style="stop-color:#808183"/>
		</linearGradient>
		<polygon clip-path="url(#SVGID_2_)" fill="url(#SVGID_3_)" points="12.654,37.012 47.558,16.86 64.952,46.985 30.048,67.137 		"/>
	</g>
</g>
</svg>
