<?xml version="1.0" encoding="utf-8"?>
<!-- Generator: Adobe Illustrator 16.0.0, SVG Export Plug-In . SVG Version: 6.00 Build 0)  -->
<!DOCTYPE svg PUBLIC "-//W3C//DTD SVG 1.1//EN" "http://www.w3.org/Graphics/SVG/1.1/DTD/svg11.dtd">
<svg version="1.1" id="Capa_1" xmlns="http://www.w3.org/2000/svg" xmlns:xlink="http://www.w3.org/1999/xlink" x="0px" y="0px"
	 width="40px" height="40px" viewBox="0 0 40 40" enable-background="new 0 0 40 40" xml:space="preserve">
<path fill="#CB0000" d="M29.45,29.45c-0.733,0.733-1.922,0.733-2.656,0l-3.314-3.314c-1.364,0.872-2.975,1.395-4.714,1.395
	c-4.84,0-8.764-3.924-8.764-8.765S13.924,10,18.765,10c4.841,0,8.765,3.924,8.765,8.765c0,1.739-0.522,3.351-1.395,4.715
	l3.314,3.314C30.183,27.527,30.183,28.715,29.45,29.45z M18.765,12.505c-3.457,0-6.26,2.803-6.26,6.26c0,3.459,2.803,6.26,6.26,6.26
	c3.458,0,6.26-2.801,6.26-6.26C25.025,15.308,22.223,12.505,18.765,12.505z"/>
</svg>
