<?xml version="1.0" encoding="utf-8"?>
<!-- Generator: Adobe Illustrator 16.0.0, SVG Export Plug-In . SVG Version: 6.00 Build 0)  -->
<!DOCTYPE svg PUBLIC "-//W3C//DTD SVG 1.1//EN" "http://www.w3.org/Graphics/SVG/1.1/DTD/svg11.dtd">
<svg version="1.1" id="Capa_1" xmlns="http://www.w3.org/2000/svg" xmlns:xlink="http://www.w3.org/1999/xlink" x="0px" y="0px"
	 width="237px" height="132px" viewBox="0 0 237 132" enable-background="new 0 0 237 132" xml:space="preserve">
<g>
	<path fill-rule="evenodd" clip-rule="evenodd" fill="#636363" d="M85.392,69.698l8.699-14.939
		c2.94,17.165,29.211,19.941,31.866-0.89c2.663-0.078,5.326-0.157,7.99-0.236c-0.644,21.708-26.143,30.787-41.512,16.303
		L85.392,69.698L85.392,69.698z"/>
	<path fill-rule="evenodd" clip-rule="evenodd" fill="#636363" d="M122.013,10.312l8.589,15.004
		c-16.335-6.036-31.875,15.327-15.162,28.042c-1.264,2.346-2.527,4.692-3.791,7.038c-18.477-11.411-13.591-38.033,6.637-44.101
		L122.013,10.312L122.013,10.312z"/>
	<path fill-rule="evenodd" clip-rule="evenodd" fill="#636363" d="M152.646,72.254l-17.289-0.063
		c13.396-11.128,2.665-35.268-16.702-27.151c-1.401-2.268-2.801-4.535-4.201-6.803c19.121-10.296,39.734,7.246,34.875,27.799
		L152.646,72.254L152.646,72.254z"/>
	<path fill="#636363" d="M56.115,111.198h-6.472c0.279-2.717,0.507-5.907,0.683-9.57c0.178-3.663,0.295-7.669,0.356-12.022h6.474
		c-0.062,0.521-0.111,1.104-0.163,1.745c-0.05,0.641-0.111,1.549-0.178,2.728l-0.521,10.115c-0.041,0.935-0.076,1.983-0.102,3.152
		C56.161,108.514,56.137,109.797,56.115,111.198L56.115,111.198z M75.44,94.573v-0.108c0.04-1.277,0.061-2.234,0.061-2.87
		c0-0.233-0.005-0.57-0.015-1.011s-0.016-0.767-0.016-0.979h5.687c-0.116,0.989-0.207,1.832-0.267,2.538
		c-0.057,0.707-0.102,1.364-0.133,1.968l-0.577,12.294c-0.021,0.435-0.036,0.848-0.046,1.233s-0.016,0.777-0.016,1.174
		c0,0.212,0.006,0.582,0.016,1.12s0.016,0.956,0.016,1.266h-7.934c-0.792-1.994-1.557-3.88-2.302-5.652
		c-0.046-0.13-0.081-0.211-0.102-0.255l-4.102-9.397l-0.37,8.599c-0.03,0.755-0.065,2.136-0.102,4.141
		c-0.019,1.104-0.04,1.963-0.06,2.565h-5.702c0.187-1.613,0.364-3.88,0.532-6.799c0.172-2.919,0.39-7.854,0.654-14.794h7.725
		l6.742,15.43L75.44,94.573L75.44,94.573z M96.59,108.585c-0.219,0.45-0.416,0.891-0.594,1.331c-0.177,0.44-0.334,0.87-0.471,1.282
		h-7.249c-0.061-0.223-0.162-0.598-0.305-1.124c-0.148-0.522-0.259-0.925-0.334-1.201l-5.749-19.268h6.681
		c0.062,0.392,0.131,0.799,0.218,1.229c0.082,0.424,0.188,0.864,0.32,1.32l3.432,12.881l4.988-12.163
		c0.168-0.424,0.35-0.913,0.547-1.468c0.204-0.549,0.406-1.152,0.614-1.799h6.682L96.59,108.585L96.59,108.585z M105.102,111.198
		c0.269-2.651,0.486-5.782,0.653-9.386s0.284-7.674,0.34-12.207h16.192l-0.238,5c-0.812-0.038-1.531-0.076-2.155-0.104
		c-0.624-0.026-1.044-0.037-1.263-0.037l-6.387,0.016c-0.076,0.826-0.127,1.446-0.146,1.848c-0.022,0.402-0.031,0.772-0.031,1.114
		v0.413h5.231c0.68,0,1.294-0.011,1.825-0.032c0.532-0.021,1.029-0.055,1.486-0.093l-0.238,5.077
		c-0.336-0.033-0.695-0.055-1.07-0.065s-0.953-0.017-1.738-0.017h-1.395h-4.354c-0.056,0.445-0.102,0.881-0.132,1.305
		c-0.03,0.429-0.046,0.858-0.046,1.293c0,0.256,0.005,0.446,0.011,0.571c0.005,0.13,0.009,0.238,0.02,0.337
		c0.583,0.076,1.217,0.125,1.896,0.157c0.674,0.032,1.506,0.049,2.483,0.049c1.034,0,2.018-0.021,2.956-0.064
		c0.942-0.044,1.824-0.104,2.646-0.19l-0.238,5.016H105.102L105.102,111.198z M141.936,94.796c-0.811-0.299-1.622-0.517-2.438-0.657
		c-0.812-0.147-1.606-0.218-2.388-0.218c-2.135,0-3.791,0.604-4.978,1.81c-1.192,1.201-1.785,2.881-1.785,5.038
		c0,2.006,0.527,3.489,1.577,4.451c1.049,0.963,2.672,1.44,4.871,1.44c0.791,0,1.582-0.054,2.368-0.168
		c0.79-0.108,1.602-0.282,2.448-0.517l-0.699,5.065c-0.893,0.212-1.805,0.375-2.743,0.483c-0.933,0.114-1.886,0.169-2.858,0.169
		c-3.722,0-6.561-0.918-8.512-2.761c-1.952-1.843-2.926-4.522-2.926-8.038c0-3.713,1.055-6.599,3.158-8.653
		c2.104-2.054,5.064-3.082,8.887-3.082c0.953,0,1.906,0.055,2.869,0.169c0.959,0.109,1.932,0.283,2.91,0.517L141.936,94.796
		L141.936,94.796z M143.882,111.198c0.27-2.651,0.487-5.782,0.654-9.386s0.284-7.674,0.34-12.207h16.19l-0.238,5
		c-0.81-0.038-1.53-0.076-2.153-0.104c-0.624-0.026-1.044-0.037-1.263-0.037l-6.388,0.016c-0.075,0.826-0.126,1.446-0.147,1.848
		c-0.02,0.402-0.029,0.772-0.029,1.114v0.413h5.23c0.68,0,1.294-0.011,1.826-0.032s1.029-0.055,1.484-0.093l-0.238,5.077
		c-0.334-0.033-0.694-0.055-1.068-0.065c-0.376-0.011-0.953-0.017-1.739-0.017h-1.394h-4.355c-0.055,0.445-0.102,0.881-0.132,1.305
		c-0.03,0.429-0.046,0.858-0.046,1.293c0,0.256,0.006,0.446,0.011,0.571c0.005,0.13,0.011,0.238,0.021,0.337
		c0.583,0.076,1.217,0.125,1.896,0.157c0.675,0.032,1.506,0.049,2.484,0.049c1.033,0,2.018-0.021,2.955-0.064
		c0.943-0.044,1.825-0.104,2.646-0.19l-0.238,5.016H143.882L143.882,111.198z M172.56,89.605c0.041,0.299,0.086,0.619,0.142,0.962
		c0.051,0.348,0.117,0.75,0.197,1.217l2.125,11.691l3.254-10.974c0.188-0.603,0.34-1.13,0.467-1.581
		c0.121-0.451,0.232-0.892,0.335-1.315h8.598c-0.062,1.125-0.112,2.402-0.162,3.837c-0.011,0.311-0.015,0.521-0.015,0.636
		l-0.4,12.327c0,0.108-0.006,0.31-0.016,0.603c-0.012,0.3-0.016,0.544-0.016,0.734c0,0.457,0.004,0.979,0.02,1.56
		c0.016,0.587,0.041,1.218,0.066,1.896h-5.951c0.066-0.564,0.131-1.157,0.182-1.782c0.057-0.625,0.092-1.271,0.112-1.929
		l0.375-7.518c0.005-0.157,0.025-0.837,0.056-2.038c0.03-1.195,0.061-2.256,0.092-3.169l-4.38,13.822
		c-0.198,0.641-0.351,1.141-0.456,1.516c-0.103,0.37-0.193,0.739-0.273,1.098h-4.944c-0.04-0.32-0.091-0.674-0.151-1.059
		c-0.061-0.387-0.132-0.805-0.223-1.251l-2.778-13.995l-0.816,10.539c-0.046,0.641-0.097,1.413-0.146,2.32
		c-0.052,0.907-0.102,2.055-0.162,3.445h-5.318c0.376-2.641,0.716-5.799,1.019-9.456c0.3-3.664,0.553-7.707,0.751-12.137H172.56
		L172.56,89.605z"/>
	<path fill="#636363" d="M49.054,120.754v-6.553h1.264v6.553H49.054L49.054,120.754z M55.642,120.754h-1.2v-2.423
		c0-0.512-0.025-0.844-0.077-0.994c-0.051-0.149-0.136-0.268-0.251-0.351s-0.254-0.126-0.416-0.126c-0.208,0-0.395,0.06-0.56,0.179
		c-0.165,0.12-0.278,0.277-0.339,0.475c-0.063,0.197-0.093,0.56-0.093,1.091v2.149h-1.2v-4.746h1.115v0.697
		c0.396-0.537,0.895-0.806,1.495-0.806c0.264,0,0.508,0.05,0.726,0.149c0.219,0.101,0.385,0.228,0.498,0.383
		c0.111,0.156,0.191,0.331,0.234,0.528c0.046,0.196,0.068,0.478,0.068,0.844V120.754L55.642,120.754z M61.02,120.754h-1.114v-0.697
		c-0.186,0.272-0.403,0.474-0.657,0.606c-0.252,0.133-0.506,0.198-0.762,0.198c-0.521,0-0.968-0.22-1.34-0.659
		c-0.37-0.439-0.558-1.053-0.558-1.839c0-0.806,0.181-1.417,0.544-1.835c0.36-0.418,0.818-0.629,1.371-0.629
		c0.506,0,0.945,0.222,1.315,0.662v-2.36h1.2V120.754L61.02,120.754z M57.816,118.278c0,0.506,0.066,0.872,0.2,1.1
		c0.192,0.326,0.464,0.491,0.812,0.491c0.277,0,0.512-0.123,0.705-0.369c0.194-0.245,0.29-0.613,0.29-1.102
		c0-0.545-0.094-0.938-0.281-1.178c-0.188-0.239-0.429-0.36-0.724-0.36c-0.283,0-0.521,0.119-0.714,0.355
		C57.912,117.453,57.816,117.807,57.816,118.278L57.816,118.278z M65.189,120.754v-0.711c-0.166,0.254-0.383,0.453-0.651,0.601
		c-0.271,0.145-0.554,0.218-0.853,0.218c-0.306,0-0.578-0.07-0.821-0.209c-0.242-0.141-0.417-0.337-0.526-0.591
		c-0.107-0.253-0.162-0.604-0.162-1.051v-3.003h1.2v2.181c0,0.668,0.021,1.076,0.067,1.228c0.044,0.15,0.124,0.269,0.241,0.357
		c0.115,0.089,0.263,0.131,0.444,0.131c0.205,0,0.39-0.058,0.552-0.176s0.271-0.264,0.332-0.438c0.059-0.175,0.09-0.603,0.09-1.281
		v-2.002h1.2v4.746H65.189L65.189,120.754z M67.125,119.399l1.205-0.192c0.05,0.244,0.153,0.431,0.312,0.557
		c0.155,0.127,0.374,0.191,0.657,0.191c0.311,0,0.544-0.06,0.699-0.181c0.107-0.082,0.159-0.194,0.159-0.334
		c0-0.096-0.028-0.176-0.085-0.237c-0.06-0.06-0.194-0.115-0.401-0.166c-0.967-0.223-1.582-0.427-1.842-0.611
		c-0.357-0.256-0.537-0.613-0.537-1.069c0-0.41,0.154-0.757,0.465-1.036c0.311-0.28,0.791-0.421,1.443-0.421
		c0.622,0,1.084,0.106,1.386,0.317c0.302,0.212,0.509,0.524,0.622,0.939l-1.131,0.219c-0.048-0.185-0.14-0.326-0.275-0.425
		c-0.136-0.099-0.328-0.147-0.579-0.147c-0.316,0-0.543,0.046-0.68,0.139c-0.091,0.065-0.136,0.151-0.136,0.255
		c0,0.09,0.041,0.165,0.12,0.228c0.107,0.084,0.481,0.201,1.122,0.354c0.639,0.15,1.085,0.337,1.339,0.558
		c0.25,0.225,0.376,0.535,0.376,0.934c0,0.435-0.175,0.811-0.522,1.123c-0.347,0.313-0.859,0.469-1.541,0.469
		c-0.618,0-1.107-0.132-1.469-0.394C67.471,120.206,67.236,119.85,67.125,119.399L67.125,119.399z M74.492,116.008v1.001h-0.819
		v1.913c0,0.388,0.007,0.613,0.024,0.678c0.016,0.063,0.051,0.115,0.105,0.158c0.057,0.041,0.124,0.063,0.203,0.063
		c0.112,0,0.272-0.041,0.483-0.12l0.103,0.973c-0.279,0.126-0.595,0.188-0.949,0.188c-0.216,0-0.412-0.038-0.584-0.113
		c-0.174-0.076-0.301-0.176-0.383-0.296s-0.137-0.284-0.17-0.49c-0.023-0.145-0.037-0.44-0.037-0.885v-2.068h-0.551v-1.001h0.551
		v-0.944l1.204-0.732v1.677H74.492L74.492,116.008z M76.476,120.754h-1.2v-4.746h1.114v0.675c0.19-0.319,0.363-0.53,0.515-0.631
		c0.153-0.101,0.325-0.152,0.52-0.152c0.273,0,0.536,0.079,0.79,0.238l-0.372,1.094c-0.201-0.136-0.389-0.205-0.563-0.205
		c-0.169,0-0.311,0.048-0.428,0.146c-0.118,0.097-0.208,0.271-0.276,0.525c-0.067,0.253-0.1,0.784-0.1,1.591V120.754L76.476,120.754
		z M78.731,115.364v-1.163h1.2v1.163H78.731L78.731,115.364z M78.731,120.754v-4.746h1.2v4.746H78.731L78.731,120.754z
		 M82.059,117.456l-1.089-0.206c0.122-0.46,0.333-0.798,0.632-1.02c0.301-0.22,0.743-0.331,1.332-0.331
		c0.537,0,0.934,0.067,1.197,0.2c0.262,0.133,0.446,0.301,0.553,0.505c0.107,0.204,0.16,0.578,0.16,1.124l-0.013,1.467
		c0,0.416,0.019,0.724,0.059,0.923c0.038,0.197,0.11,0.41,0.216,0.636h-1.188c-0.03-0.083-0.07-0.207-0.115-0.37
		c-0.019-0.075-0.034-0.124-0.042-0.148c-0.206,0.209-0.426,0.365-0.658,0.47c-0.234,0.104-0.482,0.156-0.748,0.156
		c-0.467,0-0.836-0.133-1.104-0.396c-0.27-0.266-0.404-0.602-0.404-1.007c0-0.268,0.061-0.507,0.184-0.718
		c0.123-0.211,0.294-0.371,0.516-0.482c0.22-0.111,0.539-0.208,0.955-0.293c0.56-0.109,0.949-0.213,1.164-0.308v-0.125
		c0-0.242-0.057-0.414-0.17-0.518c-0.113-0.103-0.328-0.154-0.645-0.154c-0.215,0-0.381,0.045-0.501,0.133
		C82.229,117.081,82.133,117.234,82.059,117.456L82.059,117.456z M83.664,118.476c-0.152,0.053-0.396,0.116-0.73,0.191
		c-0.332,0.075-0.55,0.147-0.653,0.219c-0.155,0.117-0.233,0.264-0.233,0.442c0,0.177,0.063,0.328,0.188,0.456
		s0.283,0.191,0.479,0.191c0.217,0,0.422-0.074,0.619-0.223c0.146-0.112,0.24-0.251,0.286-0.416
		c0.033-0.107,0.046-0.312,0.046-0.612V118.476L83.664,118.476z M90.064,120.754l-2.239-6.553h1.372l1.583,4.851l1.536-4.851h1.34
		l-2.243,6.553H90.064L90.064,120.754z M96.438,119.244l1.196,0.209c-0.154,0.459-0.396,0.809-0.729,1.048
		c-0.332,0.241-0.747,0.36-1.245,0.36c-0.788,0-1.371-0.269-1.751-0.809c-0.298-0.432-0.449-0.979-0.449-1.636
		c0-0.787,0.197-1.404,0.591-1.85c0.393-0.445,0.89-0.668,1.49-0.668c0.676,0,1.208,0.233,1.598,0.7s0.577,1.181,0.56,2.144h-3.007
		c0.008,0.373,0.104,0.662,0.29,0.868c0.185,0.208,0.417,0.312,0.692,0.312c0.188,0,0.346-0.054,0.474-0.16
		C96.276,119.654,96.374,119.481,96.438,119.244L96.438,119.244z M96.507,117.975c-0.009-0.365-0.099-0.641-0.269-0.83
		c-0.171-0.189-0.379-0.284-0.624-0.284c-0.263,0-0.479,0.102-0.649,0.301c-0.17,0.198-0.255,0.47-0.252,0.813H96.507
		L96.507,117.975z M102.804,120.754h-1.2v-2.423c0-0.512-0.025-0.844-0.077-0.994c-0.05-0.149-0.135-0.268-0.25-0.351
		c-0.116-0.083-0.254-0.126-0.416-0.126c-0.208,0-0.396,0.06-0.56,0.179c-0.165,0.12-0.278,0.277-0.34,0.475
		s-0.092,0.56-0.092,1.091v2.149h-1.2v-4.746h1.114v0.697c0.397-0.537,0.895-0.806,1.497-0.806c0.264,0,0.508,0.05,0.727,0.149
		c0.218,0.101,0.384,0.228,0.497,0.383c0.111,0.156,0.19,0.331,0.234,0.528c0.045,0.196,0.066,0.478,0.066,0.844V120.754
		L102.804,120.754z M106.648,119.244l1.197,0.209c-0.154,0.459-0.398,0.809-0.73,1.048c-0.331,0.241-0.747,0.36-1.245,0.36
		c-0.789,0-1.373-0.269-1.752-0.809c-0.299-0.432-0.448-0.979-0.448-1.636c0-0.787,0.196-1.404,0.59-1.85
		c0.393-0.445,0.89-0.668,1.49-0.668c0.675,0,1.208,0.233,1.599,0.7c0.389,0.467,0.576,1.181,0.559,2.144h-3.007
		c0.009,0.373,0.104,0.662,0.29,0.868c0.186,0.208,0.417,0.312,0.692,0.312c0.188,0,0.346-0.054,0.475-0.16
		C106.486,119.654,106.584,119.481,106.648,119.244L106.648,119.244z M106.717,117.975c-0.01-0.365-0.099-0.641-0.269-0.83
		c-0.17-0.189-0.378-0.284-0.624-0.284c-0.262,0-0.478,0.102-0.649,0.301c-0.171,0.198-0.255,0.47-0.252,0.813H106.717
		L106.717,117.975z M108.405,120.754v-0.979l1.7-2.041c0.278-0.334,0.485-0.57,0.618-0.711c-0.138,0.009-0.322,0.014-0.55,0.017
		l-1.603,0.01v-1.041h3.751v0.89l-1.734,2.092l-0.611,0.692c0.332-0.021,0.539-0.032,0.62-0.032h1.857v1.104H108.405
		L108.405,120.754z M112.984,118.313c0-0.417,0.099-0.821,0.294-1.212c0.196-0.389,0.476-0.688,0.836-0.893
		c0.359-0.206,0.763-0.31,1.206-0.31c0.686,0,1.249,0.233,1.688,0.7c0.439,0.467,0.658,1.056,0.658,1.769
		c0,0.717-0.223,1.313-0.664,1.785c-0.442,0.473-1,0.708-1.672,0.708c-0.417,0-0.813-0.098-1.19-0.295
		c-0.377-0.196-0.665-0.485-0.861-0.865C113.083,119.321,112.984,118.859,112.984,118.313L112.984,118.313z M114.215,118.381
		c0,0.471,0.106,0.831,0.32,1.081c0.213,0.25,0.477,0.375,0.79,0.375c0.315,0,0.577-0.125,0.789-0.375
		c0.212-0.25,0.318-0.613,0.318-1.091c0-0.464-0.106-0.822-0.318-1.072c-0.212-0.25-0.474-0.376-0.789-0.376
		c-0.313,0-0.577,0.126-0.79,0.376C114.321,117.549,114.215,117.91,114.215,118.381L114.215,118.381z M118.606,120.754v-6.553h1.2
		v6.553H118.606L118.606,120.754z M121.934,117.456l-1.09-0.206c0.123-0.46,0.334-0.798,0.633-1.02
		c0.3-0.22,0.743-0.331,1.332-0.331c0.537,0,0.936,0.067,1.197,0.2c0.261,0.133,0.446,0.301,0.553,0.505s0.16,0.578,0.16,1.124
		l-0.013,1.467c0,0.416,0.019,0.724,0.058,0.923c0.038,0.197,0.111,0.41,0.217,0.636h-1.189c-0.03-0.083-0.07-0.207-0.115-0.37
		c-0.02-0.075-0.033-0.124-0.041-0.148c-0.206,0.209-0.425,0.365-0.658,0.47c-0.234,0.104-0.482,0.156-0.748,0.156
		c-0.467,0-0.836-0.133-1.104-0.396c-0.269-0.266-0.403-0.602-0.403-1.007c0-0.268,0.061-0.507,0.184-0.718s0.293-0.371,0.515-0.482
		c0.22-0.111,0.54-0.208,0.955-0.293c0.56-0.109,0.95-0.213,1.165-0.308v-0.125c0-0.242-0.057-0.414-0.17-0.518
		c-0.114-0.103-0.328-0.154-0.646-0.154c-0.214,0-0.38,0.045-0.499,0.133C122.104,117.081,122.008,117.234,121.934,117.456
		L121.934,117.456z M123.539,118.476c-0.152,0.053-0.396,0.116-0.73,0.191c-0.332,0.075-0.549,0.147-0.652,0.219
		c-0.157,0.117-0.235,0.264-0.235,0.442c0,0.177,0.063,0.328,0.188,0.456c0.125,0.128,0.283,0.191,0.479,0.191
		c0.217,0,0.422-0.074,0.619-0.223c0.146-0.112,0.24-0.251,0.285-0.416c0.032-0.107,0.047-0.312,0.047-0.612V118.476
		L123.539,118.476z M130.029,120.754h-1.199v-2.423c0-0.512-0.027-0.844-0.078-0.994c-0.051-0.149-0.135-0.268-0.25-0.351
		s-0.254-0.126-0.416-0.126c-0.209,0-0.396,0.06-0.561,0.179c-0.164,0.12-0.277,0.277-0.339,0.475s-0.093,0.56-0.093,1.091v2.149
		h-1.199v-4.746h1.113v0.697c0.396-0.537,0.896-0.806,1.497-0.806c0.264,0,0.507,0.05,0.726,0.149
		c0.219,0.101,0.385,0.228,0.497,0.383c0.112,0.156,0.19,0.331,0.235,0.528c0.045,0.196,0.066,0.478,0.066,0.844V120.754
		L130.029,120.754z M132.144,117.456l-1.089-0.206c0.122-0.46,0.332-0.798,0.631-1.02c0.301-0.22,0.744-0.331,1.333-0.331
		c0.537,0,0.935,0.067,1.197,0.2c0.261,0.133,0.446,0.301,0.552,0.505c0.107,0.204,0.161,0.578,0.161,1.124l-0.013,1.467
		c0,0.416,0.02,0.724,0.059,0.923c0.037,0.197,0.111,0.41,0.216,0.636h-1.188c-0.03-0.083-0.07-0.207-0.115-0.37
		c-0.02-0.075-0.033-0.124-0.043-0.148c-0.205,0.209-0.424,0.365-0.656,0.47c-0.234,0.104-0.484,0.156-0.749,0.156
		c-0.466,0-0.835-0.133-1.104-0.396c-0.27-0.266-0.404-0.602-0.404-1.007c0-0.268,0.062-0.507,0.184-0.718s0.294-0.371,0.515-0.482
		s0.539-0.208,0.955-0.293c0.561-0.109,0.949-0.213,1.166-0.308v-0.125c0-0.242-0.058-0.414-0.172-0.518
		c-0.113-0.103-0.327-0.154-0.644-0.154c-0.215,0-0.381,0.045-0.501,0.133C132.314,117.081,132.219,117.234,132.144,117.456
		L132.144,117.456z M133.75,118.476c-0.154,0.053-0.396,0.116-0.731,0.191c-0.332,0.075-0.55,0.147-0.653,0.219
		c-0.156,0.117-0.234,0.264-0.234,0.442c0,0.177,0.063,0.328,0.188,0.456c0.127,0.128,0.285,0.191,0.479,0.191
		c0.218,0,0.423-0.074,0.62-0.223c0.146-0.112,0.239-0.251,0.285-0.416c0.032-0.107,0.048-0.312,0.048-0.612V118.476L133.75,118.476
		z M142.703,120.754h-1.113v-0.697c-0.186,0.272-0.404,0.474-0.656,0.606s-0.506,0.198-0.762,0.198c-0.523,0-0.969-0.22-1.341-0.659
		c-0.37-0.439-0.557-1.053-0.557-1.839c0-0.806,0.181-1.417,0.542-1.835s0.82-0.629,1.372-0.629c0.506,0,0.944,0.222,1.315,0.662
		v-2.36h1.199V120.754L142.703,120.754z M139.5,118.278c0,0.506,0.067,0.872,0.202,1.1c0.192,0.326,0.463,0.491,0.811,0.491
		c0.276,0,0.512-0.123,0.705-0.369c0.192-0.245,0.29-0.613,0.29-1.102c0-0.545-0.095-0.938-0.281-1.178
		c-0.188-0.239-0.428-0.36-0.723-0.36c-0.284,0-0.522,0.119-0.715,0.355C139.597,117.453,139.5,117.807,139.5,118.278L139.5,118.278
		z M146.514,119.244l1.197,0.209c-0.154,0.459-0.396,0.809-0.729,1.048c-0.332,0.241-0.746,0.36-1.246,0.36
		c-0.789,0-1.371-0.269-1.75-0.809c-0.299-0.432-0.449-0.979-0.449-1.636c0-0.787,0.196-1.404,0.59-1.85
		c0.393-0.445,0.89-0.668,1.49-0.668c0.675,0,1.207,0.233,1.599,0.7c0.39,0.467,0.575,1.181,0.56,2.144h-3.009
		c0.009,0.373,0.105,0.662,0.291,0.868c0.185,0.208,0.417,0.312,0.692,0.312c0.188,0,0.346-0.054,0.475-0.16
		C146.352,119.654,146.449,119.481,146.514,119.244L146.514,119.244z M146.583,117.975c-0.009-0.365-0.099-0.641-0.269-0.83
		c-0.171-0.189-0.379-0.284-0.624-0.284c-0.263,0-0.478,0.102-0.649,0.301c-0.171,0.198-0.255,0.47-0.252,0.813H146.583
		L146.583,117.975z M155.199,118.345l1.227,0.406c-0.188,0.716-0.501,1.247-0.938,1.595c-0.436,0.346-0.991,0.52-1.663,0.52
		c-0.832,0-1.516-0.297-2.051-0.891c-0.535-0.595-0.803-1.408-0.803-2.438c0-1.092,0.27-1.938,0.807-2.542
		c0.539-0.604,1.246-0.905,2.123-0.905c0.766,0,1.389,0.236,1.867,0.711c0.285,0.279,0.499,0.682,0.641,1.207l-1.252,0.313
		c-0.072-0.34-0.227-0.608-0.463-0.806c-0.235-0.196-0.521-0.294-0.856-0.294c-0.464,0-0.842,0.174-1.13,0.523
		c-0.289,0.348-0.434,0.912-0.434,1.693c0,0.828,0.142,1.419,0.428,1.77c0.284,0.353,0.655,0.527,1.109,0.527
		c0.337,0,0.625-0.11,0.868-0.335C154.92,119.177,155.094,118.824,155.199,118.345L155.199,118.345z M160.129,119.244l1.197,0.209
		c-0.154,0.459-0.396,0.809-0.729,1.048c-0.332,0.241-0.748,0.36-1.246,0.36c-0.789,0-1.372-0.269-1.751-0.809
		c-0.299-0.432-0.448-0.979-0.448-1.636c0-0.787,0.195-1.404,0.59-1.85c0.393-0.445,0.889-0.668,1.49-0.668
		c0.674,0,1.207,0.233,1.598,0.7c0.39,0.467,0.576,1.181,0.56,2.144h-3.008c0.009,0.373,0.105,0.662,0.29,0.868
		c0.186,0.208,0.417,0.312,0.693,0.312c0.188,0,0.346-0.054,0.474-0.16C159.967,119.654,160.064,119.481,160.129,119.244
		L160.129,119.244z M160.197,117.975c-0.009-0.365-0.098-0.641-0.268-0.83c-0.172-0.189-0.38-0.284-0.625-0.284
		c-0.262,0-0.479,0.102-0.648,0.301c-0.171,0.198-0.255,0.47-0.252,0.813H160.197L160.197,117.975z M162.277,116.008h1.107v0.646
		c0.395-0.503,0.867-0.755,1.414-0.755c0.291,0,0.543,0.063,0.756,0.188c0.215,0.125,0.389,0.314,0.526,0.567
		c0.198-0.253,0.415-0.442,0.645-0.567c0.23-0.125,0.477-0.188,0.739-0.188c0.332,0,0.615,0.071,0.846,0.214
		c0.23,0.14,0.402,0.349,0.517,0.622c0.083,0.203,0.124,0.531,0.124,0.984v3.034h-1.2v-2.713c0-0.471-0.041-0.774-0.124-0.912
		c-0.111-0.179-0.281-0.269-0.512-0.269c-0.17,0-0.327,0.054-0.476,0.162c-0.147,0.106-0.254,0.264-0.319,0.472
		c-0.066,0.207-0.1,0.533-0.1,0.981v2.278h-1.2v-2.601c0-0.463-0.021-0.76-0.063-0.895c-0.043-0.135-0.109-0.233-0.199-0.299
		c-0.09-0.066-0.211-0.1-0.365-0.1c-0.186,0-0.352,0.052-0.499,0.157c-0.148,0.104-0.255,0.255-0.319,0.452
		c-0.064,0.196-0.096,0.521-0.096,0.978v2.307h-1.201V116.008L162.277,116.008z M172.773,119.244l1.197,0.209
		c-0.154,0.459-0.396,0.809-0.729,1.048c-0.331,0.241-0.746,0.36-1.246,0.36c-0.788,0-1.371-0.269-1.75-0.809
		c-0.3-0.432-0.449-0.979-0.449-1.636c0-0.787,0.195-1.404,0.59-1.85c0.393-0.445,0.891-0.668,1.49-0.668
		c0.676,0,1.207,0.233,1.599,0.7c0.389,0.467,0.575,1.181,0.56,2.144h-3.008c0.009,0.373,0.105,0.662,0.29,0.868
		c0.186,0.208,0.417,0.312,0.692,0.312c0.188,0,0.346-0.054,0.474-0.16C172.612,119.654,172.709,119.481,172.773,119.244
		L172.773,119.244z M172.844,117.975c-0.01-0.365-0.099-0.641-0.27-0.83s-0.379-0.284-0.625-0.284c-0.262,0-0.478,0.102-0.647,0.301
		c-0.171,0.198-0.256,0.47-0.253,0.813H172.844L172.844,117.975z M179.141,120.754h-1.2v-2.423c0-0.512-0.026-0.844-0.077-0.994
		c-0.051-0.149-0.136-0.268-0.251-0.351s-0.253-0.126-0.415-0.126c-0.209,0-0.396,0.06-0.561,0.179
		c-0.165,0.12-0.279,0.277-0.34,0.475c-0.062,0.197-0.092,0.56-0.092,1.091v2.149h-1.2v-4.746h1.114v0.697
		c0.396-0.537,0.896-0.806,1.496-0.806c0.264,0,0.507,0.05,0.726,0.149c0.22,0.101,0.386,0.228,0.498,0.383
		c0.112,0.156,0.19,0.331,0.235,0.528c0.045,0.196,0.066,0.478,0.066,0.844V120.754L179.141,120.754z M182.438,116.008v1.001h-0.82
		v1.913c0,0.388,0.008,0.613,0.023,0.678c0.016,0.063,0.051,0.115,0.107,0.158c0.055,0.041,0.123,0.063,0.201,0.063
		c0.113,0,0.273-0.041,0.485-0.12l0.103,0.973c-0.281,0.126-0.596,0.188-0.95,0.188c-0.216,0-0.411-0.038-0.585-0.113
		c-0.173-0.076-0.3-0.176-0.381-0.296c-0.082-0.12-0.138-0.284-0.17-0.49c-0.024-0.145-0.037-0.44-0.037-0.885v-2.068h-0.552v-1.001
		h0.552v-0.944l1.203-0.732v1.677H182.438L182.438,116.008z M182.992,118.313c0-0.417,0.1-0.821,0.295-1.212
		c0.197-0.389,0.476-0.688,0.836-0.893c0.359-0.206,0.762-0.31,1.207-0.31c0.686,0,1.248,0.233,1.688,0.7
		c0.438,0.467,0.658,1.056,0.658,1.769c0,0.717-0.223,1.313-0.664,1.785c-0.443,0.473-1.001,0.708-1.673,0.708
		c-0.417,0-0.813-0.098-1.189-0.295c-0.378-0.196-0.665-0.485-0.862-0.865C183.092,119.321,182.992,118.859,182.992,118.313
		L182.992,118.313z M184.224,118.381c0,0.471,0.106,0.831,0.32,1.081s0.478,0.375,0.791,0.375s0.576-0.125,0.787-0.375
		c0.213-0.25,0.319-0.613,0.319-1.091c0-0.464-0.106-0.822-0.319-1.072c-0.211-0.25-0.474-0.376-0.787-0.376
		s-0.577,0.126-0.791,0.376S184.224,117.91,184.224,118.381L184.224,118.381z"/>
</g>
</svg>
