<?xml version="1.0" encoding="utf-8"?>
<!-- Generator: Adobe Illustrator 16.0.0, SVG Export Plug-In . SVG Version: 6.00 Build 0)  -->
<!DOCTYPE svg PUBLIC "-//W3C//DTD SVG 1.1//EN" "http://www.w3.org/Graphics/SVG/1.1/DTD/svg11.dtd">
<svg version="1.1" id="Capa_1" xmlns="http://www.w3.org/2000/svg" xmlns:xlink="http://www.w3.org/1999/xlink" x="0px" y="0px"
	 width="237px" height="132px" viewBox="0 0 237 132" enable-background="new 0 0 237 132" xml:space="preserve">
<g>
	<path fill="#636363" d="M157.669,51.892h-4.582l-3.082-10.122h-0.049l0.166,10.122h-3.201v-12.65h4.779l2.854,9.727h0.064
		l-0.166-9.727h3.217V51.892L157.669,51.892z M143.46,48.389c0.007,0.236-0.018,0.716-0.031,0.839
		c-0.197,2.104-1.705,3.175-4.469,3.175c-2.77,0-4.281-1.071-4.475-3.175c-0.008-0.123-0.031-0.603-0.027-0.839v-9.149h3.293v9.439
		c0,0.208,0.006,0.367,0.035,0.472c0.041,0.213,0.248,0.894,1.174,0.894c0.932,0,1.141-0.681,1.189-0.894
		c0.018-0.104,0.021-0.271,0.021-0.472v-9.439h3.289V48.389L143.46,48.389z M131.517,49.545c-0.352,2.479-2.777,2.91-4.49,2.91
		c-2.844,0-4.607-1.215-4.607-3.692l0.008-1.013h3.445v1.261c0,0.682,0.484,1.098,1.229,1.098c0.662,0,1.049-0.264,1.184-0.81
		c0.063-0.253,0.094-0.63-0.023-0.91c-0.637-1.587-5.113-2.364-5.654-4.94c-0.127-0.594-0.131-1.084-0.029-1.713
		c0.375-2.335,2.623-2.822,4.426-2.822c1.617,0,2.787,0.354,3.496,1.057c0.525,0.527,0.789,1.248,0.789,2.145v0.927h-3.221v-0.815
		c0-0.696-0.436-1.099-1.127-1.099c-0.619,0-0.992,0.272-1.111,0.814c-0.025,0.109-0.053,0.376,0.013,0.638
		c0.351,1.417,5.138,2.286,5.663,4.89C131.565,47.805,131.661,48.517,131.517,49.545L131.517,49.545z M116.147,52.024l-0.08-11.1
		h-0.055l-2.064,11.1h-3.299l-2.053-11.1h-0.057l-0.078,11.1h-3.264l0.283-12.783h5.252l1.527,9.498h0.078l1.531-9.498h5.248
		l0.277,12.783H116.147L116.147,52.024z M99.258,52.024l-1.662-11.318h-0.059l-1.709,11.318h-3.514l2.361-12.783h5.735l2.342,12.783
		H99.258L99.258,52.024z M185.351,35.368c-1.639-9.395-29.881-12.333-63.082-6.552c-13.941,2.428-26.529,6.008-36.334,10.042
		c1.504,0.037,2.621,0.38,3.307,1.056c0.525,0.532,0.789,1.262,0.789,2.168v0.93h-3.252v-0.826c0-0.682-0.41-1.104-1.141-1.104
		c-0.613,0-0.986,0.27-1.113,0.818c-0.029,0.15-0.037,0.412,0.02,0.648c0.35,1.425,5.18,2.307,5.707,4.94
		c0.072,0.338,0.158,1.056,0.016,2.094c-0.305,2.122-2.162,2.941-4.533,2.941c-3.311,0-4.656-1.569-4.656-3.734v-1.016h3.492
		l0.006,1.272c0,0.712,0.52,1.11,1.229,1.11c0.666,0,1.063-0.271,1.201-0.826c0.057-0.251,0.087-0.628-0.029-0.915
		c-0.645-1.618-5.156-2.375-5.713-4.991c-0.127-0.598-0.135-1.097-0.033-1.729c0.055-0.344,0.158-0.637,0.289-0.904
		C70.642,45.874,64.28,51.468,65.12,56.3c1.646,9.4,29.881,12.333,63.078,6.557c14.596-2.547,27.713-6.348,37.699-10.613
		c-0.146,0.015-0.283,0.024-0.434,0.024c-2.271,0-4.307-0.852-4.512-3.172c-0.041-0.421-0.041-0.603-0.051-0.842l0.01-5.345
		c0-0.225,0.025-0.629,0.047-0.836c0.275-2.248,2.045-3.172,4.506-3.172c1.9,0,4.234,0.542,4.494,3.175
		c0.033,0.327,0.033,0.681,0.033,0.792c0,0.005,0,0.005,0,0.005v0.504H166.7v-0.749v-0.006c0-0.014-0.008-0.295-0.039-0.472
		c-0.057-0.267-0.281-0.894-1.225-0.894c-0.929,0-1.166,0.627-1.223,0.894c-0.027,0.149-0.051,0.361-0.051,0.593v5.801
		c0,0.201,0.008,0.361,0.029,0.479c0.014,0.089,0.182,0.894,1.258,0.894c1.072,0,1.24-0.805,1.25-0.894
		c0.031-0.162,0.033-0.344,0.031-0.479v-1.791h-1.295v-1.939h4.571v3.44c0,0.236,0,0.41-0.036,0.842
		c-0.063,0.604-0.255,1.124-0.551,1.563C180.013,45.634,186.174,40.125,185.351,35.368L185.351,35.368z"/>
	<path fill="#636363" d="M161.171,92.878h-0.043l-1.539,6.956h3.212L161.171,92.878L161.171,92.878z M154.681,105.878l4.463-16.1
		h4.438l4.371,16.1h-3.547l-0.891-3.568h-4.596l-0.914,3.568H154.681L154.681,105.878z"/>
	<polygon fill="#636363" points="169.245,105.878 169.245,89.778 174.663,89.778 177.185,100.728 177.229,100.728 179.905,89.778 
		185.146,89.778 185.146,105.878 181.868,105.878 181.868,93.458 181.821,93.458 178.724,105.878 175.511,105.878 172.567,93.458 
		172.522,93.458 172.522,105.878 169.245,105.878 	"/>
	<polygon fill="#636363" points="187.665,105.878 187.665,89.778 196.452,89.778 196.452,92.253 191.034,92.253 191.034,96.223 
		196.028,96.223 196.028,98.696 191.034,98.696 191.034,103.403 196.63,103.403 196.63,105.878 187.665,105.878 	"/>
	<path fill="#636363" d="M201.892,96.737h1.494c1.34,0,1.719-1.339,1.719-2.365c0-1.54-0.646-2.119-1.719-2.119h-1.494V96.737
		L201.892,96.737z M201.892,105.878h-3.365v-16.1h6.223c2.297,0,3.768,1.471,3.768,4.215c0,2.051-0.803,3.589-2.988,3.948v0.043
		c0.736,0.09,2.922,0.268,2.922,3.167c0,1.025,0.066,4.058,0.379,4.727h-3.301c-0.445-0.98-0.357-2.072-0.357-3.121
		c0-1.917,0.18-3.545-2.406-3.545h-0.873V105.878L201.892,105.878z"/>
	<polygon fill="#636363" points="210.771,105.878 210.771,89.778 214.136,89.778 214.136,105.878 210.771,105.878 	"/>
	<path fill="#636363" d="M216.589,97.829c0-4.261,0-8.32,5.555-8.32c3.434,0,4.814,1.897,4.684,5.354h-3.301
		c0-2.143-0.379-2.944-1.383-2.944c-1.896,0-2.141,1.785-2.141,5.91c0,4.124,0.244,5.91,2.141,5.91c1.559,0,1.494-2.008,1.539-3.279
		h3.322c0,4.305-1.717,5.688-4.861,5.688C216.589,106.147,216.589,102.044,216.589,97.829L216.589,97.829z"/>
	<path fill="#636363" d="M27.351,92.854h-0.043l-1.537,6.948h3.209L27.351,92.854L27.351,92.854z M20.868,105.841l4.457-16.084
		h4.433l4.366,16.084h-3.541l-0.891-3.565h-4.59l-0.914,3.565H20.868L20.868,105.841z"/>
	<polygon fill="#636363" points="35.417,105.841 35.417,89.757 40.831,89.757 43.349,100.696 43.394,100.696 46.065,89.757 
		51.301,89.757 51.301,105.841 48.026,105.841 48.026,93.433 47.981,93.433 44.888,105.841 41.679,105.841 38.735,93.433 
		38.692,93.433 38.692,105.841 35.417,105.841 	"/>
	<path fill="#636363" d="M58.185,106.108c-4.164,0-4.945-2.452-4.766-5.234h3.361c0,1.536,0.068,2.829,1.916,2.829
		c1.137,0,1.693-0.736,1.693-1.828c0-2.896-6.771-3.073-6.771-7.865c0-2.516,1.203-4.521,5.301-4.521
		c3.277,0,4.902,1.472,4.68,4.835h-3.275c0-1.203-0.201-2.43-1.559-2.43c-1.094,0-1.738,0.602-1.738,1.718
		c0,3.05,6.771,2.784,6.771,7.842C63.798,105.618,60.747,106.108,58.185,106.108L58.185,106.108z"/>
	<path fill="#636363" d="M76.853,89.757v11.406c0,2.405-1.359,4.945-5.459,4.945c-3.697,0-5.479-1.914-5.479-4.945V89.757h3.361
		v11.182c0,1.985,0.848,2.765,2.074,2.765c1.471,0,2.139-0.981,2.139-2.765V89.757H76.853L76.853,89.757z"/>
	<polygon fill="#636363" points="79.392,105.841 79.392,89.757 83.937,89.757 88.214,100.895 88.258,100.895 88.258,89.757 
		91.399,89.757 91.399,105.841 86.965,105.841 82.577,94.077 82.534,94.077 82.534,105.841 79.392,105.841 	"/>
	<path fill="#636363" d="M101.358,94.703c0.021-1.492-0.223-2.81-2.006-2.81c-2.094,0-2.094,2.834-2.094,5.949
		c0,5.033,0.491,5.929,2.407,5.929c0.557,0,1.158-0.136,1.67-0.313v-3.564h-1.827v-2.473h5.192v8.154
		c-0.914,0.178-3.209,0.533-4.547,0.533c-5.658,0-6.305-2.337-6.305-8.443c0-4.054,0.201-8.177,5.703-8.177
		c3.299,0,5.348,1.852,5.149,5.215H101.358L101.358,94.703z"/>
	<path fill="#636363" d="M111.962,97.801c0-4.258,0-8.313,5.546-8.313c3.43,0,4.811,1.895,4.678,5.349h-3.297
		c0-2.14-0.379-2.943-1.381-2.943c-1.894,0-2.138,1.785-2.138,5.907c0,4.118,0.244,5.902,2.138,5.902
		c1.559,0,1.495-2.005,1.538-3.274h3.32c0,4.299-1.717,5.68-4.858,5.68C111.962,106.108,111.962,102.01,111.962,97.801
		L111.962,97.801z"/>
	<path fill="#636363" d="M131.474,92.874c0-0.846-0.514-1.38-1.384-1.38c-0.71,0-1.399,0.514-1.399,1.271
		c0,0.914,0.602,1.648,1.18,2.318C130.649,94.592,131.474,93.88,131.474,92.874L131.474,92.874z M129.224,98.624
		c-0.801,0.625-1.627,1.534-1.627,2.606c0,1.535,0.914,2.473,2.451,2.473c0.957,0,1.871-0.313,2.449-1.071L129.224,98.624
		L129.224,98.624z M134.458,104.569c-1.268,1.25-2.762,1.539-4.477,1.539c-3.699,0-5.748-1.736-5.748-4.878
		c0-2.14,1.492-3.497,3.164-4.589c-0.848-1.093-1.783-2.362-1.783-4.032c0-1.784,2.115-3.121,4.857-3.121
		c1.536,0,4.074,0.712,4.074,3.142c0,2.098-1.447,3.165-2.738,4.323l2.518,3.296c0.287-1.048,0.355-1.648,0.355-3.209h2.719
		c0,1.671,0,3.768-1.092,5.505l2.428,3.296h-3.297L134.458,104.569L134.458,104.569z"/>
	<polygon fill="#636363" points="148.497,89.757 148.497,92.432 144.755,92.432 144.755,105.841 141.39,105.841 141.39,92.432 
		137.646,92.432 137.646,89.757 148.497,89.757 	"/>
	<path fill="#636363" d="M14.784,106.108c-4.164,0-4.945-2.452-4.766-5.234h3.361c0,1.536,0.068,2.829,1.916,2.829
		c1.137,0,1.693-0.736,1.693-1.828c0-2.896-6.771-3.073-6.771-7.865c0-2.516,1.203-4.521,5.301-4.521
		c3.277,0,4.902,1.472,4.68,4.835h-3.275c0-1.203-0.201-2.43-1.559-2.43c-1.094,0-1.738,0.602-1.738,1.718
		c0,3.05,6.771,2.784,6.771,7.842C20.397,105.618,17.347,106.108,14.784,106.108L14.784,106.108z"/>
</g>
</svg>
