<?xml version="1.0" encoding="utf-8"?>
<!-- Generator: Adobe Illustrator 16.0.0, SVG Export Plug-In . SVG Version: 6.00 Build 0)  -->
<!DOCTYPE svg PUBLIC "-//W3C//DTD SVG 1.1//EN" "http://www.w3.org/Graphics/SVG/1.1/DTD/svg11.dtd">
<svg version="1.1" id="Capa_1" xmlns="http://www.w3.org/2000/svg" xmlns:xlink="http://www.w3.org/1999/xlink" x="0px" y="0px"
	 width="237px" height="132px" viewBox="0 0 237 132" enable-background="new 0 0 237 132" xml:space="preserve">
<path fill-rule="evenodd" clip-rule="evenodd" fill="#636363" d="M118.478,29.93c-52.148,0-94.387,16.007-94.387,35.724
	c0,19.717,42.238,35.663,94.387,35.663c52.094,0,94.33-15.945,94.33-35.663C212.808,45.937,170.571,29.93,118.478,29.93z
	 M118.478,97.664c-50.023,0-90.674-14.242-90.674-32.01c0-17.711,40.65-32.131,90.674-32.131c50.152,0,90.74,14.42,90.74,32.131
	C209.218,83.422,168.63,97.664,118.478,97.664z M156.163,63.986c-2.131-0.247-4.809,1.582-7.004,4.258
	c-1.094,1.338-2.253,3.895-2.434,5.416c-0.24,1.521,0.181,3.047,0.732,3.469c0.547,0.428,2.98,1.705,6.752-2.129
	c2.135-2.127,4.201-5.599,4.201-5.599l-0.671-0.181C159.022,66.844,158.78,64.291,156.163,63.986z M118.478,36.2
	c-48.563,0-87.813,13.203-87.813,29.454c0,16.311,39.25,29.52,87.813,29.52c48.504,0,87.881-13.209,87.881-29.52
	C206.358,49.403,166.981,36.2,118.478,36.2z M77.468,81.27c-5.295,0-9.977-3.469-10.098-9.676c-0.061-3.773,2.982-8.399,8.637-9.8
	c0.672,0,0.92,0.244,0.92,0.611c0,0.241-0.248,0.542-0.793,0.789c-1.641,0.611-4.506,3.837-4.506,6.813
	c0,2.255,1.404,4.752,3.779,5.3c0.661,0.182,1.272,0.121,1.881,0.121c5.904,0,12.539-6.635,19.723-16.736
	c-1.156,0.061-6.092,0.605-7.305,2.006c-0.551,0.431-0.912,0.181-1.037-0.301c0-0.124,0.186-0.551,0.369-0.792
	c1.939-2.189,7.785-2.68,9.186-2.861c5.242-8.041,11.93-13.17,13.766-13.537c-0.04-0.01-0.088-0.027-0.135-0.036
	c-4.686-1.096-8.948-2.006-12.291-2.006c-11.748,0-16.979,5.048-16.734,9.676c0.123,1.888,1.645,3.102,3.889,2.677
	c2.438-0.428,5.844-2.737,6.703-4.749c0.18-0.425,0.668-0.485,0.85-0.364c0.361,0.301,0.24,0.731,0.24,0.731
	c-0.301,2.373-3.955,8.947-10.285,8.947c-3.529,0-5.904-3.285-5.836-6.514c0.057-6.023,6.203-12.111,21.357-12.111
	c2.859,0,6.084,0.245,9.613,0.855c4.076,0.728,14.242,2.432,22.516,2.552c3.041,0,6.943,0.124,10.105-0.362
	c3.343-0.549,2.611-0.67,3.953-0.67c1.219,0,1.219,0.486,1.219,0.973c0,1.947-6.818,5.661-12.598,5.661
	c-8.518,0-17.358-3.864-21.947-5.106c0.18,0.167,0.303,0.433,0.162,0.785c-0.061,0.122-0.666,0.791-0.916,0.972
	c-1.217,1.095-5.355,3.777-9.859,11.385c3.656-0.181,7.91-0.912,7.91-0.912s-0.234-0.792-0.234-1.467
	c0.18-2.614,1.701-4.198,3.645-3.894c1.096,0.181,1.83,1.096,1.83,2.072c0,1.03-0.795,2.557-1.58,3.289
	c-0.549,0.421-1.16,0.849-1.893,1.213c0,0.671,0.914,1.217,1.705,1.28c-0.184,0.669-0.123,0.97-0.424,0.913
	c-1.828,0-2.561-1.771-2.561-1.771c-2.434,0.43-4.803,0.735-9.609,1.22C88.669,78.041,84.896,81.27,77.468,81.27z M160.906,78.041
	c2.62-0.119,7.425-5.107,8.584-6.326c0.241-0.308,0.671-0.85,0.907-0.85c0.246,0,0.734,0.24,0.734,0.602
	c0,0.248-0.549,1.16-0.971,1.708c-2.439,3.042-6.453,7.728-11.02,7.849c-2.248,0-3.102-0.91-3.408-2.675
	c-1.034,0.909-4.563,2.493-8.159,2.493c-2.981-0.06-4.2-1.824-4.802-3.223c-0.553-1.158-0.791-2.86-0.366-4.564
	c-1.644,0.852-3.167,0.973-5.356,0.912c-2.555-0.061-4.135-1.219-4.924-4.195c-2.924,5.35-3.049,5.535-6.027,11.131h-5.176
	l6.635-11.26c0.854-1.518,1.279-2.735,1.58-4.015c0.184-0.729-0.361-1.398-1.156-1.458c-0.846,0-2.246,0.849-3.59,2.129
	c0,0-3.412,3.654-5.902,7.361c-2.374,3.529-6.451,7.553-10.891,7.553c-3.23,0-6.152-1.768-6.754-5.178c0,0-0.311,0.793-3.168,2.434
	c-0.244,0.121-0.854,0.485-1.037,0.365c-0.547-0.485-0.85-1.096-0.91-1.523c0.182,0.06,0.547-0.242,1.703-1.154
	c2.252-1.707,2.74-3.041,2.74-3.041c0.551-1.16,1.523-2.982,2.191-4.262c1.822-3.65,4.984-7.364,10.158-7.544
	c0.855,0,1.098,0.364,1.277,0.669c0.49,0.367,0.311,1.093,0.311,1.093c-3.652,0.548-6.15,2.681-7.67,4.75
	c-0.914,1.34-1.883,3.527-2.072,5.113c-0.361,2.738,0.92,4.566,2.801,4.988c3.529,0.547,6.451-2.006,8.77-5.967
	c0.602-1.033,1.033-3.711,1.033-5.173c0-1.458-0.793-2.976-1.4-3.587c0-1.036,0.666-1.705,1.457-1.705c0.244,0,0.484,0,0.732,0.244
	c1.213,1.214,1.885,3.529,1.885,5.297c0,0.602,0,1.213-0.121,1.822c2.557-3.102,5.779-7.12,8.277-7.915
	c0.486-0.241,0.975-0.241,1.463-0.241c4.563-0.12,3.951,4.015,3.951,4.015c2.436-2.795,4.141-3.834,6.385-3.713
	c2.441,0.129,3.295,1.828,3.295,3.171c-0.064,1.581-1.223,3.404-3.227,3.462c-1.764,0-2.801-0.851-3.352-2.43
	c-1.15,0.425-1.702,1.217-1.941,2.798c-0.365,2.006,1.156,3.593,3.102,3.593c3.345,0,4.807-1.461,6.023-2.557
	c4.137-3.897,6.455-7.978,12.42-7.909c3.584,0.058,4.502,2.921,5.107,4.135l7.854-13.266h4.807l-13.025,23.063
	c-0.24,0.488-0.85,1.4-0.791,2.129C159.995,78.349,161.456,78.041,160.906,78.041z M112.894,54.491
	c0.361-0.367,0.972-1.46,0.852-2.189c-0.061-0.364-0.24-0.792-0.672-0.731c-0.914,0.181-1.458,0.611-1.701,1.521
	c-0.309,0.973-0.184,1.645,0,2.373C111.372,55.463,111.976,55.524,112.894,54.491z"/>
</svg>
