<?xml version="1.0" encoding="utf-8"?>
<!-- Generator: Adobe Illustrator 16.0.0, SVG Export Plug-In . SVG Version: 6.00 Build 0)  -->
<!DOCTYPE svg PUBLIC "-//W3C//DTD SVG 1.1//EN" "http://www.w3.org/Graphics/SVG/1.1/DTD/svg11.dtd">
<svg version="1.1" id="Capa_1" xmlns="http://www.w3.org/2000/svg" xmlns:xlink="http://www.w3.org/1999/xlink" x="0px" y="0px"
	 width="237px" height="132px" viewBox="0 0 237 132" enable-background="new 0 0 237 132" xml:space="preserve">
<g>
	<path fill="#636363" d="M80.325,67.864c0.416,2.109,0.92,4.195,1.727,6.197c0.484,1.142,0.996,2.269,1.715,3.294
		c1.354,1.944,3.15,3.369,5.328,4.311c0.891,0.387,1.789,0.719,2.715,0.992c2.574,0.777,5.23,1.173,7.9,1.391
		c2.557,0.219,5.131,0.396,7.701,0.492c3.715,0.139,7.416,0.187,10.314,0.251c3.109-0.043,5.393-0.069,7.672-0.112
		c3.207-0.074,6.427-0.194,9.646-0.434c2.396-0.168,4.778-0.398,7.152-0.846c1.938-0.36,3.85-0.854,5.654-1.65
		c3.015-1.326,5.293-3.419,6.66-6.434c0.578-1.271,1.082-2.562,1.453-3.906c0.717-2.568,1.189-5.179,1.557-7.807
		c0.345-2.604,0.635-5.22,0.898-7.833c0.262-2.604,0.426-5.22,0.482-7.83c0.096-4.199,0.139-8.396-0.221-12.584
		c-0.135-1.615-0.406-3.197-0.914-4.737c-0.836-2.614-2.264-4.83-4.469-6.496c-1.43-1.069-3.008-1.801-4.68-2.348
		c-2.246-0.731-4.555-1.122-6.891-1.407c-2.844-0.346-5.717-0.59-8.578-0.722c-2.973-0.152-5.945-0.257-8.909-0.323
		c-3.974-0.096-7.954-0.074-11.944,0.008c-4.488,0.09-8.967,0.275-13.443,0.681c-2.229,0.201-4.459,0.435-6.66,0.842
		c-1.859,0.349-3.693,0.817-5.428,1.575c-2.973,1.285-5.246,3.321-6.664,6.261c-0.793,1.666-1.271,3.434-1.51,5.255
		c-0.27,1.926-0.371,3.869-0.398,5.805c-0.029,2.496-0.049,4.986,0,7.479c0.07,4.464,0.494,8.906,1,13.342
		C79.468,63.018,79.854,65.447,80.325,67.864 M82.247,43.646c0.053-2.135,0.129-4.271,0.264-6.398
		c0.111-1.887,0.318-3.747,0.883-5.573c0.721-2.315,1.953-4.27,3.947-5.703c1.131-0.809,2.391-1.381,3.709-1.819
		c1.459-0.484,2.961-0.787,4.475-0.98c2.105-0.267,4.221-0.511,6.344-0.715c1.48-0.142,2.973-0.223,4.469-0.292
		c2.473-0.112,4.939-0.255,7.412-0.279c3.629-0.034,7.264-0.031,10.898,0.037c2.744,0.054,5.486,0.199,8.254,0.357
		c2.932,0.165,5.881,0.455,8.791,0.903c1.896,0.28,3.766,0.667,5.529,1.402c2.168,0.888,3.961,2.227,5.221,4.229
		c0.725,1.155,1.191,2.416,1.518,3.733c0.32,1.328,0.492,2.678,0.594,4.039c0.34,4.05,0.383,8.112,0.297,12.174
		c-0.057,2.41-0.221,4.813-0.461,7.207c-0.186,1.969-0.363,3.927-0.6,5.878c-0.393,3.184-0.906,6.341-1.912,9.412
		c-0.33,1.053-0.738,2.076-1.248,3.053c-1.266,2.459-3.193,4.183-5.744,5.243c-1.57,0.645-3.207,1.025-4.865,1.289
		c-2.854,0.471-5.738,0.69-8.631,0.855c-3.938,0.211-7.916,0.319-11.883,0.319h-0.947v0.056c-3.424-0.079-6.848-0.125-10.281-0.258
		c-2.494-0.1-4.992-0.282-7.471-0.488c-2.076-0.18-4.119-0.467-6.133-0.967c-1.006-0.254-1.971-0.587-2.891-1.008
		c-2.488-1.139-4.305-2.955-5.467-5.399c-0.791-1.626-1.336-3.335-1.76-5.071c-0.578-2.383-0.986-4.799-1.26-7.229
		c-0.283-2.725-0.566-5.454-0.777-8.174C82.228,50.198,82.19,46.918,82.247,43.646"/>
	<path fill="#636363" d="M61.274,97.942c0.193,0.033,0.369,0.064,0.547,0.081c0.529,0.069,1.098,0.122,1.645,0.186
		c0.666,0.083,1.012,0.412,1.113,1.071c0.027,0.083,0.049,0.162,0.049,0.242c0,0.917-0.012,1.823-0.012,2.73
		c0,0.021-0.037,0.048-0.043,0.069c-0.494,0.081-10.015,0.057-10.328-0.033v-1.518c0.02-0.48,0-0.967,0.031-1.439
		c0.066-0.658,0.432-1.021,1.078-1.112c0.301-0.053,0.609-0.066,0.91-0.107c0.451-0.048,0.892-0.105,1.354-0.17
		c0-0.415,0.008-0.786,0-1.163c-0.02-0.364,0.041-0.734-0.035-1.09H44.116v2.253c0.206,0.033,0.379,0.064,0.559,0.081
		c0.539,0.069,1.086,0.122,1.645,0.186c0.662,0.083,1.012,0.404,1.139,1.066c0.027,0.191,0.027,0.384,0.027,0.575v8.429
		c0,0.213,0,0.413-0.038,0.617c-0.126,0.646-0.474,0.955-1.119,1.032c-0.561,0.067-1.098,0.122-1.648,0.185
		c-0.195,0.026-0.375,0.063-0.553,0.089v2.21c0.447,0.09,13.162,0.074,13.471-0.019v-2.208c-0.697-0.084-1.383-0.173-2.068-0.244
		c-0.844-0.09-1.227-0.438-1.26-1.287c-0.025-0.919-0.006-1.842-0.006-2.765c0-0.026,0.025-0.04,0.039-0.061
		c0.561-0.091,9.996-0.06,10.324,0.034c0,0.89,0,1.776,0,2.671c0,0.114-0.021,0.223-0.049,0.333
		c-0.102,0.637-0.432,0.971-1.078,1.057c-0.307,0.039-0.604,0.064-0.908,0.1c-0.426,0.052-0.875,0.111-1.309,0.162v2.251h13.455
		v-2.248c-0.227-0.031-0.441-0.06-0.656-0.087c-0.527-0.057-1.061-0.11-1.594-0.178c-0.613-0.086-0.938-0.399-1.055-1.012
		c-0.041-0.223-0.051-0.457-0.051-0.689c-0.01-2.776-0.01-5.538,0-8.31c0-0.218,0.01-0.438,0.041-0.659
		c0.127-0.655,0.484-0.962,1.156-1.048c0.309-0.039,0.639-0.065,0.941-0.101c0.402-0.048,0.8-0.104,1.217-0.158v-2.258H61.274
		V97.942z"/>
	<path fill="#636363" d="M122.577,95.727v2.208c0.082,0.018,0.152,0.034,0.229,0.039c0.639,0.084,1.285,0.16,1.938,0.232
		c0.719,0.086,1.079,0.44,1.162,1.157c0.023,0.108,0.023,0.221,0.023,0.329v8.01c0,0.086-0.023,0.17-0.043,0.312
		c-0.15-0.183-0.254-0.314-0.336-0.441c-2.82-3.688-5.625-7.369-8.414-11.064c-0.414-0.548-0.896-0.843-1.568-0.843
		c-0.111,0-0.23-0.003-0.336-0.003h-11.113c-0.111,0-0.23,0.015-0.371,0.027v2.253c0.168,0.026,0.318,0.06,0.457,0.076
		c0.568,0.065,1.117,0.122,1.701,0.188c0.691,0.073,1.055,0.41,1.176,1.11c0.037,0.193,0.02,0.389,0.02,0.579
		c0.018,2.784,0.018,5.561,0.018,8.346c0,0.146,0,0.3-0.027,0.451c-0.063,0.778-0.441,1.162-1.232,1.244
		c-0.307,0.031-0.619,0.063-0.941,0.104c-0.393,0.047-0.781,0.105-1.17,0.156v2.215c0.441,0.087,10.426,0.074,10.732-0.009
		c0.07-0.493,0.053-1.916-0.025-2.222c-0.205-0.024-0.406-0.053-0.609-0.075c-0.535-0.062-1.055-0.11-1.566-0.187
		c-0.668-0.082-1.035-0.475-1.1-1.145c-0.01-0.153-0.01-0.299-0.01-0.452c-0.008-2.577,0-5.15,0-7.726v-0.395
		c0.025,0,0.049-0.013,0.092-0.021c0.086,0.122,0.178,0.239,0.273,0.356c2.795,3.69,5.611,7.374,8.396,11.077
		c0.451,0.592,0.998,0.857,1.734,0.853c2.652-0.013,5.303-0.009,7.961-0.009c0.1,0,0.229-0.02,0.357-0.032v-0.542V99.996
		c0-0.199,0-0.39,0.016-0.579c0.053-0.729,0.45-1.125,1.17-1.211c0.326-0.034,0.639-0.065,0.945-0.105
		c0.416-0.043,0.814-0.104,1.213-0.158v-2.249C132.702,95.616,122.88,95.646,122.577,95.727"/>
	<path fill="#636363" d="M162.249,103.118c-0.205-2.134-1.104-3.905-2.818-5.226c-0.758-0.583-1.617-1.006-2.504-1.342
		c-1.797-0.654-3.672-0.886-5.582-0.889c-5.445-0.012-10.898,0-16.326,0c-0.125,0-0.248,0.008-0.373,0.023v2.275
		c0.594,0.058,1.17,0.121,1.75,0.178c1.068,0.112,1.391,0.468,1.391,1.544v8.597c0,0.189-0.006,0.384-0.033,0.574
		c-0.125,0.682-0.477,1.001-1.17,1.083c-0.316,0.026-0.629,0.063-0.945,0.101c-0.398,0.048-0.815,0.109-1.223,0.16v2.271h0.561
		c5.252,0,10.5,0.005,15.756-0.013c0.959,0,1.932-0.039,2.896-0.133c1.486-0.14,2.93-0.509,4.281-1.158
		c1.922-0.931,3.313-2.328,3.984-4.373C162.282,105.59,162.368,104.355,162.249,103.118 M154.28,106.386
		c-0.105,0.432-0.27,0.87-0.49,1.259c-0.492,0.86-1.305,1.294-2.262,1.465c-0.467,0.081-0.956,0.119-1.434,0.12
		c-1.76,0.023-3.521,0.011-5.272,0.011c-0.123,0-0.241-0.014-0.373-0.019V98.93c0.099-0.008,0.194-0.033,0.294-0.033
		c1.828,0,3.654-0.005,5.486,0c0.621,0.005,1.256,0.081,1.859,0.273c0.945,0.318,1.592,0.93,1.965,1.836
		c0.361,0.85,0.432,1.763,0.475,2.669C154.554,104.592,154.528,105.499,154.28,106.386"/>
	<path fill="#636363" d="M99.763,97.649c-1.242-0.911-2.652-1.455-4.139-1.843c-2.09-0.55-4.238-0.698-6.346-0.715
		c-1.992,0.008-3.91,0.141-5.807,0.559c-1.455,0.318-2.857,0.783-4.121,1.554c-2.559,1.549-3.901,3.81-3.912,6.798
		c-0.027,2.913,1.203,5.175,3.648,6.771c0.672,0.437,1.387,0.78,2.158,1.067c1.697,0.633,3.467,0.951,5.283,1.096
		c2.697,0.209,5.377,0.15,8.043-0.357c1.529-0.297,3-0.765,4.348-1.544c2.455-1.417,3.893-3.507,4.07-6.354
		C103.173,101.771,102.146,99.39,99.763,97.649 M95.021,106.146c-0.389,1.844-1.52,2.99-3.336,3.421
		c-1.68,0.392-3.381,0.389-5.049-0.037c-1.805-0.454-2.869-1.635-3.223-3.438c-0.143-0.652-0.178-1.328-0.258-2.001
		c0.042-0.797,0.109-1.574,0.316-2.333c0.426-1.641,1.461-2.694,3.092-3.13c1.688-0.455,3.422-0.455,5.131-0.053
		c1.796,0.435,2.93,1.566,3.318,3.389C95.319,103.353,95.319,104.754,95.021,106.146"/>
	<path fill="#636363" d="M189.081,108.877c-1.242-1.935-2.518-3.851-3.773-5.777c-1.391-2.12-2.791-4.23-4.168-6.356
		c-0.451-0.702-1.029-1.093-1.904-1.093c-4.094,0.02-8.178,0.007-12.273,0.007c-0.115,0-0.238,0.019-0.363,0.028v2.257
		c0.168,0.031,0.32,0.055,0.488,0.076c0.805,0.092,1.582,0.178,2.398,0.273c0.695,0.075,1.035,0.681,0.723,1.314
		c-0.053,0.101-0.102,0.19-0.168,0.289c-1.869,3.024-3.74,6.046-5.6,9.07c-0.078,0.136-0.162,0.261-0.256,0.38
		c-0.262,0.349-0.602,0.548-1.053,0.591c-0.287,0.026-0.604,0.06-0.896,0.091c-0.418,0.053-0.85,0.107-1.266,0.165v2.224
		c0.6,0.096,10.445,0.07,10.744-0.031v-2.196c-0.258-0.031-0.515-0.06-0.762-0.091c-0.432-0.047-0.873-0.07-1.309-0.161
		c-0.701-0.146-0.912-0.659-0.549-1.266c0.193-0.351,0.434-0.671,0.619-1.026c0.148-0.273,0.326-0.338,0.629-0.338
		c3.178,0.016,6.354,0.009,9.531,0.009c0.075,0,0.154-0.017,0.211,0.007c0.086,0.022,0.215,0.063,0.273,0.138
		c0.273,0.412,0.561,0.815,0.787,1.256c0.268,0.478,0.115,0.904-0.398,1.103c-0.298,0.11-0.609,0.156-0.936,0.199
		c-0.514,0.067-1.025,0.111-1.568,0.168v2.23c0.078,0.023,0.107,0.043,0.145,0.043c4.713,0.006,9.422,0.006,14.141,0.006
		c0.061,0,0.139-0.017,0.205-0.025c0.006,0,0.016-0.013,0.023-0.023c0.02,0,0.02-0.018,0.025-0.034v-2.189
		c-0.652-0.079-1.309-0.18-1.938-0.229C190.058,109.902,189.517,109.524,189.081,108.877 M171.786,104.283
		c1.061-1.693,2.079-3.35,3.102-5.021c0.244,0.199,3.039,4.401,3.338,5.006C177.937,104.355,172.405,104.377,171.786,104.283"/>
	<path fill="#636363" d="M94.589,29.017c0.098,1.443,0.188,2.888,0.279,4.327c0.145,2.366,0.307,4.731,0.451,7.092
		c0.125,1.939,0.244,3.879,0.373,5.812c0.145,2.249,0.313,4.51,0.469,6.752c0.107,1.803,0.227,3.605,0.365,5.405
		c0.168,2.457,0.355,4.912,0.523,7.369c0.166,2.002,0.301,4.014,0.459,6.018c0.188,2.318,0.381,4.629,0.576,6.953
		c0.01,0.198,0.043,0.397,0.068,0.588c1.455,0.32,6.796,0.586,8.055,0.563c0.051-0.175,0.104-0.353,0.158-0.537
		c0.69-2.531,1.372-5.073,2.086-7.597c0.389-1.38,0.887-2.722,1.559-4.004c0.824-1.606,2.133-2.506,3.92-2.783
		c1.541-0.242,3.098-0.359,4.652-0.359c1.578,0,3.145,0.117,4.703,0.374c1.693,0.289,2.973,1.152,3.768,2.679
		c0.168,0.331,0.338,0.662,0.49,1.007c0.543,1.257,1.006,2.556,1.361,3.884c0.635,2.27,1.229,4.539,1.848,6.816
		c0.053,0.18,0.112,0.357,0.162,0.52c1.572,0.089,7.316-0.34,8.078-0.604c1.502-17.981,2.625-36.005,3.766-54.066
		c-1.871-0.276-3.723-0.377-5.592-0.427c-0.043,0.158-0.07,0.273-0.096,0.394c-0.752,3.398-1.502,6.794-2.258,10.195
		c-1.114,4.97-2.326,9.911-3.645,14.828c-0.441,1.6-0.955,3.17-1.682,4.662c-1.373,2.882-3.689,4.469-6.848,4.91
		c-1.17,0.167-2.355,0.216-3.539,0.226c-1.736,0.008-3.463,0-5.17-0.323c-2.143-0.389-3.91-1.381-5.26-3.106
		c-0.68-0.86-1.137-1.845-1.547-2.857c-0.695-1.744-1.195-3.548-1.68-5.357c-1.863-7.181-3.484-14.413-5.047-21.658
		c-0.145-0.633-0.289-1.254-0.441-1.913c-1.877,0.045-3.721,0.158-5.578,0.414c0,0.152-0.01,0.252,0,0.344
		C94.437,26.711,94.528,27.861,94.589,29.017"/>
</g>
</svg>
