<?xml version="1.0" encoding="utf-8"?>
<!-- Generator: Adobe Illustrator 16.0.0, SVG Export Plug-In . SVG Version: 6.00 Build 0)  -->
<!DOCTYPE svg PUBLIC "-//W3C//DTD SVG 1.1//EN" "http://www.w3.org/Graphics/SVG/1.1/DTD/svg11.dtd">
<svg version="1.1" id="Capa_1" xmlns="http://www.w3.org/2000/svg" xmlns:xlink="http://www.w3.org/1999/xlink" x="0px" y="0px"
	 width="237px" height="132px" viewBox="0 0 237 132" enable-background="new 0 0 237 132" xml:space="preserve">
<g>
	<path fill="#636363" d="M145.829,34.655c-6.863-7.367-18.087-8.956-27.522-8.956c-9.52,0-21.086,1.589-27.826,9.382
		c-0.129,0.138-0.217,0.282-0.333,0.429c-3.307,3.939-5.348,9.597-5.348,17.171c0,23.362,19.058,27.096,33.507,27.096
		c14.572,0,33.627-3.733,33.627-27.096c0-7.574-2.037-13.232-5.365-17.171C146.318,35.229,146.065,34.94,145.829,34.655
		 M96.469,39.243c4.504-6.927,13.072-8.641,21.838-8.641c8.796,0,17.141,1.605,21.744,8.425c0.079,0.16,0.195,0.314,0.279,0.468
		c-7.791,4.564-16.664,4.728-22.023,16.174c-5.824-11.111-14.597-11.189-22.303-15.588C96.146,39.797,96.307,39.527,96.469,39.243
		 M118.307,74.87c-12.945,0.112-25.156-3.62-25.156-22.188c0-1.384,0-2.771,0.216-3.948c0.073-0.257,0.127-0.519,0.2-0.776
		c4.365,1.465,8.716,2.936,13.086,4.408c5.126,2.138,8.555,5.125,11.654,11.838c3.108-6.714,6.43-10.13,11.678-12.265
		c4.402-1.569,8.791-3.14,13.185-4.703c0.038,0.105,0.06,0.216,0.081,0.335c0.225,1.484,0.334,3.305,0.334,5.117
		C143.584,71.25,131.27,74.982,118.307,74.87"/>
	<g>
		<polygon fill="#636363" points="120.466,93.12 127.389,87.385 112.841,87.385 112.841,93.12 		"/>
		<path fill="#636363" d="M167.365,87.385h-12.842v5.197h10.188c2.961,0,2.494,1.934,2.494,1.934h-8.165
			c-1.01,0-4.2-0.153-5.753,2.322v-0.926c0-8.759-6.617-8.527-6.617-8.527h-17.259l-17.577,13.873v-8.524
			c0-5.58-5.76-5.349-5.76-5.349H93.246v5.197h10.184c2.963,0,2.57,1.934,2.57,1.934h-8.166c-1.007,0-4.117-0.153-5.677,2.246
			v-2.164c0-7.672-6.932-7.212-6.932-7.212H63.612v19.224h6.538V93.12h4.586v13.484h6.229V93.12h2.089
			c3.039,0,2.642,2.479,2.642,2.479v11.006h6.46v-2.557c1.56,2.557,4.67,2.557,4.67,2.557h17.886l17.647-14.179v14.106h13.847
			c2.648,0,5.131-1.317,6.305-4.884c0.699,4.884,5.594,4.961,5.594,4.961h15.012V92.733
			C173.117,87.153,167.365,87.385,167.365,87.385 M105.915,101.336h-6.847c0,0-1.388,0.078-1.388-1.316
			c0-1.162,1.082-1.242,1.47-1.242h6.765V101.336z M144.424,100.948h-5.834v-8.136h5.906c0,0,2.791,0.229,2.791,3.797
			C147.287,100.175,145.983,100.948,144.424,100.948 M167.048,101.336h-6.837c0,0-1.402,0.078-1.402-1.316
			c0-1.162,1.162-1.242,1.553-1.242h6.687V101.336z"/>
		<polygon fill="#636363" points="116.738,106.607 131.279,106.607 131.279,100.951 123.648,100.951 		"/>
	</g>
</g>
</svg>
