<?xml version="1.0" encoding="utf-8"?>
<!-- Generator: Adobe Illustrator 16.0.0, SVG Export Plug-In . SVG Version: 6.00 Build 0)  -->
<!DOCTYPE svg PUBLIC "-//W3C//DTD SVG 1.1//EN" "http://www.w3.org/Graphics/SVG/1.1/DTD/svg11.dtd">
<svg version="1.1" id="Capa_1" xmlns="http://www.w3.org/2000/svg" xmlns:xlink="http://www.w3.org/1999/xlink" x="0px" y="0px"
	 width="237px" height="132px" viewBox="0 0 237 132" enable-background="new 0 0 237 132" xml:space="preserve">
<g>
	<polygon fill="#636363" points="25.731,68.685 218.974,68.685 200.81,81.213 218.974,93.369 25.731,93.369 25.731,68.685 	"/>
	<path fill-rule="evenodd" clip-rule="evenodd" fill="#636363" d="M56.688,64.377c-0.65-0.304-1.332-0.607-1.95-0.986
		c0-0.032-0.032-0.064-0.065-0.108c0.174-0.141,0.391-0.324,0.607-0.498c0-0.292,0.043-0.585,0.076-0.91
		c0.032,0,0.075,0,0.107-0.032c0.683,0.324,1.376,0.65,2.091,0.975c2.493,0.823,4.507,0.878,7.096,0.574
		c1.539-0.379,2.688-0.79,4.118-1.549c0.033,0,0.075,0,0.139,0.032c0,0.292,0,0.586,0,0.91c0.185,0.141,0.402,0.282,0.619,0.434
		c0,0.032,0.032,0.064,0.076,0.141c-1.811,1.083-3.488,1.538-5.536,1.917C61.368,65.395,59.3,65.309,56.688,64.377L56.688,64.377
		L56.688,64.377z"/>
	<path fill-rule="evenodd" clip-rule="evenodd" fill="#636363" d="M60.124,59.145c0.159,0.014,0.325,0.033,0.508,0.055
		c0-0.019,0-0.038,0-0.058l10.434,0.003c-1.165,1.142-2.186,1.875-3.783,2.697c-0.529,0.238-1.104,0.455-1.765,0.65
		c-1.224,0.304-2.155,0.411-3.39,0.433l0,0c-0.326,0-0.694,0-1.063-0.032c-0.401-0.076-0.834-0.151-1.268-0.217
		c-0.39-0.51-0.791-1.019-1.225-1.56c0-0.434-0.032-0.867-0.075-1.332c0.183-0.108,0.367-0.217,0.541-0.325
		c0.251-0.104,0.492-0.209,0.772-0.314H60.124L60.124,59.145z"/>
	<path fill-rule="evenodd" clip-rule="evenodd" fill="#636363" d="M59.812,59.145c0.01-0.003,0.019-0.007,0.029-0.011
		c0.094,0,0.188,0.005,0.283,0.012L59.812,59.145L59.812,59.145z M60.632,59.145c-0.003-0.056-0.01-0.117-0.033-0.195
		c-0.042-0.075-0.076-0.141-0.152-0.249c0,0,0-0.043,0.044-0.075c0.834,0.075,1.702,0.184,2.568,0.292
		c0.248-0.043,0.542-0.075,0.823-0.108c0.552-0.184,1.094-0.368,1.636-0.541c0.249,0.032,0.542,0.064,0.824,0.141
		c0.151,0,0.292,0,0.433-0.032c0.325-0.108,0.649-0.261,0.985-0.401c0-0.032,0.032-0.075,0.065-0.141
		c-0.033-0.293-0.065-0.585-0.14-0.91c-0.033-0.184-0.109-0.357-0.185-0.573c-0.217-0.218-0.433-0.478-0.649-0.727
		c-0.032-0.249-0.076-0.509-0.141-0.79c-0.292-0.185-0.586-0.401-0.91-0.618c-0.141-0.032-0.282-0.108-0.434-0.184
		c-0.032,0.151-0.064,0.324-0.108,0.51c0.044,0.183,0.076,0.356,0.152,0.541c0.141,0.184,0.324,0.357,0.497,0.574
		c0.044,0.184,0.109,0.4,0.185,0.617c0,0.108-0.032,0.217-0.076,0.325c-0.032,0.075-0.109,0.141-0.173,0.216
		c-0.216,0.108-0.477,0.217-0.726,0.325c-0.141,0-0.294,0-0.466,0.032c-0.042,0.044-0.108,0.076-0.184,0.119
		c-0.075-0.011-0.142,0-0.26,0.033c-0.434-0.076-0.868-0.152-1.333-0.261c-0.108,0.185-0.216,0.368-0.324,0.553
		c-0.108,0.033-0.249,0.065-0.401,0.109c-0.033,0.032-0.108,0.064-0.174,0.107c-0.433,0.033-0.909,0.065-1.376,0.141
		c-0.184-0.032-0.401-0.107-0.617-0.184c-0.076-0.032-0.141-0.064-0.249-0.141c-0.107-0.109-0.216-0.218-0.325-0.358
		c0-0.119-0.043-0.228-0.076-0.368c-0.076,0-0.141-0.032-0.249-0.075c-0.109,0.043-0.26,0.075-0.402,0.151
		c-0.14,0.141-0.292,0.292-0.465,0.466c-0.326,0.108-0.693,0.217-1.051,0.368c-0.293,0-0.617,0.033-0.942,0.065
		c-0.218,0-0.434-0.032-0.65-0.065c-0.216-0.043-0.433-0.107-0.649-0.184c-0.108-0.076-0.217-0.142-0.358-0.218
		c-0.076-0.216-0.151-0.476-0.228-0.726c-0.033,0-0.065-0.032-0.141-0.075c0-0.065-0.032-0.141-0.074-0.249c0-0.108,0-0.25,0-0.4
		c-0.066-0.065-0.143-0.174-0.218-0.282c0-0.151,0-0.292-0.032-0.477c0.075-0.715,0.184-1.484,0.292-2.242
		c0.032-0.033,0.064-0.109,0.107-0.174c0.065-0.292,0.185-0.617,0.293-0.941c0.065-0.185,0.174-0.358,0.282-0.574
		c0-0.044,0-0.108-0.032-0.185c-0.759-0.142-1.561-0.292-2.352-0.477c-0.941-0.357-1.885-0.758-2.817-1.148
		c0.033-0.477,0.066-0.942,0.142-1.408c0.107-0.433,0.216-0.877,0.324-1.311c0.218-0.574,0.488-1.147,0.704-1.733
		c2.276-5.112,7.953-8.134,13.943-6.899c2.86,0.704,4.876,1.906,6.935,4.191c1.495,1.994,2.231,3.705,2.784,6.11
		c0.043,0.433,0.075,0.866,0.151,1.331c0,0.65,0,1.312-0.043,1.994c-0.152,1.332-0.422,2.415-0.975,3.683
		c-0.218,0.4-0.434,0.802-0.65,1.234c-0.185,0.325-0.401,0.65-0.618,0.976c-0.281,0.356-0.574,0.726-0.898,1.115
		c-0.129,0.132-0.255,0.258-0.379,0.38L60.632,59.145L60.632,59.145z M63.601,43.265c0,0-0.044-0.043-0.076-0.075
		c0,0,0.032,0,0.076-0.033c0.032,0,0.064,0.033,0.14,0.065C63.709,43.222,63.665,43.222,63.601,43.265L63.601,43.265L63.601,43.265z
		 M65.475,42.724c-0.032,0-0.064,0-0.141-0.044c0-0.032,0-0.064,0.032-0.141c0.077,0,0.185,0,0.293,0.033c0,0.043,0,0.075,0,0.107
		C65.627,42.68,65.551,42.68,65.475,42.724L65.475,42.724L65.475,42.724z M60.708,57.574c-0.186-0.033-0.368-0.065-0.543-0.142
		c-0.075-0.032-0.15-0.107-0.216-0.184c-0.043-0.076-0.075-0.141-0.151-0.249c-0.032-0.185-0.065-0.4-0.108-0.617
		c0.043-0.358,0.108-0.726,0.185-1.084c-0.033-0.032-0.076-0.107-0.108-0.184c0-0.141,0-0.281,0-0.466
		c-0.033,0-0.076-0.033-0.109-0.075c-0.032-0.108-0.076-0.218-0.108-0.358c0.032-0.324,0.108-0.649,0.184-0.975
		c-0.043-0.217-0.076-0.434-0.151-0.649c0.044-0.108,0.076-0.261,0.108-0.401c0-0.075,0-0.141-0.033-0.249
		c-0.032-0.043-0.108-0.075-0.184-0.151c-0.065,0.044-0.141,0.076-0.217,0.151c-0.064,0.065-0.141,0.174-0.249,0.282
		c0,0.043,0,0.075-0.033,0.151c0.065,0.141,0.141,0.325,0.218,0.497c0,0.152,0,0.326,0.032,0.51
		c-0.109,0.217-0.217,0.434-0.326,0.693c-0.325,0.467-0.682,0.932-1.05,1.44c0,0.108,0,0.217-0.032,0.357
		c0.108,0.217,0.217,0.434,0.324,0.65c0,0.076,0,0.151,0.033,0.217c-0.033,0.108-0.065,0.217-0.108,0.324
		c-0.032,0-0.064,0-0.141,0.044c-0.034,0-0.108,0-0.185-0.044c-0.032,0.076-0.108,0.152-0.185,0.228
		c-0.065-0.011-0.173,0-0.282-0.043c0,0,0-0.032-0.043-0.076c-0.032,0.076-0.064,0.152-0.141,0.228
		c-0.217,0-0.465,0.032-0.726,0.065c-0.249,0-0.499,0-0.791-0.033c-0.184-0.075-0.4-0.141-0.617-0.26
		c0-0.032-0.032-0.064-0.064-0.141c0-0.217-0.044-0.433-0.076-0.682c-0.076-0.044-0.185-0.076-0.294-0.108
		c0-0.218-0.032-0.478-0.064-0.727c-0.043,0-0.076-0.032-0.119-0.075c0-0.032-0.033-0.065-0.065-0.142
		c0.032-0.541,0.065-1.115,0.108-1.7c0.108-0.4,0.217-0.791,0.326-1.191c0.108-0.249,0.217-0.509,0.325-0.758
		c0.109-0.142,0.217-0.325,0.326-0.51c0.79-0.682,1.591-1.408,2.426-2.134c0.033-0.064,0.065-0.141,0.141-0.217
		c0.292-0.249,0.574-0.541,0.865-0.823c0.25-0.368,0.511-0.726,0.792-1.094c0.727-0.498,1.452-1.007,2.177-1.516
		c0.282-0.391,0.607-0.824,0.933-1.269c0.151-0.14,0.292-0.281,0.434-0.466c0.076-0.032,0.183-0.075,0.291-0.108
		c-0.076-0.032-0.141-0.107-0.248-0.184c-0.043-0.032-0.076-0.108-0.152-0.174c0-0.043,0-0.075-0.032-0.151
		c0.032-0.032,0.076-0.064,0.142-0.107c0.15,0,0.291-0.033,0.477-0.065c0.032,0,0.108,0,0.173,0.032
		c0.044-0.032,0.108-0.108,0.185-0.185c0.217-0.107,0.434-0.216,0.65-0.324c0.183-0.033,0.367-0.065,0.541-0.142
		c0.293,0.032,0.585,0.076,0.91,0.142c0.324,0,0.65,0.043,0.976,0.076c0.064,0,0.173,0.032,0.282,0.075
		c0,0.065,0.042,0.173,0.074,0.281c-0.032,0.076-0.074,0.185-0.141,0.293c-0.043,0.032-0.076,0.075-0.151,0.108c0,0,0,0,0.043,0.032
		c0.032,0,0.108,0,0.175-0.032c0,0.032,0,0.075,0.042,0.108c-0.042,0.075-0.077,0.141-0.151,0.216
		c-0.217,0.217-0.466,0.435-0.715,0.65c-0.109,0.108-0.217,0.26-0.325,0.4c-0.185,0.434-0.368,0.867-0.585,1.333
		c-0.217,0.759-0.466,1.516-0.716,2.317c0,0.218,0.033,0.434,0.066,0.683c0,0.802,0.043,1.593,0.076,2.427
		c0,0.649-0.033,1.3-0.076,1.982c-0.033,0.368-0.066,0.726-0.11,1.126c0,0.184,0.044,0.401,0.077,0.618
		c0.217,0.281,0.435,0.606,0.651,0.932c0,0.107,0,0.216,0.032,0.324c0,0.076-0.032,0.151-0.065,0.217c-0.043,0-0.075,0-0.152,0.043
		c-0.032,0-0.064-0.043-0.108-0.075c-0.032,0.032-0.064,0.075-0.108,0.141c-0.064,0.043-0.141,0.075-0.25,0.108
		c-0.077,0-0.141,0-0.249-0.033c0,0.033-0.042,0.076-0.077,0.108c-0.032,0-0.075,0.033-0.14,0.076c-0.259,0-0.552-0.043-0.833-0.076
		c-0.152-0.108-0.326-0.216-0.51-0.324c-0.032-0.141-0.076-0.293-0.141-0.434c-0.043,0-0.076-0.033-0.108-0.075
		c0-0.282,0-0.574,0.032-0.899c-0.032-0.032-0.075-0.076-0.141-0.141c0.032-0.326,0.108-0.694,0.173-1.051
		c-0.033-0.217-0.065-0.434-0.108-0.65c0-0.107,0.043-0.217,0.075-0.369c0.033-0.031,0.108-0.064,0.185-0.14
		c0.032-0.032,0.065-0.108,0.108-0.185c0.033-0.141,0.065-0.324,0.14-0.498c0-0.043-0.032-0.076-0.074-0.151
		c-0.065,0.043-0.174,0.075-0.283,0.108c-0.076-0.065-0.151-0.141-0.216-0.217c-0.076,0.044-0.184,0.076-0.292,0.151
		c0,0.032-0.033,0.065-0.077,0.108c-0.14,1.257-0.325,2.524-0.499,3.791c0,0.108,0.033,0.217,0.065,0.325
		c0.109,0.141,0.218,0.292,0.326,0.434c0.044,0.107,0.076,0.216,0.108,0.357c0,0.075-0.032,0.184-0.064,0.292
		c-0.044,0.032-0.108,0.076-0.185,0.108c-0.033,0-0.076-0.032-0.109-0.065c-0.032,0.033-0.108,0.108-0.183,0.174
		c-0.032,0-0.108,0-0.174,0c-0.043-0.033-0.076-0.065-0.107-0.141c-0.076,0.075-0.152,0.141-0.261,0.216
		C61.109,57.541,60.925,57.541,60.708,57.574L60.708,57.574L60.708,57.574z M53.796,49.873c-0.032-0.033-0.065-0.065-0.141-0.109
		c0,0,0.032-0.032,0.075-0.064c0.606,0,1.225,0,1.874,0.032c0,0.032,0,0.076-0.032,0.142C54.999,49.873,54.413,49.873,53.796,49.873
		L53.796,49.873L53.796,49.873z M70.209,56.815c-0.108-0.032-0.217-0.075-0.325-0.108c0-0.032,0.044-0.075,0.076-0.107
		c0.249,0,0.508,0,0.791-0.033c0.119,0,0.228,0.033,0.336,0.065c0,0,0,0.043,0.032,0.075c0,0,0,0.033-0.032,0.076
		C70.794,56.783,70.501,56.783,70.209,56.815L70.209,56.815L70.209,56.815z M71.195,55.873c0,0-0.044,0-0.076,0
		c0-0.032,0-0.064,0-0.141c0,0,0.032,0,0.076-0.032c0.39,0,0.823,0.032,1.255,0.064c0,0,0,0.044,0,0.076
		C72.062,55.841,71.628,55.841,71.195,55.873L71.195,55.873L71.195,55.873z M68.335,55.44c-0.032,0-0.076,0-0.108-0.032
		c0,0,0-0.033-0.032-0.076c0-0.033,0.032-0.065,0.064-0.141c0.617,0,1.235,0,1.886-0.033c0.032,0.033,0.064,0.065,0.108,0.141
		c-0.044,0.033-0.076,0.076-0.108,0.142C69.559,55.44,68.951,55.44,68.335,55.44L68.335,55.44L68.335,55.44z M72.31,54.466
		c-0.509,0-1.05,0-1.592-0.033c0,0,0-0.032-0.033-0.076c0-0.032,0-0.064,0.033-0.108c0.618,0,1.235,0,1.886-0.032
		c0,0.032,0.032,0.076,0.064,0.141c0,0,0,0.044-0.032,0.076C72.527,54.433,72.419,54.433,72.31,54.466L72.31,54.466L72.31,54.466z
		 M69.017,53.956c0,0,0-0.032,0.043-0.064c0.326,0,0.651,0,0.977,0.032c0.032,0,0.064,0.032,0.108,0.076
		C69.775,54,69.418,54,69.017,53.956L69.017,53.956L69.017,53.956z M68.802,53.09c-0.175,0-0.391,0-0.607-0.032
		c0-0.033-0.044-0.076-0.077-0.109c0-0.032,0.033-0.076,0.077-0.107c0.108,0,0.217-0.033,0.357-0.076c0.433,0,0.866,0,1.3,0
		c0.141,0,0.293,0.043,0.466,0.076c0.043,0.031,0.075,0.075,0.107,0.107c-0.032,0.033-0.064,0.076-0.107,0.142
		C69.819,53.09,69.31,53.09,68.802,53.09L68.802,53.09L68.802,53.09z M72.235,52.948c-0.108-0.032-0.217-0.076-0.327-0.141
		c0.044-0.043,0.077-0.075,0.11-0.107c0.477,0,0.974,0,1.484,0.032c0,0,0,0.032,0.032,0.075c0,0,0,0.033-0.032,0.064
		C73.102,52.872,72.668,52.916,72.235,52.948L72.235,52.948L72.235,52.948z M66.384,52.267c-0.042,0-0.074-0.043-0.108-0.076
		c0,0,0-0.032,0.034-0.075c0.216,0,0.433,0,0.681,0c0,0,0,0.043,0.044,0.075c0,0-0.044,0.033-0.076,0.076
		C66.774,52.267,66.602,52.267,66.384,52.267L66.384,52.267L66.384,52.267z M71.52,52.007c-0.541,0-1.095,0-1.668-0.033
		c0,0,0-0.032-0.032-0.075c0,0,0.032-0.032,0.064-0.064c0.617,0,1.268,0,1.917,0c0,0.032,0,0.064,0.044,0.107
		c0,0-0.044,0.032-0.076,0.065C71.693,52.007,71.628,52.007,71.52,52.007L71.52,52.007L71.52,52.007z M67.792,51.508
		c-0.184,0-0.4,0-0.617-0.043c0,0,0-0.032-0.032-0.065c0-0.043,0.032-0.075,0.065-0.107c0.335,0,0.66,0,0.986,0
		c0.064,0,0.141,0.032,0.249,0.064c0,0.043,0,0.076,0,0.108C68.227,51.465,68.01,51.465,67.792,51.508L67.792,51.508L67.792,51.508z
		 M71.628,50.999c0,0,0,0-0.043-0.033c0.043,0,0.075-0.042,0.108-0.075c0.184,0,0.368,0,0.542,0c0,0.033,0,0.075,0.043,0.108
		C72.062,50.999,71.845,50.999,71.628,50.999L71.628,50.999L71.628,50.999z M69.526,50.674c-0.327,0-0.65,0-0.975-0.043
		c0-0.032-0.033-0.065-0.076-0.108c0.043-0.032,0.076-0.064,0.151-0.108c0.499,0,1.04,0.044,1.582,0.076c0,0,0,0.032,0.044,0.075
		c0,0,0,0.033-0.044,0.065C69.992,50.631,69.775,50.631,69.526,50.674L69.526,50.674L69.526,50.674z M71.304,50.133
		c-0.217,0-0.478,0-0.727-0.043c0,0,0-0.033-0.043-0.066c0-0.042,0-0.075,0.043-0.107c0.65,0,1.332,0,2.026,0.032
		c0,0.033,0,0.075,0,0.108c-0.044,0-0.076,0.033-0.153,0.076C72.095,50.133,71.693,50.133,71.304,50.133L71.304,50.133
		L71.304,50.133z M66.818,49.916c-0.076,0-0.152-0.043-0.261-0.076c0,0,0-0.032,0.044-0.076c0.541,0,1.116,0,1.701-0.032
		c0.108,0,0.216,0,0.324,0.032c0,0.044,0,0.076,0,0.152C68.042,49.916,67.424,49.916,66.818,49.916L66.818,49.916L66.818,49.916z"/>
	<path fill-rule="evenodd" clip-rule="evenodd" fill="#636363" d="M61.033,61.192c-0.651-0.108-1.3-0.249-1.95-0.401
		c0-0.032-0.044-0.065-0.076-0.108c0-0.184,0-0.357-0.033-0.541c0-0.032,0.033-0.108,0.065-0.185
		c0.217-0.108,0.478-0.217,0.727-0.325c0.324,0.044,0.649,0.076,1.007,0.108c0.076,0,0.152,0.044,0.229,0.076
		c0.032,0.108,0.108,0.217,0.173,0.357c0,0.184,0,0.368-0.032,0.585c0,0.108,0,0.217,0.032,0.325
		C61.142,61.116,61.109,61.159,61.033,61.192L61.033,61.192L61.033,61.192z"/>
	<path fill-rule="evenodd" clip-rule="evenodd" fill="#636363" d="M62.982,60.943c-0.4-0.076-0.79-0.152-1.225-0.218
		c0-0.043-0.042-0.075-0.075-0.15c-0.033-0.294-0.076-0.574-0.109-0.867c-0.076-0.076-0.14-0.185-0.216-0.293
		c0-0.064-0.033-0.141-0.077-0.248c0.044,0,0.077,0,0.153-0.033c0.497,0.065,1.008,0.141,1.549,0.249
		c0.108,0.108,0.217,0.249,0.324,0.401c0,0.357,0,0.758-0.032,1.159C63.2,60.943,63.091,60.943,62.982,60.943L62.982,60.943
		L62.982,60.943z"/>
	<path fill-rule="evenodd" clip-rule="evenodd" fill="#636363" d="M63.958,60.791c-0.032-0.325-0.076-0.682-0.141-1.051
		c-0.044-0.108-0.077-0.217-0.152-0.357c0,0,0-0.032,0.044-0.076c0.616-0.173,1.267-0.39,1.918-0.606
		c0.216,0.065,0.433,0.142,0.648,0.217c0.034,0.357,0.066,0.759,0.108,1.148c-0.042,0.044-0.074,0.076-0.15,0.108
		c-0.218,0-0.467,0-0.716,0.043c-0.292,0.108-0.585,0.217-0.909,0.325c-0.142,0.075-0.284,0.141-0.466,0.249
		C64.099,60.791,64.034,60.791,63.958,60.791L63.958,60.791L63.958,60.791z"/>
	<path fill-rule="evenodd" clip-rule="evenodd" fill="#636363" d="M66.991,59.925c0-0.141-0.032-0.293-0.065-0.434
		c0-0.217,0.033-0.434,0.065-0.683c0.26-0.075,0.509-0.184,0.769-0.292c0,0,0.032,0.032,0.065,0.076
		c0,0.324,0.043,0.649,0.077,0.975c-0.077,0.064-0.184,0.141-0.293,0.217c-0.185,0.032-0.357,0.107-0.541,0.173
		C67.067,59.957,67.035,59.957,66.991,59.925L66.991,59.925L66.991,59.925z"/>
	<path fill-rule="evenodd" clip-rule="evenodd" fill="#636363" d="M51.78,57.108c-0.108-0.108-0.217-0.217-0.325-0.325
		c-0.292-0.509-0.616-1.019-0.941-1.56c-0.108-0.281-0.218-0.574-0.326-0.899c-0.044-0.184-0.076-0.368-0.15-0.585
		c0-0.39,0-0.823,0.042-1.256c0.032-0.185,0.064-0.368,0.141-0.542c0.109-0.184,0.218-0.368,0.326-0.542
		c0.032,0,0.076-0.043,0.108-0.075c0,0,0.032,0,0.076,0.032c0.064,0.369,0.141,0.726,0.217,1.127
		c0.216,0.498,0.432,1.039,0.648,1.592c0.032,0.173,0.108,0.391,0.185,0.607c0.033,0.26,0.065,0.509,0.142,0.801
		c0,0.499,0,1.008,0.032,1.517c0,0,0,0.032-0.032,0.064C51.89,57.064,51.846,57.064,51.78,57.108L51.78,57.108L51.78,57.108z
		 M47.686,60.759c-0.281-0.217-0.573-0.434-0.899-0.649c-0.217-0.261-0.433-0.51-0.649-0.803c-0.217-0.324-0.435-0.649-0.651-0.975
		c-0.184-0.541-0.399-1.083-0.616-1.657c-0.141-0.292-0.293-0.585-0.434-0.866c0-0.076,0-0.151-0.032-0.217
		c0.032,0,0.064,0,0.108-0.043c0.249,0.216,0.541,0.434,0.833,0.649c0.217,0.26,0.467,0.509,0.716,0.759
		c0.217,0.324,0.434,0.693,0.649,1.05c0.185,0.542,0.402,1.127,0.618,1.701c0.141,0.325,0.325,0.649,0.509,0.975
		c0,0,0,0.043-0.043,0.076C47.762,60.759,47.729,60.759,47.686,60.759L47.686,60.759L47.686,60.759z M51.998,63.174
		c-0.37-0.032-0.76-0.064-1.159-0.141c-0.261-0.108-0.543-0.217-0.836-0.325c-0.184-0.107-0.357-0.216-0.541-0.324
		c-0.356-0.324-0.727-0.65-1.115-1.008c-0.076-0.108-0.152-0.217-0.217-0.368c0.032,0,0.064,0,0.108-0.032
		c0.064,0.032,0.172,0.075,0.28,0.108c0.911,0.075,1.811,0.141,2.72,0.249c0.325,0.108,0.651,0.217,1.008,0.324
		c0.466,0.261,0.976,0.509,1.484,0.759c0,0.044,0.033,0.076,0.065,0.108c0.076,0.044,0.151,0.076,0.26,0.151
		c0,0,0,0.032,0.032,0.065c0,0.043,0,0.075-0.032,0.108c-0.477,0.075-0.943,0.184-1.408,0.292
		C52.431,63.142,52.214,63.142,51.998,63.174L51.998,63.174L51.998,63.174z M54.304,62.242c-0.216-0.076-0.432-0.183-0.648-0.292
		c-0.141-0.108-0.293-0.217-0.434-0.325c-0.109-0.108-0.25-0.249-0.4-0.4c-0.109-0.141-0.218-0.281-0.326-0.466
		c-0.107-0.184-0.216-0.401-0.324-0.617c-0.108-0.357-0.217-0.727-0.325-1.116c0-0.184-0.032-0.368-0.065-0.585
		c0-0.325,0.033-0.649,0.065-0.975c0.044-0.033,0.076-0.108,0.108-0.174c0.044-0.011,0.076,0.033,0.152,0.065
		c0.433,0.51,0.865,1.019,1.299,1.56c0.217,0.357,0.434,0.759,0.65,1.148c0.108,0.324,0.216,0.66,0.324,0.985
		c0.033,0.249,0.076,0.499,0.141,0.791c0,0.108,0,0.25-0.032,0.4C54.456,62.242,54.38,62.242,54.304,62.242L54.304,62.242
		L54.304,62.242z M51.011,60.499c-0.573-0.033-1.148-0.065-1.732-0.142c-0.173-0.108-0.39-0.216-0.607-0.324
		c-0.217-0.293-0.433-0.574-0.649-0.866c-0.152-0.25-0.293-0.51-0.477-0.759c0,0,0-0.032,0.032-0.076
		c0.585,0.076,1.203,0.185,1.81,0.293c0.075,0.032,0.151,0.075,0.216,0.108c0.043,0,0.109,0,0.185-0.033
		c0.032-0.216,0.075-0.433,0.142-0.649c0.108-0.26,0.215-0.51,0.324-0.759c0.043-0.151,0.076-0.292,0.108-0.477
		c0,0,0.044-0.032,0.076-0.075c0.076,0.043,0.141,0.108,0.217,0.184c0.185,0.325,0.4,0.693,0.617,1.051c0,0.357,0,0.726,0.032,1.083
		c-0.032,0.401-0.065,0.791-0.108,1.191c0,0.076-0.032,0.141-0.065,0.25c0,0-0.043,0-0.075,0.043
		C51.055,60.542,51.055,60.542,51.011,60.499L51.011,60.499L51.011,60.499z M49.246,58.159c-0.108-0.044-0.217-0.108-0.357-0.185
		c-0.511-0.141-1.02-0.292-1.561-0.466c-0.108-0.108-0.216-0.26-0.358-0.4c-0.216-0.477-0.433-0.942-0.648-1.451
		c0-0.108-0.044-0.217-0.076-0.325c0.032,0,0.076,0,0.141-0.033c0.108,0.033,0.216,0.109,0.368,0.185
		c0.173,0.032,0.358,0.065,0.542,0.141c0.324,0.141,0.683,0.325,1.051,0.509c0.107-0.216,0.216-0.433,0.324-0.692
		c0.218-0.357,0.435-0.716,0.683-1.116c0.033,0,0.076,0,0.108-0.032c0.108,0.25,0.217,0.498,0.325,0.759
		c0.075,0.216,0.142,0.465,0.216,0.714c-0.108,0.434-0.216,0.867-0.324,1.344c-0.108,0.324-0.217,0.65-0.325,1.007
		C49.321,58.115,49.278,58.115,49.246,58.159L49.246,58.159L49.246,58.159z M47.979,55.44c-0.466-0.249-0.942-0.498-1.441-0.791
		c-0.108-0.107-0.26-0.217-0.4-0.357c-0.032-0.076-0.108-0.151-0.185-0.26c-0.108-0.401-0.217-0.791-0.324-1.191
		c0-0.249-0.034-0.51-0.066-0.759c0,0,0.032,0,0.066-0.032c0.368,0.217,0.726,0.434,1.082,0.65c0.217,0.172,0.477,0.39,0.727,0.606
		c0.108-0.141,0.217-0.325,0.357-0.499c0.336-0.324,0.66-0.692,0.986-1.05c0.031,0,0.064,0,0.108-0.032
		c0.064,0.324,0.141,0.682,0.249,1.039c0,0.184,0,0.401-0.032,0.617c-0.044,0.141-0.076,0.293-0.152,0.434
		c-0.218,0.368-0.435,0.759-0.65,1.159c-0.032,0.108-0.064,0.217-0.141,0.357c-0.032,0.043-0.076,0.076-0.141,0.151
		C48.021,55.483,48.021,55.483,47.979,55.44L47.979,55.44L47.979,55.44z M47.22,52.516c-0.218-0.217-0.466-0.434-0.726-0.682
		c-0.249-0.218-0.498-0.435-0.792-0.65c-0.032-0.108-0.074-0.218-0.141-0.368c-0.044-0.293-0.076-0.618-0.108-0.942
		c0-0.325,0-0.684,0.032-1.04c0.032-0.044,0.076-0.076,0.108-0.152c0.435,0.401,0.867,0.834,1.333,1.268
		c0.043,0.075,0.075,0.185,0.151,0.293c0,0,0.034,0,0.066,0.032c0.151-0.141,0.292-0.292,0.476-0.434
		c0.293-0.184,0.574-0.357,0.898-0.541c0.109-0.109,0.217-0.217,0.326-0.325c0,0,0.044,0.032,0.076,0.075c0,0.282,0,0.574,0,0.867
		c0,0.217-0.032,0.434-0.076,0.649c-0.109,0.174-0.217,0.358-0.326,0.542c-0.356,0.433-0.725,0.899-1.114,1.376
		c-0.044,0-0.076,0.032-0.152,0.064C47.252,52.548,47.252,52.548,47.22,52.516L47.22,52.516L47.22,52.516z M47.145,49.407
		c-0.108-0.108-0.218-0.218-0.358-0.358c-0.108-0.184-0.249-0.4-0.4-0.616c-0.032-0.109-0.064-0.218-0.108-0.326
		c0-0.248,0.044-0.509,0.076-0.801c0.292-0.574,0.616-1.191,0.942-1.799c0.217-0.509,0.433-1.018,0.649-1.526
		c0.217-0.391,0.433-0.791,0.649-1.192c0.25-0.39,0.511-0.823,0.792-1.256c0.043-0.044,0.075-0.076,0.151-0.108
		c0,0,0.032,0,0.064,0.032c0,0.032,0,0.076,0.043,0.141c-0.54,0.976-1.083,1.95-1.624,2.936c-0.108,0.325-0.228,0.65-0.336,0.975
		c0,0.25,0.043,0.499,0.076,0.791c0.107,0.249,0.217,0.509,0.324,0.759c0.044,0.249,0.076,0.509,0.152,0.758
		c0,0.076-0.044,0.185-0.076,0.292c-0.249,0.401-0.542,0.791-0.834,1.192C47.296,49.331,47.22,49.374,47.145,49.407L47.145,49.407
		L47.145,49.407z"/>
	<path fill-rule="evenodd" clip-rule="evenodd" fill="#636363" d="M65.442,49.157c-0.077-0.108-0.141-0.216-0.217-0.324
		c0-0.076,0-0.152-0.032-0.26c0.064-0.434,0.141-0.899,0.217-1.376c0,0,0.032,0,0.064-0.032c0.076-0.326,0.184-0.683,0.292-1.051
		c0.033-0.033,0.076-0.065,0.108-0.142c0.032-0.184,0.076-0.356,0.141-0.541c0.108-0.249,0.218-0.51,0.326-0.758
		c0.108-0.142,0.216-0.293,0.324-0.434c0.293-0.26,0.585-0.542,0.877-0.834c0-0.217,0.033-0.434,0.065-0.65
		c0-0.108-0.033-0.249-0.065-0.4c0,0-0.043-0.033-0.075-0.065c-0.433-0.044-0.91-0.076-1.376-0.108
		c-0.325-0.044-0.649-0.076-0.975-0.151c-0.141,0.043-0.326,0.075-0.508,0.151c-0.326,0.141-0.683,0.325-1.052,0.498
		c-0.174,0.044-0.39,0.076-0.607,0.152c-0.043,0-0.076,0.032-0.108,0.065c0,0.043-0.043,0.107-0.076,0.184
		c0.033,0.108,0.076,0.249,0.141,0.4c-0.39,0.542-0.791,1.083-1.224,1.657c-0.617,0.401-1.268,0.834-1.917,1.268
		c-0.217,0.217-0.434,0.466-0.683,0.727c-0.076,0.14-0.186,0.28-0.294,0.433c-0.508,0.509-1.006,1.051-1.56,1.592
		c-2.383,0-4.767-0.043-7.192-0.075c0-0.108,0-0.217-0.034-0.325c0.108-0.542,0.217-1.083,0.326-1.624
		c0.217-0.586,0.434-1.192,0.649-1.81c0.217-0.401,0.435-0.791,0.649-1.235c1.312-1.776,2.2-2.859,4.117-4.137
		c7.27-3.965,15.482-0.736,18.082,7.073c0.108,0.465,0.217,0.941,0.325,1.408c0,0.216,0,0.465,0.044,0.725
		C71.304,49.157,68.367,49.157,65.442,49.157L65.442,49.157L65.442,49.157z"/>
	<path fill-rule="evenodd" clip-rule="evenodd" fill="#636363" d="M49.105,47.349c-0.076-0.184-0.152-0.368-0.217-0.585
		c-0.044-0.032-0.077-0.065-0.108-0.141c0-0.141,0-0.325,0.031-0.509c1.138-3.142,2.676-5.059,5.385-7.226
		c0.759-0.509,1.495-0.898,2.319-1.3c3.423-1.213,6.013-1.43,9.576-0.541c2.557,0.953,4.291,1.928,6.251,3.899
		c1.301,1.505,2.081,2.881,2.861,4.701c-0.034,0.141-0.078,0.292-0.143,0.466c-0.042,0.107-0.108,0.216-0.184,0.368
		c-0.032,0-0.074,0-0.108-0.044c-0.617-1.841-1.549-3.347-2.751-4.842c-1.842-1.841-3.272-2.783-5.709-3.758
		c-3.436-1.138-7.032-0.77-10.271,0.725c-4.03,2.416-5.547,4.701-6.824,8.742C49.17,47.306,49.138,47.306,49.105,47.349
		L49.105,47.349L49.105,47.349z"/>
	<path fill-rule="evenodd" clip-rule="evenodd" fill="#636363" d="M46.957,39.636c0.091,0.063,0.189,0.129,0.295,0.195
		c0,0.065,0.044,0.174,0.076,0.282c0,0.108-0.032,0.26-0.076,0.4c-0.325,0.292-0.65,0.585-0.975,0.91
		c0,0.032-0.032,0.064-0.064,0.141c-0.217,0.217-0.435,0.434-0.695,0.649c-0.432,0.51-0.865,1.051-1.3,1.593
		c-0.4,0.542-0.79,1.115-1.223,1.7c-0.186,0.325-0.402,0.683-0.618,1.04c-0.033,0.043-0.108,0.076-0.185,0.151l0,0
		c-0.064-0.042-0.173-0.108-0.281-0.184c0-0.032-0.043-0.076-0.075-0.141c0.184-0.368,0.4-0.726,0.617-1.126
		c0.433-0.607,0.866-1.225,1.3-1.875c0.248-0.324,0.541-0.693,0.823-1.051c0.661-0.649,1.344-1.331,2.026-2.025
		c0-0.032,0.044-0.075,0.076-0.141c0-0.157,0-0.337,0.02-0.521l-4.073,0.001c0.002,0.475,0.002,0.946,0.002,1.42
		c-0.033,0.541-0.065,1.082-0.108,1.592c-0.032,0.032-0.064,0.076-0.064,0.076c-0.076,0.249-0.152,0.498-0.185,0.715
		c-0.185,0.325-0.325,0.649-0.465,0.985c-0.108,0.174-0.217,0.358-0.326,0.498c-0.043,0.542-0.076,1.051-0.076,1.561
		c0.033,0.064,0.076,0.141,0.109,0.174c0.249,0.183,0.509,0.324,0.726,0.477l0,0c0.032,0,0.064,0,0.107,0
		c0.846-1.561,1.756-2.763,2.958-4.235c0.434-0.434,0.835-0.867,1.235-1.301c0.357-0.324,0.715-0.649,1.04-0.975
		c0.043-0.076,0.043-0.141,0.043-0.185c-0.043-0.249-0.043-0.466-0.043-0.682c-0.038-0.045-0.069-0.086-0.095-0.12H46.957
		L46.957,39.636z M76.578,39.636c0.462,0.377,0.936,0.753,1.408,1.127c0-0.325,0.032-0.682,0.076-1.039
		c-0.016-0.029-0.034-0.06-0.054-0.088H76.578L76.578,39.636z M78.333,39.636c-0.013,0.456-0.032,0.922-0.053,1.388
		c0.032,0.184,0.064,0.356,0.141,0.541c0.032,0.075,0.108,0.141,0.185,0.217c0,0.217,0.032,0.433,0.064,0.683
		c-0.032,0-0.064,0-0.108,0.043c0,0,0,0,0-0.043l0,0c-0.173-0.218-0.391-0.466-0.606-0.716c-0.477-0.433-0.942-0.877-1.419-1.343
		c-0.308-0.253-0.613-0.511-0.931-0.767l-0.521-0.003c0.06,0.034,0.108,0.059,0.152,0.088c0.758,0.649,1.517,1.3,2.242,1.949
		c0.477,0.509,0.91,1.007,1.344,1.483c0.032-0.043,0.064-0.043,0.064-0.043c0.044-0.466,0.044-0.932,0.044-1.365
		c-0.108-0.108-0.185-0.216-0.261-0.324c-0.031-0.597-0.063-1.193-0.064-1.79L78.333,39.636L78.333,39.636z M80.631,39.636
		c-0.015,0.002-0.028,0.007-0.044,0.012c0,0.032,0,0.108,0,0.184c0.217,0.325,0.435,0.683,0.651,1.04
		c0.108,0.108,0.216,0.261,0.324,0.401c0.26,0.509,0.509,1.018,0.802,1.56c0,1.408,0,2.849,0.033,4.301
		c-0.033,0-0.076,0.032-0.109,0.064c0,0,0,0-0.032-0.032l0,0c-0.217-0.141-0.434-0.293-0.649-0.467
		c-0.217-0.26-0.434-0.509-0.693-0.758c-0.109-0.151-0.218-0.324-0.326-0.509c-0.107-0.217-0.216-0.434-0.324-0.683
		c-0.217-0.726-0.434-1.451-0.649-2.21c-0.11-0.834-0.25-1.668-0.4-2.491c-0.104-0.145-0.208-0.279-0.34-0.414L80.631,39.636
		L80.631,39.636z M81.996,46.698c-0.108-0.108-0.249-0.216-0.39-0.324c-0.217-0.293-0.434-0.617-0.651-0.942
		c-0.042-0.108-0.107-0.249-0.184-0.401c0,0,0.032-0.032,0.076-0.064c0.142,0.108,0.282,0.249,0.466,0.391
		c0.033,0,0.076,0,0.141-0.033c0-0.108,0.044-0.217,0.076-0.325c0-0.942,0.032-1.917,0.076-2.893
		c0.141,0.293,0.324,0.574,0.498,0.899c0,1.191,0,2.427,0.043,3.651C82.104,46.656,82.071,46.656,81.996,46.698L81.996,46.698
		L81.996,46.698z"/>
	<path fill-rule="evenodd" clip-rule="evenodd" fill="#636363" d="M46.132,35.853l0.005,1.087c-0.032,0.064-0.076,0.141-0.108,0.249
		c-0.076,0.032-0.141,0.108-0.25,0.185c-0.043,0-0.076,0-0.15,0.032l0,0v-1.553h-4.106c-0.011,0.319-0.011,0.627-0.011,0.935
		c0.185,0.152,0.357,0.293,0.509,0.401c0.108,0.032,0.217,0.076,0.281,0.108c0.108-0.032,0.217-0.076,0.292-0.076
		c0.021,0.821,0.029,1.621,0.031,2.416l4.073-0.001c0.005-0.032,0.009-0.064,0.013-0.097c0,0,0.044,0,0.076-0.032
		c0.055,0.042,0.112,0.084,0.171,0.127l0.525,0.002c-0.018-0.024-0.033-0.046-0.046-0.064c-0.141-0.108-0.292-0.217-0.435-0.324
		c-0.075-0.065-0.107-0.142-0.14-0.174c0.032-0.076,0.032-0.151,0.032-0.185l2.784-1.992c0.271-0.336,0.477-0.618,0.65-0.867
		c0.026-0.06,0.052-0.119,0.078-0.18l-0.297,0.003c-0.133,0.243-0.316,0.497-0.571,0.794l-3.325,2.383
		c-0.044,0.076-0.076,0.186-0.152,0.293c-0.064,0.032-0.141,0.075-0.249,0.141c-0.033,0-0.109,0-0.184,0l0,0
		c0,0-0.034-0.032-0.066-0.065c0-0.107,0-0.259-0.044-0.4c0.044-0.075,0.11-0.141,0.185-0.249l2.86-2.069
		c0.108-0.107,0.249-0.216,0.391-0.324c0.171-0.19,0.316-0.353,0.44-0.501l-2.393-0.001c-0.097,0.197-0.193,0.421-0.291,0.653
		c-0.032,0.032-0.108,0.108-0.184,0.152l0,0l0.003-0.806H46.132L46.132,35.853z M55.881,35.853
		c-0.505,0.191-0.924,0.283-1.609,0.328l0,0c-0.292-0.032-0.584-0.151-0.909-0.217c0-0.043,0-0.075,0.043-0.108
		c0.095,0,0.187-0.001,0.275-0.005l-0.998,0.002c0.439,0.308,0.939,0.516,1.514,0.61l0,0c0.885,0,1.712-0.204,2.418-0.612
		L55.881,35.853L55.881,35.853z M68.945,35.853c-0.006,0.052-0.017,0.111-0.038,0.177c-0.032,0-0.106,0-0.172,0l0,0
		c-0.177-0.06-0.354-0.118-0.533-0.177h-0.964c0.615,0.201,1.235,0.393,1.854,0.578c0.033-0.033,0.075-0.033,0.075-0.033
		c0.032-0.151,0.065-0.293,0.065-0.434c-0.005-0.037-0.011-0.073-0.017-0.11L68.945,35.853L68.945,35.853z M72.872,35.853
		c0.036,0.185,0.08,0.375,0.121,0.578c0.109,0.184,0.217,0.4,0.325,0.617c-0.032,0.357-0.064,0.726-0.107,1.115l0,0l-2.893-1.517
		c-0.108-0.216-0.217-0.434-0.325-0.649c0-0.033,0.044-0.076,0.076-0.142c0.802,0.391,1.625,0.791,2.459,1.225
		c0.032,0,0.108,0,0.185-0.032c0-0.151,0-0.293,0.032-0.434c0-0.151,0-0.292-0.032-0.477c-0.076-0.033-0.152-0.065-0.217-0.141
		c-0.017-0.043-0.032-0.091-0.05-0.143l-2.835-0.002c0.164,0.325,0.326,0.651,0.49,0.979l3.327,1.732l0,0
		c0.042,0.033,0.042,0.033,0.042,0.033c0.065-0.033,0.107-0.065,0.142-0.108c-0.034-0.542-0.034-1.083-0.034-1.592
		c-0.107-0.109-0.184-0.218-0.26-0.282c-0.064-0.184-0.107-0.368-0.14-0.51c-0.016-0.084-0.032-0.168-0.047-0.251L72.872,35.853
		L72.872,35.853z M78.239,35.853c-0.013,0.229-0.024,0.458-0.035,0.686c-0.033,0-0.075,0-0.142,0.033l0,0
		c-0.107-0.033-0.216-0.108-0.368-0.174c0-0.043-0.032-0.075-0.064-0.108c0-0.145,0.001-0.29,0.002-0.436l-2.678-0.001
		c-0.001,0.302-0.001,0.602-0.001,0.902c-0.042,0.076-0.075,0.108-0.075,0.142c-0.184,0.075-0.357,0.107-0.541,0.151
		c-0.033,0.064-0.076,0.141-0.076,0.173c0.043,0.292,0.043,0.553,0.043,0.802c0.174,0.466,0.325,0.899,0.466,1.332
		c0.076,0.076,0.142,0.152,0.218,0.217c0.035,0.025,0.066,0.045,0.097,0.063l0.521,0.002c-0.133-0.104-0.266-0.209-0.401-0.313
		c-0.078-0.075-0.143-0.184-0.217-0.293c-0.034-0.141-0.076-0.281-0.142-0.466c0-0.032,0.032-0.108,0.065-0.184
		c0.293,0.217,0.617,0.434,0.942,0.649c0.236,0.203,0.479,0.405,0.725,0.606h1.431c-0.102-0.156-0.228-0.315-0.347-0.497
		c0-0.466,0-0.932-0.032-1.408c0-0.033,0.032-0.065,0.064-0.142c0.152,0.108,0.292,0.217,0.477,0.325
		c0.109,0.108,0.218,0.249,0.358,0.4c0.108,0.217,0.249,0.466,0.401,0.715c0,0.044,0,0.076-0.044,0.152
		c-0.173-0.108-0.357-0.26-0.542-0.401c0,0.28-0.005,0.565-0.012,0.854l0.272,0.001c0-0.023,0-0.044,0-0.064
		c0.032-0.032,0.064-0.032,0.064-0.032c0.076,0.032,0.152,0.076,0.185,0.076c0.006,0.006,0.011,0.013,0.019,0.019l1.758,0.002
		c0.311-0.104,0.62-0.176,0.899-0.238c0.185-0.15,0.325-0.259,0.466-0.368c0.108-0.249,0.218-0.498,0.325-0.758
		c-0.033-0.281-0.033-0.541-0.033-0.791c-0.074-0.216-0.108-0.433-0.141-0.649c-0.166-0.333-0.332-0.656-0.466-0.978l-2.785-0.001
		c-0.038,0.131-0.079,0.262-0.118,0.394c-0.032,0-0.064,0.043-0.108,0.076c0,0,0,0-0.032-0.033l0,0c0-0.146,0-0.291-0.001-0.438
		L78.239,35.853L78.239,35.853z M80.447,39.247c-0.076-0.065-0.152-0.142-0.217-0.218c0-0.064,0-0.141,0.032-0.216
		c0.249-0.108,0.509-0.217,0.801-0.325c0.142-0.108,0.283-0.217,0.467-0.325c0.108-0.141,0.217-0.281,0.325-0.433
		c0-0.033,0.032-0.109,0.075-0.186c0,0,0.033,0,0.065,0c0.043,0.109,0.075,0.229,0.108,0.369c-0.033,0.217-0.065,0.434-0.141,0.683
		c-0.185,0.184-0.357,0.4-0.574,0.618C81.098,39.215,80.771,39.215,80.447,39.247L80.447,39.247L80.447,39.247z M42.269,36.896
		c-0.032,0-0.108-0.033-0.185-0.065c-0.032-0.076-0.064-0.185-0.108-0.293c0-0.032,0.044-0.075,0.076-0.107
		c0.108,0,0.249,0,0.401-0.033c0.032,0.065,0.064,0.141,0.14,0.249c0,0.032-0.032,0.108-0.075,0.185
		C42.453,36.831,42.377,36.863,42.269,36.896L42.269,36.896L42.269,36.896z"/>
	<path fill-rule="evenodd" clip-rule="evenodd" fill="#636363" d="M41.521,35.853c0.005-0.13,0.011-0.263,0.021-0.397l5.352-3.834
		c0.292-0.109,0.574-0.217,0.867-0.325c1.191-0.119,1.895,0,2.708,1.3c0.281,1.028,0.411,1.657,0.185,2.675
		c-0.083,0.198-0.165,0.39-0.248,0.579l-0.297,0.003c0.241-0.438,0.318-0.84,0.36-1.404c-0.032-0.228-0.032-0.444-0.032-0.661
		c-0.076-0.249-0.108-0.499-0.142-0.715c-0.076-0.076-0.108-0.152-0.152-0.185c-0.032,0.4-0.032,0.791-0.032,1.159
		c-0.109,0.918-0.283,1.286-0.718,1.807l-2.393-0.001c0.012-0.026,0.023-0.05,0.035-0.072c-0.034-0.617-0.034-1.225-0.034-1.809
		c-0.032-0.033-0.075-0.076-0.075-0.109c-0.108,0.076-0.217,0.142-0.325,0.185c-0.032,0.033-0.064,0.065-0.064,0.108l-0.008,1.697
		h-0.397l-0.007-1.806c0.108-0.108,0.229-0.217,0.304-0.292c0.141-0.108,0.281-0.217,0.434-0.325c0-0.032,0-0.076,0-0.108
		c-0.044-0.033-0.076-0.075-0.076-0.075c-0.141-0.033-0.292-0.033-0.433-0.033c-0.076,0.033-0.141,0.075-0.217,0.075
		c-0.185,0.109-0.358,0.218-0.509,0.326v2.238H41.521L41.521,35.853z M52.683,35.853c-0.365-0.258-0.688-0.583-0.979-0.971
		c-0.585-0.976-0.801-1.93-0.693-3.044c0.076-0.391,0.185-0.791,0.293-1.225c0.715-1.755,2.275-2.448,3.402-2.534
		c1.245-0.055,2.069,0.4,2.925,1.267c0.411,0.542,0.606,1.029,0.802,1.625c0.151,1.235,0.163,1.689-0.109,2.968
		c-0.385,0.854-0.981,1.492-1.709,1.912l-0.733,0.002c0.222-0.083,0.459-0.186,0.743-0.311c0.64-0.455,0.898-0.726,1.224-1.354
		c0.412-1.213,0.476-2.015,0.185-3.325c-0.076-0.141-0.143-0.292-0.185-0.4c-0.032,0.076-0.032,0.151-0.032,0.216
		c0.032,0.152,0.074,0.293,0.074,0.401c-0.139,1.939-0.259,3.195-1.993,4.235c-0.833,0.313-1.366,0.504-2.216,0.536L52.683,35.853
		L52.683,35.853z M67.238,35.853c-0.214-0.069-0.425-0.141-0.637-0.213c-0.076-0.044-0.152-0.108-0.26-0.185
		c-0.142-0.292-0.282-0.617-0.467-0.942c0-0.217,0-0.433-0.032-0.65c0-0.032,0-0.107,0.032-0.184
		c0.108-0.032,0.217-0.064,0.325-0.141c0.076-0.032,0.142-0.108,0.218-0.185c0.032-0.174,0.107-0.357,0.184-0.573
		c0.108-0.727,0.217-1.441,0.324-2.21c0-0.141,0-0.281-0.043-0.467c-0.173-0.4-0.39-0.79-0.607-1.19c0-0.293,0-0.618,0.034-0.942
		c0,0,0.032-0.032,0.074-0.065c0.282,0.033,0.575,0.065,0.867,0.108c0.509,0.108,1.008,0.217,1.551,0.325
		c0.757,0.216,1.559,0.433,2.35,0.65c0.4,0.14,0.802,0.28,1.234,0.466c0.218,0.356,0.435,0.725,0.65,1.115
		c0,0.107,0.033,0.217,0.065,0.368c0,0.324,0,0.649-0.032,0.975c-0.108,0.033-0.217,0.076-0.325,0.141c0,0,0,0.044-0.032,0.076
		c0.064,0.898,0.173,1.842,0.281,2.784c0.034,0.315,0.082,0.625,0.138,0.939l-0.259-0.001c-0.021-0.108-0.04-0.216-0.052-0.321
		c-0.152-1.083-0.293-2.134-0.435-3.185c0.033-0.185,0.065-0.357,0.109-0.509c0.108-0.065,0.217-0.108,0.281-0.141
		c0-0.326,0-0.618,0-0.91c-0.108-0.142-0.217-0.282-0.281-0.434c-0.044,0.076-0.076,0.151-0.109,0.217
		c-0.076,0.043-0.15,0.075-0.217,0.075c-0.074-0.032-0.107-0.032-0.15-0.032c-0.11,0.064-0.218,0.141-0.282,0.174l0.606,4.809
		c0.046,0.092,0.076,0.179,0.103,0.259l-2.835-0.002c-0.053-0.107-0.106-0.215-0.161-0.321c0-0.261,0-0.509,0.044-0.759
		c0.032-0.043,0.108-0.076,0.173-0.15c0-0.033,0-0.066,0.044-0.109c-0.217-0.064-0.435-0.141-0.694-0.249c0,0-0.032,0-0.066,0.032
		c0,0.26,0,0.509-0.043,0.759c0.077,0.108,0.152,0.216,0.26,0.325c0,0.151,0.023,0.304,0.049,0.474l-0.271-0.001
		c0.005-0.065,0.005-0.123,0.005-0.181c-0.043-0.076-0.043-0.141-0.043-0.217c-0.064-0.075-0.139-0.141-0.172-0.185
		c-0.077-0.141-0.108-0.28-0.151-0.389c-0.032-0.044-0.065-0.044-0.065-0.044c-0.043,0.108-0.075,0.217-0.075,0.325
		c-0.141,0.043-0.249,0.043-0.357,0.043c-0.51-0.184-1.019-0.368-1.528-0.51c-0.065,0.033-0.14,0.033-0.216,0.033
		c0.076,0.185,0.151,0.325,0.216,0.477c0.076,0.064,0.152,0.141,0.217,0.174c0.473,0.157,0.951,0.314,1.428,0.473H67.238
		L67.238,35.853z M74.954,35.853c0.002-1.076,0.006-2.156,0.033-3.257c-0.142-0.108-0.325-0.217-0.51-0.325
		c-0.108-0.281-0.249-0.606-0.39-0.932c0-0.368,0-0.726,0-1.094c0.032,0,0.064,0,0.108-0.032c0.433,0.217,0.897,0.433,1.364,0.649
		c0.401,0.217,0.802,0.434,1.192,0.649c0.66,0.401,1.31,0.835,1.993,1.269c0.293,0.216,0.575,0.433,0.867,0.649
		c0.356,0.325,0.726,0.65,1.082,0.975c0.044,0.076,0.076,0.151,0.152,0.26c0.032,0.032,0.107,0.065,0.174,0.141
		c0.184,0.293,0.4,0.618,0.617,0.943c0.014,0.035,0.027,0.069,0.043,0.105l-2.785-0.001c0.034-0.122,0.067-0.242,0.099-0.365
		c-0.064-0.141-0.108-0.281-0.141-0.39c-0.076-0.043-0.141-0.075-0.185-0.075c-0.032,0.032-0.064,0.032-0.064,0.032
		c0.021,0.275,0.027,0.538,0.031,0.796l-0.397,0.002c0.024-0.455,0.052-0.907,0.073-1.34c0.032-0.032,0.076-0.064,0.076-0.064
		c0.141,0.064,0.249,0.141,0.357,0.174c0.032-0.033,0.076-0.033,0.076-0.033c0.032-0.033,0.032-0.076,0.032-0.108
		c-0.108-0.217-0.217-0.434-0.325-0.65c-0.217-0.184-0.435-0.368-0.65-0.509c-0.076-0.033-0.141-0.033-0.185-0.033
		c-0.027,0.858-0.055,1.725-0.063,2.565L74.954,35.853L74.954,35.853z M74.846,32.054c-0.042,0-0.076-0.032-0.151-0.064
		c-0.032-0.076-0.065-0.185-0.108-0.292c0.043,0,0.076-0.033,0.151-0.076c0.032,0.076,0.108,0.151,0.174,0.217
		c0,0.075,0,0.151,0.042,0.216C74.911,32.054,74.878,32.054,74.846,32.054L74.846,32.054L74.846,32.054z M68.519,34.622
		c0-0.109-0.043-0.218-0.075-0.358c-0.032-0.043-0.077-0.076-0.141-0.151c0-0.065-0.044-0.141-0.076-0.25
		c0.032-0.184,0.076-0.4,0.108-0.616c0.076,0,0.141,0,0.217-0.033c0.356,0.108,0.725,0.217,1.115,0.325
		c0,0.141,0.044,0.324,0.076,0.509c-0.249-0.043-0.509-0.075-0.758-0.108c-0.077,0-0.141,0-0.249,0.033
		c-0.044,0.216-0.108,0.433-0.184,0.692C68.552,34.664,68.552,34.664,68.519,34.622L68.519,34.622L68.519,34.622z M69.343,32.422
		c-0.033,0-0.066-0.043-0.143-0.075c0-0.108,0-0.217,0-0.325c0.034-0.075,0.077-0.142,0.11-0.249c0,0,0.033,0.032,0.076,0.065
		c0,0.184,0.032,0.368,0.064,0.541C69.418,32.379,69.386,32.379,69.343,32.422L69.343,32.422L69.343,32.422z M68.691,32.271
		c-0.033,0-0.064-0.032-0.14-0.064c0.075-0.618,0.14-1.235,0.25-1.853c0.042-0.141,0.074-0.324,0.149-0.498c0,0,0.034,0,0.066,0.032
		c0.043,0.249,0.076,0.542,0.109,0.834c-0.066,0.466-0.142,0.976-0.25,1.484c-0.032,0.032-0.074,0.064-0.141,0.107
		C68.735,32.313,68.735,32.313,68.691,32.271L68.691,32.271L68.691,32.271z M63.926,35.271c-1.16-0.032-2.319-0.064-3.479-0.107
		c-0.249,0-0.498,0.043-0.757,0.075c-0.033,0-0.064,0-0.141-0.032c-0.249-0.26-0.51-0.542-0.76-0.834c0-0.26,0.034-0.51,0.076-0.758
		c0.142-0.044,0.283-0.076,0.467-0.152c0.076-0.032,0.141-0.108,0.249-0.174c0.044-0.075,0.076-0.15,0.151-0.26
		c0-0.173,0.033-0.356,0.065-0.573c0-0.867,0-1.733,0-2.644c0-0.064-0.032-0.173-0.065-0.281c-0.216-0.217-0.433-0.434-0.693-0.693
		c-0.032-0.065-0.108-0.141-0.174-0.249c0-0.185,0-0.357-0.042-0.542c0-0.107,0.042-0.217,0.075-0.325
		c0.033,0,0.076-0.151,0.109-0.086l4.052-0.021c0.174,0,0.356,0.032,0.574,0.064c0.249,0.293,0.51,0.585,0.801,0.877
		c0,0.25,0,0.499-0.042,0.759c-0.185,0-0.358,0.032-0.542,0.065c-0.032,0-0.076,0.043-0.141,0.076
		c-0.032,0.118-0.12,0.227-0.108,0.509v2.675c0.032,0.033,0.064,0.108,0.14,0.173c0.249-0.14,0.509-0.324,0.801-0.498
		c0.143,0.033,0.281,0.065,0.434,0.142c0.218,0.249,0.435,0.541,0.683,0.833c-0.032,0.109-0.076,0.218-0.141,0.358
		c-0.324,0.509-0.695,1.05-1.051,1.592C64.283,35.238,64.099,35.238,63.926,35.271L63.926,35.271L63.926,35.271z M63.741,35.022
		c-0.032,0-0.076-0.032-0.14-0.076c-0.867,0-1.735,0-2.644-0.032c-0.032,0-0.076,0-0.108,0.032c-0.402,0-0.791-0.032-1.224-0.064
		c-0.108-0.109-0.217-0.218-0.369-0.369c0,0,0-0.032,0-0.064c0.076-0.044,0.152-0.076,0.261-0.119
		c0.541-0.033,1.115-0.065,1.7-0.108c0.357,0,0.714,0,1.084,0c0.064,0,0.173,0.043,0.281,0.075c0.292,0,0.585,0,0.867,0.033
		c0.152,0,0.292-0.033,0.477-0.065c0.281-0.434,0.573-0.91,0.865-1.376c0.076,0,0.142,0,0.218-0.032
		c0.076,0.064,0.141,0.141,0.249,0.249c0,0.075,0.044,0.142,0.076,0.217c-0.293,0.509-0.618,1.051-0.942,1.593
		c-0.033,0-0.067,0.032-0.109,0.076C64.099,34.99,63.926,34.99,63.741,35.022L63.741,35.022L63.741,35.022z M62.766,33.246
		c-0.032-0.033-0.075-0.066-0.108-0.108V29.27c0.033-0.173,0.076-0.4,0.108-0.617c0-0.032,0.033-0.075,0.076-0.107
		c0.217-0.032,0.433-0.065,0.649-0.142c0.034-0.032,0.066-0.108,0.11-0.173c0.032,0,0.064,0,0.108-0.044
		c0.141,0.152,0.281,0.326,0.434,0.51c0,0.108,0,0.217,0,0.357c-0.153,0-0.325,0.043-0.51,0.075
		c-0.076,0.033-0.142,0.108-0.25,0.185l-0.021,3.661c-0.032,0.044-0.13,0.098-0.163,0.163C63.059,33.18,62.907,33.213,62.766,33.246
		L62.766,33.246L62.766,33.246z M54.122,34.772c-0.066,0-0.143-0.043-0.218-0.076c-0.141-0.107-0.152-0.216-0.174-0.367v-4.69
		c0-0.044,0.033-0.108,0.065-0.184c0.358-0.358,0.411-0.412,0.91-0.358c0.227,0.065,0.303,0.238,0.357,0.391
		c0,0.043,0,0.075-0.033,0.107c-0.14,0.076-0.325,0.185-0.51,0.293c-0.161,0.108-0.193,0.195-0.217,0.401v3.823
		C54.304,34.383,54.295,34.751,54.122,34.772L54.122,34.772L54.122,34.772z M54.587,34.448l0.01-3.91
		c0.012-0.087,0.012-0.174,0.022-0.261c0.044-0.162,0.281-0.248,0.412-0.248c0,0,0.033,0,0.077,0.042l0.01,4.041
		c-0.01,0.151-0.022,0.217-0.098,0.368C54.9,34.74,54.663,34.816,54.587,34.448L54.587,34.448L54.587,34.448z"/>
	<path fill-rule="evenodd" clip-rule="evenodd" fill="#636363" d="M76.168,57.011c0.069,0.072,0.239,0.137,0.335,0.185
		c0.61,0.162,1.096,0.183,1.608-0.183L76.168,57.011L76.168,57.011z M73.839,60.336c0.021,0,0.042-0.011,0.064-0.011
		c0.076-0.064,0.15-0.141,0.227-0.216c0.294-0.033,0.781,0.054,0.987-0.293c-0.293-0.055-0.369,0.238-0.813,0.043
		c-0.054-0.043-0.011-0.064-0.011-0.098c0.282-0.357,0.487-0.758,0.748-1.126c0.119-0.173,0.292-0.444,0.325-0.672
		c-0.26,0.185-0.378,0.368-0.52,0.585c-0.217,0.347-0.422,0.726-0.661,1.062c-0.032,0.055-0.032,0.075-0.075,0.108
		c-0.065,0-0.056,0-0.098-0.043c-0.207-0.249-0.207-0.423-0.272-0.704c-0.195,0.346,0.054,0.779,0.164,0.909
		c0.012,0.033,0.012,0.065,0,0.108c-0.033,0.108-0.055,0.206-0.076,0.326C73.827,60.315,73.839,60.325,73.839,60.336L73.839,60.336
		L73.839,60.336z M73.784,60.542c0.021,0.098,0.184,0.228,0.282,0.304c0.563,0.357,1.061,0.52,1.712,0.249
		c0.12-0.13,0.228-0.238,0.336-0.379c0.011-0.022,0.011-0.033,0.011-0.065c0-0.011-0.011-0.033-0.021-0.055
		c-0.076-0.043-0.196-0.108-0.238-0.173c0,0,0.009-0.011,0.021-0.011c0,0,0-0.011,0-0.022c0.26-0.335,0.324-0.433,0.443-0.844
		c-0.021-0.011-0.032-0.022-0.053-0.044c-0.185-0.011-0.435-0.141-0.543-0.173c0-0.022,0-0.044-0.01-0.065c0,0,0,0,0.021,0
		c0-0.011,0-0.021-0.012-0.043c0.216-0.455,0.369-1.354-0.021-1.766c-0.587-0.185-1.279,0.454-1.691,0.79
		c-0.01,0-0.021-0.01-0.042-0.01c-0.131-0.131-0.26-0.25-0.379-0.391c-0.012-0.011-0.033-0.011-0.056-0.011
		c-0.26,0.206-0.378,0.379-0.53,0.672c-0.011,0.021-0.043,0.054-0.066,0.075c-0.009,0.012-0.02,0.012-0.032,0.022
		c-0.044-0.032-0.185-0.108-0.228-0.131c-0.01,0.012-0.033,0.012-0.065,0.012c-0.011,0.011-0.032,0.032-0.053,0.055
		c-0.032,0.064-0.076,0.129-0.121,0.184c-0.141,0.53,0.044,0.985,0.39,1.311C72.993,60.217,73.557,60.596,73.784,60.542
		L73.784,60.542L73.784,60.542z M70.523,63.164c0.01,0,0.043,0,0.064,0c0.087-0.033,0.185-0.076,0.293-0.131
		c0.282,0.065,0.736,0.293,1.051,0.022c-0.271-0.142-0.435,0.118-0.813-0.218c-0.032-0.054,0.01-0.064,0.021-0.086
		c0.391-0.26,0.716-0.586,1.096-0.866c0.162-0.142,0.421-0.348,0.52-0.553c-0.314,0.097-0.477,0.238-0.683,0.4
		c-0.325,0.282-0.651,0.574-0.985,0.835c-0.055,0.032-0.055,0.054-0.12,0.075c-0.054-0.021-0.043-0.021-0.075-0.065
		c-0.119-0.324-0.066-0.486-0.032-0.78c-0.304,0.282-0.207,0.78-0.142,0.933c0.011,0.043,0,0.075-0.033,0.119
		c-0.053,0.087-0.107,0.184-0.173,0.281C70.512,63.142,70.523,63.152,70.523,63.164L70.523,63.164L70.523,63.164z M70.393,63.337
		c-0.01,0.108,0.119,0.281,0.185,0.39c0.434,0.531,0.867,0.846,1.592,0.791c0.152-0.087,0.294-0.163,0.444-0.271
		c0.011-0.01,0.022-0.032,0.032-0.054c0.011-0.011,0-0.032,0-0.054c-0.064-0.076-0.161-0.174-0.172-0.25c0,0,0-0.011,0.011-0.011
		c0,0,0.011,0,0.011-0.021c0.357-0.238,0.454-0.314,0.693-0.683c-0.011-0.01-0.021-0.021-0.033-0.054
		c-0.174-0.064-0.368-0.271-0.476-0.347c0.01-0.021,0.02-0.032,0.02-0.065c0,0,0,0,0.012,0c0.01,0,0.01-0.011,0.01-0.032
		c0.358-0.379,0.791-1.202,0.531-1.732c-0.498-0.368-1.386,0.043-1.896,0.238c-0.01,0-0.021-0.022-0.043-0.033
		c-0.074-0.162-0.174-0.314-0.238-0.498c-0.011,0-0.033-0.011-0.053-0.021c-0.315,0.119-0.489,0.249-0.728,0.487
		c-0.021,0.021-0.054,0.032-0.097,0.054c0,0.012-0.011,0-0.033,0c-0.032-0.032-0.141-0.162-0.185-0.184
		c-0.01,0-0.033-0.011-0.053-0.011c-0.022,0.011-0.044,0.021-0.076,0.032c-0.054,0.043-0.12,0.098-0.173,0.141
		c-0.304,0.466-0.272,0.976-0.044,1.397C69.731,62.773,70.154,63.314,70.393,63.337L70.393,63.337L70.393,63.337z"/>
	<path fill-rule="evenodd" clip-rule="evenodd" fill="#636363" d="M78.111,57.011c0.034-0.022,0.069-0.048,0.104-0.075
		c0.076-0.163,0.142-0.293,0.206-0.467c0-0.021,0-0.043,0-0.064c-0.011-0.011-0.022-0.032-0.043-0.044
		c-0.076-0.021-0.217-0.054-0.271-0.097c0,0,0-0.011,0.011-0.021c0,0,0-0.011,0-0.021c0.141-0.391,0.173-0.51,0.173-0.933
		c-0.022,0-0.044-0.01-0.064-0.021c-0.185,0.044-0.456-0.011-0.574-0.011c0-0.021-0.012-0.043-0.022-0.064c0,0,0,0,0.011-0.011
		c0,0,0-0.011-0.011-0.022c0.076-0.509-0.043-1.408-0.541-1.689c-0.607-0.011-1.095,0.813-1.388,1.256
		c-0.01,0-0.02-0.011-0.043-0.011c-0.162-0.086-0.325-0.151-0.476-0.26c-0.012,0-0.032,0-0.056,0.012
		c-0.184,0.271-0.248,0.465-0.313,0.801c0,0.021-0.021,0.055-0.043,0.087c0,0.011-0.01,0.021-0.021,0.021
		c-0.043-0.011-0.206-0.043-0.26-0.043c-0.011,0-0.022,0.011-0.055,0.021c0,0.021-0.01,0.043-0.032,0.065
		c-0.021,0.075-0.044,0.141-0.054,0.216c0.01,0.542,0.324,0.932,0.746,1.138c0.207,0.131,0.847,0.325,1.052,0.206l0,0
		c0.006,0.01,0.012,0.021,0.022,0.03L78.111,57.011L78.111,57.011z M78.692,53.988l0.433,0.228l0.056-0.162l-0.456-0.151
		L78.692,53.988L78.692,53.988L78.692,53.988z M80.891,54.487c-0.151-0.174-0.313-0.336-0.477-0.477c0-0.011,0-0.022-0.011-0.032
		c0.044-0.087,0.086-0.185,0.141-0.282c0.012,0,0.033,0,0.055,0.011c0.097,0.055,0.195,0.108,0.304,0.173
		c0.215,0.174,0.281,0.239,0.433,0.477C81.194,54.422,81.043,54.454,80.891,54.487L80.891,54.487L80.891,54.487z M78.801,54.877
		c-0.044-0.043-0.066-0.064-0.099-0.119c-0.021-0.065-0.043-0.119-0.054-0.206c0-0.173,0-0.336-0.011-0.509
		c-0.011-0.087-0.032-0.075-0.087-0.108c-0.065-0.011-0.13-0.022-0.194-0.043c-0.044-0.021-0.098-0.044-0.152-0.065
		c0-0.087,0-0.108,0.087-0.151c0.032,0.011,0.065,0.021,0.119,0.043c0.087,0.055,0.163,0.087,0.26,0.13c0.032,0,0.064,0,0.087-0.01
		c0.141-0.152,0.271-0.239,0.433-0.315c0.303-0.075,0.586-0.087,1.029,0.021c0.056,0.022,0.108,0.044,0.163,0.055
		c-0.011,0.032-0.022,0.065-0.032,0.108c-0.26,0.52-0.921,0.953-1.463,1.138L78.801,54.877L78.801,54.877L78.801,54.877z
		 M80.046,54.975c0.032-0.217,0.055-0.38-0.011-0.585c0.119-0.098,0.174-0.174,0.206-0.228c0.01,0,0.022-0.011,0.042-0.021
		c0.024,0.011,0.067,0.021,0.099,0.032c0.228,0.195,0.487,0.443,0.553,0.737C80.729,55.04,80.274,55.062,80.046,54.975
		L80.046,54.975L80.046,54.975z M80.955,55.43c-0.01,0-0.032-0.011-0.042-0.021l-0.119-0.271c0.064,0,0.27-0.064,0.324-0.108
		c0-0.021,0-0.054-0.01-0.086c-0.033-0.087-0.054-0.174-0.097-0.26c0,0,0,0,0.011-0.012c0.032,0,0.249-0.064,0.271-0.076
		c0.021,0,0.033,0,0.055,0.012c0.032,0.032,0.055,0.076,0.087,0.107c0.076,0.152,0.117,0.304,0.097,0.488
		c-0.088,0.108-0.325,0.184-0.563,0.238C80.967,55.44,80.967,55.44,80.955,55.43L80.955,55.43L80.955,55.43z M79.688,55.462
		c-0.119,0.011-0.606-0.314-0.693-0.411c0-0.011,0-0.022,0-0.044c0.109,0,0.878-0.465,0.888-0.487c0-0.011,0.022,0,0.034,0.011
		c0,0.012,0.01,0.021,0.021,0.021c0,0.336-0.064,0.596-0.206,0.899C79.721,55.451,79.699,55.451,79.688,55.462L79.688,55.462
		L79.688,55.462z M79.895,55.538c0-0.012,0-0.022-0.012-0.022c0.034-0.119,0.076-0.26,0.119-0.379
		c0.131,0.033,0.38,0.065,0.64,0.021c0.054,0.098,0.088,0.228,0.152,0.347c0,0.011,0,0.021,0,0.044
		C80.653,55.592,80.025,55.635,79.895,55.538L79.895,55.538L79.895,55.538z M77.37,52.732c-0.012-0.011-0.032-0.032-0.044-0.043
		c-0.032-0.098-0.064-0.195-0.086-0.304c-0.227-0.174-0.682-0.368-0.682-0.78c0.281,0.12,0.195,0.412,0.672,0.477
		c0.064-0.011,0.043-0.043,0.053-0.075c-0.042-0.455-0.01-0.899-0.032-1.354c0-0.218-0.01-0.531,0.088-0.737
		c0.119,0.293,0.119,0.509,0.119,0.77c0,0.411-0.022,0.834,0,1.245c0,0.064-0.011,0.076,0.011,0.141
		c0.054,0.032,0.043,0.022,0.108,0.011c0.314-0.108,0.39-0.248,0.595-0.455c-0.01,0.4-0.454,0.64-0.605,0.683
		c-0.033,0.021-0.055,0.054-0.066,0.098c-0.031,0.098-0.064,0.206-0.106,0.314C77.393,52.722,77.381,52.722,77.37,52.732
		L77.37,52.732L77.37,52.732z M77.316,52.938c-0.077,0.064-0.284,0.086-0.401,0.107c-0.671,0-1.182-0.118-1.593-0.692
		c-0.032-0.174-0.064-0.326-0.076-0.499c0-0.021,0.012-0.043,0.022-0.064c0-0.011,0.021-0.022,0.043-0.032
		c0.087,0,0.229,0.01,0.293-0.032c0,0,0,0-0.012-0.012c0,0,0-0.011,0.012-0.021c-0.032-0.422-0.044-0.542,0.076-0.942
		c0.02,0,0.043,0,0.064-0.011c0.162,0.087,0.444,0.108,0.552,0.141c0.012-0.021,0.023-0.044,0.044-0.054c0,0,0,0-0.012-0.011
		c0-0.012,0.012-0.022,0.023-0.032c0.064-0.499,0.4-1.344,0.964-1.484c0.585,0.141,0.834,1.061,1.006,1.57
		c0.011,0,0.034,0,0.043,0.011c0.185-0.044,0.359-0.076,0.532-0.13c0.011,0,0.033,0.011,0.044,0.011
		c0.118,0.314,0.13,0.531,0.098,0.855c0,0.033,0.011,0.065,0.021,0.109c0,0,0,0.01,0.012,0.021c0.054,0,0.218,0.012,0.26,0.021
		c0.011,0.012,0.032,0.022,0.055,0.033c0,0.021,0,0.054,0.01,0.075c0,0.076,0,0.151,0,0.228c-0.15,0.521-0.553,0.813-1.018,0.91
		C78.15,53.067,77.479,53.101,77.316,52.938L77.316,52.938L77.316,52.938z M77.511,48.367c-0.012-0.011-0.032-0.021-0.054-0.033
		c-0.055-0.086-0.119-0.173-0.175-0.26c-0.27-0.098-0.769-0.141-0.887-0.531c0.302,0.022,0.302,0.326,0.779,0.25
		c0.065-0.032,0.033-0.064,0.033-0.098c-0.184-0.412-0.282-0.845-0.455-1.268c-0.064-0.206-0.175-0.509-0.141-0.736
		c0.205,0.249,0.271,0.455,0.356,0.693c0.132,0.39,0.239,0.813,0.39,1.191c0.012,0.055,0.012,0.076,0.044,0.13
		c0.065,0.011,0.055,0,0.108-0.021c0.26-0.195,0.292-0.368,0.423-0.617c0.108,0.379-0.228,0.736-0.368,0.834
		c-0.021,0.032-0.033,0.064-0.033,0.108c0.012,0.108,0,0.217,0,0.336C77.521,48.346,77.521,48.346,77.511,48.367L77.511,48.367
		L77.511,48.367z M77.521,48.573c-0.043,0.086-0.239,0.173-0.347,0.228c-0.639,0.205-1.148,0.248-1.733-0.163
		c-0.076-0.163-0.151-0.292-0.217-0.455c-0.011-0.021-0.011-0.043-0.011-0.064c0.011-0.021,0.022-0.033,0.044-0.044
		c0.075-0.032,0.216-0.064,0.271-0.119c0,0,0-0.011-0.011-0.011c0,0-0.012-0.011,0-0.021c-0.163-0.39-0.206-0.498-0.228-0.932
		c0.021,0,0.043-0.011,0.064-0.021c0.186,0.032,0.443-0.033,0.575-0.043c0-0.022,0-0.044,0.011-0.065c0,0,0,0-0.011,0
		c0-0.011,0.011-0.022,0.011-0.032c-0.099-0.499-0.034-1.408,0.455-1.712c0.605-0.043,1.137,0.748,1.451,1.181
		c0.011-0.011,0.022-0.011,0.043-0.011c0.163-0.098,0.314-0.173,0.467-0.281c0.009-0.012,0.032,0,0.042,0
		c0.207,0.26,0.282,0.455,0.358,0.779c0.01,0.033,0.033,0.065,0.044,0.098c0.01,0,0.021,0.012,0.032,0.021
		c0.042-0.021,0.206-0.065,0.249-0.065c0.011,0,0.032,0.012,0.054,0.022c0.011,0.011,0.021,0.043,0.045,0.065
		c0.02,0.064,0.041,0.141,0.064,0.206c0.021,0.552-0.271,0.952-0.684,1.18C78.366,48.442,77.729,48.681,77.521,48.573L77.521,48.573
		L77.521,48.573z M76.146,56.772c0.01-0.011,0.032-0.021,0.054-0.032c0.054-0.087,0.097-0.174,0.153-0.271
		c0.27-0.108,0.757-0.173,0.855-0.573c-0.293,0.043-0.282,0.347-0.759,0.281c-0.064-0.021-0.032-0.054-0.043-0.087
		c0.163-0.422,0.249-0.866,0.391-1.3c0.055-0.206,0.152-0.509,0.108-0.736c-0.195,0.26-0.25,0.466-0.326,0.715
		c-0.106,0.401-0.183,0.813-0.324,1.202c-0.01,0.065,0,0.076-0.044,0.142c-0.054,0.011-0.042,0-0.097-0.022
		c-0.271-0.184-0.324-0.347-0.465-0.596c-0.088,0.39,0.281,0.737,0.411,0.824c0.032,0.032,0.043,0.064,0.043,0.107
		c0,0.098,0.011,0.206,0.011,0.325C76.124,56.751,76.136,56.762,76.146,56.772L76.146,56.772L76.146,56.772z"/>
	<path fill-rule="evenodd" clip-rule="evenodd" fill="#636363" d="M178.099,44.161c-0.85-8.765-8.451-15.607-17.218-15.607
		c-8.318,0-15.206,5.59-16.95,13.371c0,0,1.834,1.833,7.782,1.833c5.188,0.178,9.75-3.354,16.458-3.354
		C173.359,40.403,176.087,42.863,178.099,44.161L178.099,44.161L178.099,44.161L178.099,44.161z"/>
	<path fill-rule="evenodd" clip-rule="evenodd" fill="#636363" d="M177.608,49.124c-1.834-1.029-3.938-1.922-7.515-1.922
		c-6.172,0-10.107,3.264-16.815,3.264c-6.082,0-9.525-3.264-9.525-3.264c0.76,8.675,8.184,15.426,17.128,15.426
		C169.155,62.628,176.087,57.039,177.608,49.124L177.608,49.124L177.608,49.124L177.608,49.124z"/>
	<path fill="none" stroke="#636363" stroke-miterlimit="10" d="M115.892,47.621c0.101-0.236,2.423-4.005,4.678-6.091
		s3.803-2.489,4.744-1.816c0.943,0.673-0.033,3.297-2.254,4.744s-4.005,2.894-7.943,1.985c-3.936-0.908-5.754-7.201-6.057-9.119
		s0.101-5.216,2.49-5.519c2.389-0.303,3.501,2.053,3.971,4.913c0.472,2.86,1.354,7.004-2.187,10.97
		c-3.365,3.769-11.657-1.184-12.554-2.12c-0.889-0.93-2.625-5.451,2.39-5.014c5.015,0.438,8.212,5.989,8.649,7.268
		c0.437,1.279,0.303,5.351-1.38,6.36s-4.577,0.941-6.495-0.842c-1.917-1.783,0.404-3.162,1.516-2.994
		c1.11,0.168,4.494,0.396,6.022,4.979c0.303,0.909,0.303,2.39,0.303,2.39s0,4.576-4.239,4.104c-1.885,0-10.635-1.749-14.404-12.248
		c-0.134-0.807-3.633-11.036,8.481-17.767c0.404-0.269,10.365-5.922,22.48-0.269c0.269,0.135,9.018,4.307,9.557,13.729
		c0,0.674,0.537,9.69-8.347,14.536c0,0-4.913,3.028-8.682,1.952c-3.769-1.077-2.558-4.645-2.222-5.586
		c0.337-0.942,2.895-1.683,5.048-1.346c2.154,0.336,1.549,2.287,0.741,2.691c-1.517,0.758-5.048,0.673-5.25-2.827
		c-0.202-3.499,5.654-5.989,6.53-6.123c0.875-0.135,2.759,0.202,3.163,1.278c0.403,1.076-1.146,2.423-3.298,2.624
		c-2.154,0.202-3.665,0.067-5.452-2.019C115.084,49.506,115.892,47.621,115.892,47.621L115.892,47.621z"/>
	<path fill="none" stroke="#636363" stroke-miterlimit="10" d="M39.433,50.918H19.778v54.646h198.688 M182.928,50.918h35.538"/>
	<path fill="#FFFFFF" d="M33.674,86.397V75.702h5.652c-0.008,0.052-0.02,0.097-0.03,0.133c-0.011,0.037-0.021,0.07-0.031,0.102
		c0,0.011-0.003,0.023-0.008,0.039c-0.006,0.016-0.008,0.028-0.008,0.039c-0.01,0.021-0.016,0.037-0.016,0.047
		c0,0.011,0,0.026,0,0.047c0,0.011,0,0.019,0,0.023c0,0.006,0,0.013,0,0.024c0,0.01,0,0.02,0,0.03s0,0.021,0,0.031
		c0,0.042,0,0.081,0,0.117s0.006,0.075,0.016,0.117c0,0.021,0.002,0.041,0.008,0.063c0.005,0.021,0.013,0.042,0.023,0.063
		c0.01,0.03,0.019,0.058,0.023,0.078c0.004,0.021,0.014,0.041,0.022,0.063c-0.155-0.031-0.311-0.058-0.467-0.078
		s-0.322-0.037-0.499-0.048c-0.166-0.01-0.336-0.018-0.508-0.022c-0.172-0.006-0.347-0.009-0.523-0.009c-0.052,0-0.104,0-0.155,0
		c-0.053,0-0.104,0-0.157,0c-0.052,0-0.107,0-0.164,0c-0.058,0-0.112,0-0.164,0c-0.041,0.012-0.08,0.017-0.117,0.017
		c-0.037,0-0.075,0-0.116,0c-0.042,0-0.084,0-0.125,0c-0.042,0-0.078,0-0.109,0c-0.042,0-0.086,0-0.132,0c-0.049,0-0.097,0-0.15,0
		c-0.041,0.011-0.085,0.015-0.132,0.015s-0.091,0-0.133,0c-0.093,0-0.186,0-0.273,0c-0.089,0-0.174,0-0.258,0v3.779h2.343
		l1.468-0.125c-0.01,0.053-0.022,0.096-0.039,0.133c-0.016,0.036-0.028,0.07-0.039,0.101c-0.011,0.042-0.016,0.081-0.016,0.118
		c0,0.036,0,0.075,0,0.117c0,0.02,0,0.041,0,0.062s0,0.043,0,0.063c0,0.03,0.002,0.057,0.007,0.077
		c0.006,0.021,0.008,0.042,0.008,0.063c0.011,0.042,0.023,0.086,0.039,0.133c0.017,0.047,0.029,0.097,0.039,0.148l-1.842-0.156
		h-1.969v4.435c0.073,0.021,0.152,0.036,0.235,0.046c0.083,0.012,0.171,0.016,0.266,0.016c0.093,0.011,0.191,0.017,0.295,0.017
		c0.105,0,0.209,0,0.313,0c0.083,0,0.167,0,0.25,0s0.171,0,0.266,0c0.052,0,0.099,0,0.14,0s0.088-0.006,0.14-0.017
		c0.042,0,0.087,0,0.133,0c0.047,0,0.091,0,0.134,0c0.207-0.01,0.41-0.021,0.608-0.03c0.197-0.011,0.396-0.021,0.593-0.031
		c0.188-0.021,0.359-0.04,0.516-0.056c0.156-0.015,0.295-0.027,0.42-0.038c-0.008,0.041-0.023,0.085-0.039,0.133
		c-0.015,0.047-0.028,0.096-0.038,0.148c-0.011,0.041-0.016,0.083-0.016,0.124c0,0.042,0,0.083,0,0.126c0,0.041,0,0.083,0,0.124
		c0,0.042,0.005,0.083,0.016,0.125c0.01,0.041,0.023,0.078,0.038,0.109c0.016,0.031,0.03,0.052,0.039,0.063H33.674L33.674,86.397z"
		/>
	<path fill="#FFFFFF" d="M42.368,86.397l1.484-10.82h0.484l4.31,8.244l4.419-8.244h0.5l1.233,10.82
		c-0.063,0-0.126-0.003-0.188-0.008c-0.063-0.005-0.121-0.013-0.173-0.023c-0.052,0-0.104-0.002-0.155-0.008
		c-0.052-0.006-0.105-0.013-0.157-0.023c-0.012,0-0.021,0-0.031,0c-0.01,0-0.022,0-0.031,0c-0.01,0-0.021,0-0.031,0
		c-0.01,0-0.021,0-0.03,0c-0.031,0-0.063,0-0.094,0c-0.031,0-0.063,0.005-0.094,0.016c-0.042,0-0.077,0.002-0.108,0.008
		s-0.063,0.008-0.095,0.008c-0.063,0.011-0.127,0.019-0.195,0.023c-0.066,0.005-0.143,0.008-0.227,0.008l-0.733-8.119l-4.06,7.869
		h-0.251l-3.935-7.744l-0.732,7.994c-0.033,0-0.066-0.003-0.102-0.008c-0.037-0.005-0.076-0.013-0.118-0.023
		s-0.085-0.019-0.133-0.023c-0.047-0.005-0.096-0.008-0.148-0.008c-0.01,0-0.021,0-0.03,0c-0.012,0-0.017,0-0.017,0
		c-0.01,0-0.021,0-0.03,0c-0.011,0-0.022,0-0.032,0c-0.01,0-0.018,0-0.023,0c-0.006,0-0.014,0-0.023,0
		c-0.012,0.011-0.019,0.016-0.023,0.016c-0.006,0-0.014,0-0.024,0c-0.042,0-0.081,0.002-0.117,0.008s-0.071,0.013-0.101,0.024
		c-0.032,0.01-0.063,0.015-0.094,0.015C42.431,86.397,42.399,86.397,42.368,86.397L42.368,86.397z"/>
	<path fill-rule="evenodd" clip-rule="evenodd" fill="#FFFFFF" d="M58.333,75.577h3.936c0.521,0.021,0.977,0.086,1.366,0.195
		s0.711,0.268,0.96,0.477c0.251,0.208,0.438,0.466,0.562,0.772c0.125,0.307,0.189,0.659,0.189,1.054c0,0.011,0,0.021,0,0.031
		c0,0.011,0,0.021,0,0.032c0,0.01,0,0.021,0,0.03c0,0.011,0.004,0.021,0.015,0.031c0,0.011,0,0.021,0,0.031c0,0.011,0,0.021,0,0.032
		c0,0.01,0,0.021,0,0.03c0,0.011,0,0.021,0,0.032c0,0.468-0.078,0.873-0.234,1.218c-0.155,0.343-0.386,0.635-0.687,0.873
		c-0.302,0.229-0.62,0.423-0.952,0.578c-0.334,0.156-0.683,0.276-1.047,0.359c-0.135,0.031-0.268,0.055-0.398,0.07
		c-0.129,0.016-0.258,0.033-0.382,0.055c-0.126,0.01-0.248,0.019-0.367,0.022c-0.12,0.006-0.236,0.009-0.353,0.009
		c-0.115,0-0.226-0.003-0.334-0.009c-0.11-0.004-0.212-0.013-0.305-0.022c-0.104-0.011-0.199-0.023-0.282-0.039
		s-0.155-0.034-0.218-0.055v5.012c-0.063,0-0.123-0.003-0.179-0.008c-0.058-0.005-0.113-0.013-0.165-0.023
		c-0.053-0.011-0.106-0.019-0.164-0.023c-0.057-0.005-0.112-0.008-0.164-0.008c-0.063,0-0.125,0.003-0.188,0.008
		s-0.125,0.013-0.188,0.023s-0.127,0.019-0.194,0.023c-0.068,0.005-0.144,0.008-0.228,0.008V75.577L58.333,75.577z M59.802,80.746
		h1.483c0.375,0.021,0.708-0.028,0.999-0.148s0.541-0.295,0.749-0.523c0.209-0.24,0.373-0.489,0.493-0.749
		c0.12-0.261,0.194-0.536,0.228-0.828c0-0.01,0-0.021,0-0.031c0-0.01,0.004-0.021,0.015-0.031c0-0.01,0-0.021,0-0.031
		s0-0.021,0-0.03c0-0.021,0-0.043,0-0.063s0-0.041,0-0.063c0-0.271-0.042-0.522-0.125-0.757s-0.209-0.455-0.375-0.664
		c-0.166-0.207-0.374-0.364-0.624-0.469c-0.25-0.104-0.541-0.155-0.874-0.155c-0.011,0-0.021,0-0.032,0c-0.01,0-0.021,0-0.03,0
		c-0.012,0-0.021,0-0.032,0c-0.01,0-0.015,0-0.015,0c-0.011,0.011-0.021,0.016-0.031,0.016c-0.011,0-0.021,0-0.031,0
		s-0.023,0-0.031,0c-0.011,0-0.021,0-0.033,0l-1.732-0.031V80.746L59.802,80.746z"/>
	<path fill-rule="evenodd" clip-rule="evenodd" fill="#FFFFFF" d="M68.882,86.397v-10.82h3.811c0.521,0.021,0.975,0.094,1.365,0.219
		c0.391,0.125,0.711,0.308,0.96,0.546c0.251,0.25,0.438,0.529,0.563,0.837c0.125,0.307,0.188,0.643,0.188,1.006
		c0,0.354-0.05,0.675-0.149,0.961c-0.098,0.286-0.253,0.533-0.46,0.741c-0.199,0.209-0.409,0.391-0.632,0.547
		s-0.455,0.281-0.695,0.374c-0.114,0.042-0.226,0.084-0.334,0.126c-0.11,0.041-0.222,0.072-0.338,0.093
		c-0.103,0.031-0.207,0.055-0.311,0.07c-0.104,0.016-0.198,0.028-0.281,0.039l4.186,5.262c-0.042,0-0.081,0-0.118,0
		c-0.035,0-0.075-0.005-0.116-0.015c-0.042,0-0.081-0.003-0.117-0.009s-0.071-0.013-0.102-0.023c-0.041,0-0.084,0-0.126,0
		c-0.041,0-0.077,0-0.108,0c-0.021,0-0.042,0-0.063,0c-0.021,0-0.034-0.005-0.046-0.016c-0.021,0-0.041,0-0.063,0
		c-0.021,0-0.041,0-0.062,0c-0.074,0-0.148,0.003-0.227,0.008s-0.159,0.013-0.242,0.023c-0.073,0.011-0.148,0.019-0.227,0.023
		s-0.159,0.008-0.242,0.008l-4.045-5.168h-0.5v5.168c-0.031,0-0.062,0-0.093,0c-0.03,0-0.063-0.005-0.094-0.015
		c-0.011,0-0.023,0-0.038,0c-0.017,0-0.03-0.006-0.039-0.017c-0.021,0-0.037-0.002-0.049-0.008
		c-0.009-0.006-0.025-0.008-0.046-0.008c-0.031,0-0.062,0-0.093,0c-0.032,0-0.063,0-0.094,0c-0.01,0-0.022,0-0.039,0
		c-0.015,0-0.028-0.005-0.039-0.016c-0.021,0-0.036,0-0.046,0c-0.012,0-0.027,0-0.048,0c-0.063,0-0.124,0.003-0.187,0.008
		c-0.063,0.005-0.126,0.013-0.188,0.023s-0.124,0.019-0.187,0.023S68.944,86.397,68.882,86.397L68.882,86.397z M70.349,80.62
		c0.021,0.021,0.045,0.034,0.07,0.04c0.027,0.005,0.055,0.007,0.086,0.007c0.021,0,0.045,0,0.07,0c0.027,0,0.05,0,0.071,0
		c0.021,0,0.042,0,0.063,0c0.021,0,0.047,0,0.078,0c0.021,0,0.042,0,0.063,0c0.021,0,0.042,0,0.063,0
		c0.458,0,0.861-0.03,1.211-0.093c0.349-0.063,0.637-0.161,0.867-0.297c0.238-0.136,0.439-0.279,0.6-0.43
		c0.162-0.15,0.289-0.31,0.383-0.477c0.073-0.114,0.133-0.231,0.181-0.351c0.045-0.12,0.075-0.231,0.085-0.336
		c0.021-0.114,0.034-0.213,0.04-0.297c0.003-0.083,0.006-0.15,0.006-0.203c0-0.052-0.004-0.109-0.015-0.172
		c-0.01-0.062-0.026-0.135-0.047-0.218c-0.011-0.084-0.036-0.167-0.077-0.251c-0.042-0.083-0.089-0.171-0.142-0.265
		c-0.072-0.136-0.176-0.266-0.313-0.39c-0.134-0.126-0.291-0.24-0.467-0.345c-0.178-0.114-0.392-0.197-0.641-0.249
		c-0.25-0.053-0.542-0.078-0.875-0.078l-1.359-0.031V80.62L70.349,80.62z"/>
	<path fill="#FFFFFF" d="M80.034,86.397V75.702h5.654c-0.01,0.052-0.021,0.097-0.032,0.133c-0.009,0.037-0.02,0.07-0.03,0.102
		c0,0.011-0.003,0.023-0.009,0.039c-0.005,0.016-0.007,0.028-0.007,0.039c-0.011,0.021-0.015,0.037-0.015,0.047
		c0,0.011,0,0.026,0,0.047c0,0.011,0,0.019,0,0.023c0,0.006,0,0.013,0,0.024c0,0.01,0,0.02,0,0.03s0,0.021,0,0.031
		c0,0.042,0,0.081,0,0.117s0.004,0.075,0.015,0.117c0,0.021,0.002,0.041,0.007,0.063c0.006,0.021,0.013,0.042,0.024,0.063
		c0.011,0.03,0.018,0.058,0.024,0.078c0.004,0.021,0.013,0.041,0.022,0.063c-0.157-0.031-0.313-0.058-0.469-0.078
		s-0.323-0.037-0.499-0.048c-0.167-0.01-0.336-0.018-0.507-0.022c-0.173-0.006-0.347-0.009-0.524-0.009c-0.052,0-0.104,0-0.156,0
		s-0.104,0-0.156,0c-0.053,0-0.107,0-0.164,0c-0.058,0-0.112,0-0.165,0c-0.041,0.012-0.079,0.017-0.116,0.017s-0.076,0-0.118,0
		c-0.041,0-0.083,0-0.124,0c-0.042,0-0.079,0-0.108,0c-0.042,0-0.086,0-0.133,0s-0.097,0-0.149,0
		c-0.042,0.011-0.085,0.015-0.133,0.015c-0.047,0-0.091,0-0.133,0c-0.092,0-0.184,0-0.273,0c-0.088,0-0.174,0-0.257,0v3.779h2.343
		l1.467-0.125c-0.011,0.053-0.022,0.096-0.039,0.133c-0.015,0.036-0.029,0.07-0.039,0.101c-0.011,0.042-0.016,0.081-0.016,0.118
		c0,0.036,0,0.075,0,0.117c0,0.02,0,0.041,0,0.062s0,0.043,0,0.063c0,0.03,0.003,0.057,0.007,0.077
		c0.006,0.021,0.009,0.042,0.009,0.063c0.01,0.042,0.024,0.086,0.039,0.133c0.017,0.047,0.028,0.097,0.039,0.148l-1.842-0.156
		h-1.968v4.435c0.073,0.021,0.15,0.036,0.234,0.046c0.083,0.012,0.171,0.016,0.265,0.016c0.094,0.011,0.193,0.017,0.297,0.017
		c0.104,0,0.209,0,0.312,0c0.084,0,0.168,0,0.251,0s0.171,0,0.265,0c0.053,0,0.1,0,0.142,0c0.041,0,0.089-0.006,0.14-0.017
		c0.042,0,0.085,0,0.133,0c0.046,0,0.091,0,0.132,0c0.209-0.01,0.412-0.021,0.609-0.03c0.198-0.011,0.396-0.021,0.593-0.031
		c0.188-0.021,0.359-0.04,0.517-0.056c0.155-0.015,0.296-0.027,0.421-0.038c-0.011,0.041-0.023,0.085-0.039,0.133
		c-0.016,0.047-0.028,0.096-0.04,0.148c-0.009,0.041-0.015,0.083-0.015,0.124c0,0.042,0,0.083,0,0.126c0,0.041,0,0.083,0,0.124
		c0,0.042,0.006,0.083,0.015,0.125c0.012,0.041,0.024,0.078,0.04,0.109s0.028,0.052,0.039,0.063H80.034L80.034,86.397z"/>
	<path fill="#FFFFFF" d="M88.979,78.044c0.063-0.447,0.188-0.835,0.375-1.162c0.188-0.328,0.426-0.597,0.718-0.805
		c0.303-0.208,0.609-0.372,0.921-0.491c0.312-0.12,0.639-0.195,0.983-0.228c0.031,0,0.063,0,0.094,0s0.063,0,0.095,0
		c0.021,0,0.038,0,0.055,0c0.016,0,0.034-0.005,0.054-0.015c0.01,0,0.026,0,0.048,0c0.021,0,0.036,0,0.045,0
		c0.261,0,0.51,0.021,0.75,0.063c0.24,0.041,0.474,0.104,0.704,0.187c0.218,0.073,0.405,0.165,0.563,0.274
		c0.155,0.108,0.28,0.226,0.374,0.351c-0.063,0.063-0.114,0.127-0.156,0.195c-0.042,0.067-0.078,0.144-0.11,0.227
		c-0.031,0.083-0.062,0.179-0.093,0.288c-0.032,0.11-0.063,0.227-0.094,0.352c0,0.011,0,0.019,0,0.023s0,0.008,0,0.008
		c-0.01,0.01-0.016,0.018-0.016,0.023c0,0.005,0,0.013,0,0.023s0,0.019,0,0.023c0,0.006,0,0.014,0,0.023
		c-0.011,0.011-0.016,0.018-0.016,0.023c0,0.005,0,0.013,0,0.023l-0.25-0.031c-0.01-0.021-0.023-0.05-0.038-0.086
		c-0.016-0.036-0.034-0.075-0.055-0.117c-0.021-0.052-0.045-0.102-0.071-0.148c-0.025-0.047-0.054-0.091-0.085-0.132
		c-0.074-0.104-0.164-0.203-0.273-0.297c-0.109-0.095-0.237-0.183-0.383-0.266c-0.135-0.084-0.293-0.148-0.475-0.195
		c-0.183-0.047-0.378-0.07-0.586-0.07c-0.229,0-0.445,0.048-0.649,0.141c-0.202,0.093-0.397,0.234-0.585,0.422
		c-0.187,0.187-0.324,0.39-0.414,0.608c-0.088,0.219-0.132,0.447-0.132,0.688c0,0.021,0,0.044,0,0.07c0,0.025,0,0.049,0,0.069
		c0,0.011,0,0.021,0,0.032c0,0.01,0.005,0.021,0.016,0.03c0,0.011,0,0.021,0,0.031s0,0.021,0,0.031
		c0.021,0.136,0.065,0.273,0.133,0.414c0.067,0.141,0.154,0.284,0.258,0.43c0.114,0.135,0.252,0.263,0.414,0.383
		c0.161,0.119,0.356,0.231,0.586,0.335l1.732,0.703c0.313,0.146,0.583,0.312,0.812,0.499c0.229,0.188,0.412,0.396,0.547,0.625
		c0.146,0.229,0.253,0.465,0.321,0.71c0.066,0.245,0.102,0.492,0.102,0.742c0,0.031,0,0.06,0,0.085c0,0.026,0,0.05,0,0.07
		c0,0.011,0,0.021,0,0.031c0,0.011,0,0.021,0,0.031c-0.012,0.021-0.017,0.037-0.017,0.048c0,0.01,0,0.021,0,0.031
		c-0.041,0.416-0.159,0.811-0.352,1.187c-0.193,0.374-0.461,0.733-0.804,1.076c-0.343,0.345-0.725,0.6-1.147,0.766
		c-0.421,0.166-0.893,0.25-1.413,0.25c-0.01,0-0.019,0-0.022,0c-0.006,0-0.009,0-0.009,0c-0.01,0-0.019,0-0.024,0
		c-0.004,0-0.012,0-0.023,0s-0.021,0-0.031,0s-0.021,0-0.031,0c-0.021,0-0.041,0-0.063,0c-0.021,0-0.041,0-0.062,0
		c-0.021-0.011-0.042-0.016-0.063-0.016c-0.021,0-0.042,0-0.063,0s-0.042,0-0.063,0c-0.021,0-0.041-0.006-0.063-0.016
		c-0.031,0-0.057-0.003-0.078-0.008c-0.021-0.006-0.042-0.008-0.062-0.008c-0.198-0.031-0.394-0.076-0.586-0.133
		c-0.192-0.058-0.383-0.122-0.57-0.195c-0.188-0.083-0.352-0.169-0.493-0.258c-0.139-0.088-0.267-0.18-0.381-0.272
		c0,0-0.002,0-0.008,0c-0.005,0-0.007-0.006-0.007-0.016c-0.012,0-0.017,0-0.017,0s0-0.006,0-0.016
		c-0.011,0-0.017-0.003-0.017-0.009c0-0.005,0-0.007,0-0.007c0.042-0.104,0.079-0.203,0.11-0.298
		c0.031-0.093,0.052-0.176,0.063-0.249c0.01-0.041,0.019-0.081,0.023-0.117s0.007-0.075,0.007-0.117
		c0.011-0.031,0.018-0.064,0.023-0.102c0.006-0.035,0.01-0.075,0.01-0.116c0-0.021,0-0.039,0-0.055c0-0.017,0.004-0.034,0.015-0.055
		c0-0.021,0-0.042,0-0.063c0-0.021,0-0.042,0-0.063c0-0.041,0-0.083,0-0.124c0-0.043,0-0.084,0-0.126l0.249-0.031
		c0.271,0.417,0.523,0.745,0.759,0.984c0.233,0.239,0.45,0.391,0.647,0.453c0.197,0.072,0.382,0.125,0.554,0.156
		c0.172,0.03,0.336,0.046,0.493,0.046c0.343,0,0.643-0.052,0.904-0.156c0.262-0.104,0.479-0.266,0.656-0.483
		c0.178-0.219,0.31-0.448,0.399-0.687c0.089-0.24,0.139-0.489,0.148-0.75c0-0.208-0.028-0.408-0.086-0.602
		c-0.057-0.191-0.144-0.382-0.258-0.569c-0.104-0.187-0.242-0.349-0.414-0.484c-0.171-0.135-0.373-0.244-0.601-0.327l-1.609-0.766
		c-0.458-0.198-0.819-0.411-1.085-0.64c-0.266-0.229-0.439-0.469-0.522-0.719c-0.073-0.25-0.131-0.504-0.172-0.765
		c-0.042-0.261-0.063-0.525-0.063-0.797V78.044L88.979,78.044z"/>
	<path fill-rule="evenodd" clip-rule="evenodd" fill="#FFFFFF" d="M97.688,86.397l4.919-10.944h0.359l4.81,10.944
		c-0.033,0-0.064,0-0.102,0s-0.076,0-0.118,0c-0.041,0-0.08,0-0.116,0c-0.037,0-0.081,0-0.133,0c-0.021,0-0.044,0-0.07,0
		s-0.05-0.005-0.07-0.015c-0.031,0-0.061,0-0.086,0c-0.026,0-0.049,0-0.07,0c-0.031,0-0.06,0-0.086,0
		c-0.025,0-0.05-0.006-0.069-0.017c-0.032,0-0.061,0-0.087,0c-0.027,0-0.05,0-0.07,0c-0.009,0-0.021,0-0.03,0
		c-0.012,0-0.016,0-0.016,0c-0.012,0-0.021,0-0.032,0c-0.01,0-0.021,0-0.03,0c-0.021,0-0.039,0-0.056,0c-0.015,0-0.033,0-0.053,0
		c-0.043,0.011-0.081,0.019-0.117,0.023c-0.038,0.005-0.07,0.008-0.102,0.008c-0.021,0-0.041,0-0.063,0c-0.02,0-0.036,0-0.046,0
		c-0.021,0-0.039,0-0.055,0s-0.034,0-0.055,0l-1.718-4.31h-3.81l-1.593,4.31c-0.01,0-0.026,0-0.047,0c-0.021,0-0.036,0-0.047,0
		c-0.021,0-0.039-0.003-0.055-0.008s-0.033-0.007-0.054-0.007c-0.011,0-0.027,0-0.048,0c-0.021,0-0.035-0.006-0.047-0.017
		c-0.021,0-0.039,0-0.055,0s-0.032,0-0.054,0c-0.021,0-0.041,0-0.063,0c-0.021,0-0.041,0-0.063,0c-0.01,0-0.021,0-0.03,0
		c-0.011,0-0.021,0-0.031,0c-0.011,0.011-0.021,0.017-0.031,0.017s-0.021,0-0.031,0s-0.019,0-0.023,0c-0.006,0-0.013,0-0.024,0
		c-0.01,0.01-0.017,0.015-0.022,0.015c-0.005,0-0.013,0-0.023,0s-0.022,0-0.039,0c-0.017,0-0.033,0-0.056,0
		c-0.009,0-0.025,0-0.046,0c-0.02,0-0.037,0-0.045,0c-0.022,0-0.039,0-0.056,0s-0.033,0-0.055,0c-0.03,0-0.062,0-0.093,0
		C97.75,86.397,97.719,86.397,97.688,86.397L97.688,86.397z M100.89,81.354h3.185l-1.593-3.811L100.89,81.354L100.89,81.354z"/>
	<path fill="#FFFFFF" d="M110.43,78.044c0.063-0.447,0.187-0.835,0.376-1.162c0.187-0.328,0.426-0.597,0.718-0.805
		c0.301-0.208,0.608-0.372,0.921-0.491c0.313-0.12,0.641-0.195,0.984-0.228c0.03,0,0.062,0,0.093,0c0.032,0,0.062,0,0.094,0
		c0.021,0,0.04,0,0.054,0s0.033-0.005,0.055-0.015c0.01,0,0.026,0,0.047,0s0.036,0,0.046,0c0.262,0,0.512,0.021,0.751,0.063
		c0.238,0.041,0.473,0.104,0.702,0.187c0.219,0.073,0.406,0.165,0.563,0.274c0.156,0.108,0.28,0.226,0.375,0.351
		c-0.063,0.063-0.115,0.127-0.156,0.195c-0.042,0.067-0.079,0.144-0.11,0.227s-0.063,0.179-0.094,0.288
		c-0.029,0.11-0.062,0.227-0.093,0.352c0,0.011,0,0.019,0,0.023s0,0.008,0,0.008c-0.011,0.01-0.016,0.018-0.016,0.023
		c0,0.005,0,0.013,0,0.023s0,0.019,0,0.023c0,0.006,0,0.014,0,0.023c-0.012,0.011-0.016,0.018-0.016,0.023c0,0.005,0,0.013,0,0.023
		l-0.25-0.031c-0.01-0.021-0.024-0.05-0.039-0.086c-0.016-0.036-0.033-0.075-0.055-0.117c-0.021-0.052-0.044-0.102-0.069-0.148
		c-0.027-0.047-0.056-0.091-0.087-0.132c-0.072-0.104-0.164-0.203-0.274-0.297c-0.108-0.095-0.236-0.183-0.381-0.266
		c-0.136-0.084-0.295-0.148-0.478-0.195c-0.182-0.047-0.377-0.07-0.585-0.07c-0.229,0-0.444,0.048-0.647,0.141
		s-0.399,0.234-0.586,0.422c-0.188,0.187-0.326,0.39-0.413,0.608c-0.089,0.219-0.133,0.447-0.133,0.688c0,0.021,0,0.044,0,0.07
		c0,0.025,0,0.049,0,0.069c0,0.011,0,0.021,0,0.032c0,0.01,0.004,0.021,0.014,0.03c0,0.011,0,0.021,0,0.031s0,0.021,0,0.031
		c0.021,0.136,0.067,0.273,0.133,0.414c0.068,0.141,0.153,0.284,0.258,0.43c0.115,0.135,0.254,0.263,0.414,0.383
		c0.161,0.119,0.356,0.231,0.585,0.335l1.733,0.703c0.313,0.146,0.583,0.312,0.813,0.499c0.229,0.188,0.411,0.396,0.547,0.625
		c0.144,0.229,0.252,0.465,0.319,0.71c0.068,0.245,0.102,0.492,0.102,0.742c0,0.031,0,0.06,0,0.085c0,0.026,0,0.05,0,0.07
		c0,0.011,0,0.021,0,0.031c0,0.011,0,0.021,0,0.031c-0.011,0.021-0.015,0.037-0.015,0.048c0,0.01,0,0.021,0,0.031
		c-0.042,0.416-0.16,0.811-0.353,1.187c-0.192,0.374-0.459,0.733-0.804,1.076c-0.344,0.345-0.727,0.6-1.149,0.766
		c-0.42,0.166-0.891,0.25-1.412,0.25c-0.011,0-0.019,0-0.023,0c-0.006,0-0.008,0-0.008,0c-0.011,0-0.019,0-0.023,0
		c-0.006,0-0.014,0-0.024,0c-0.01,0-0.021,0-0.03,0c-0.011,0-0.021,0-0.031,0c-0.021,0-0.042,0-0.063,0c-0.021,0-0.042,0-0.063,0
		c-0.021-0.011-0.042-0.016-0.063-0.016c-0.021,0-0.041,0-0.063,0c-0.02,0-0.042,0-0.063,0s-0.041-0.006-0.063-0.016
		c-0.03,0-0.056-0.003-0.078-0.008c-0.02-0.006-0.042-0.008-0.063-0.008c-0.196-0.031-0.393-0.076-0.585-0.133
		c-0.192-0.058-0.382-0.122-0.569-0.195c-0.187-0.083-0.352-0.169-0.491-0.258c-0.141-0.088-0.27-0.18-0.384-0.272
		c0,0-0.002,0-0.008,0s-0.008-0.006-0.008-0.016c-0.011,0-0.015,0-0.015,0s0-0.006,0-0.016c-0.011,0-0.016-0.003-0.016-0.009
		c0-0.005,0-0.007,0-0.007c0.042-0.104,0.077-0.203,0.108-0.298c0.031-0.093,0.052-0.176,0.063-0.249
		c0.011-0.041,0.019-0.081,0.023-0.117c0.006-0.036,0.008-0.075,0.008-0.117c0.011-0.031,0.019-0.064,0.024-0.102
		c0.004-0.035,0.007-0.075,0.007-0.116c0-0.021,0-0.039,0-0.055c0-0.017,0.006-0.034,0.016-0.055c0-0.021,0-0.042,0-0.063
		c0-0.021,0-0.042,0-0.063c0-0.041,0-0.083,0-0.124c0-0.043,0-0.084,0-0.126l0.25-0.031c0.27,0.417,0.523,0.745,0.757,0.984
		c0.234,0.239,0.45,0.391,0.648,0.453c0.199,0.072,0.383,0.125,0.555,0.156c0.172,0.03,0.336,0.046,0.491,0.046
		c0.344,0,0.646-0.052,0.906-0.156c0.26-0.104,0.479-0.266,0.657-0.483c0.175-0.219,0.308-0.448,0.396-0.687
		c0.089-0.24,0.139-0.489,0.148-0.75c0-0.208-0.028-0.408-0.086-0.602c-0.057-0.191-0.144-0.382-0.258-0.569
		c-0.104-0.187-0.241-0.349-0.414-0.484c-0.171-0.135-0.372-0.244-0.601-0.327l-1.608-0.766c-0.459-0.198-0.819-0.411-1.085-0.64
		c-0.266-0.229-0.44-0.469-0.523-0.719c-0.072-0.25-0.13-0.504-0.172-0.765s-0.063-0.525-0.063-0.797V78.044L110.43,78.044z"/>
	<path fill-rule="evenodd" clip-rule="evenodd" fill="#FFFFFF" d="M125.996,75.577h3.937c0.52,0.021,0.974,0.086,1.366,0.195
		c0.39,0.109,0.71,0.268,0.96,0.477c0.25,0.208,0.437,0.466,0.562,0.772c0.126,0.307,0.188,0.659,0.188,1.054
		c0,0.011,0,0.021,0,0.031c0,0.011,0,0.021,0,0.032c0,0.01,0,0.021,0,0.03c0,0.011,0.006,0.021,0.016,0.031c0,0.011,0,0.021,0,0.031
		c0,0.011,0,0.021,0,0.032c0,0.01,0,0.021,0,0.03c0,0.011,0,0.021,0,0.032c0,0.468-0.077,0.873-0.233,1.218
		c-0.157,0.343-0.386,0.635-0.688,0.873c-0.302,0.229-0.619,0.423-0.953,0.578c-0.333,0.156-0.682,0.276-1.045,0.359
		c-0.136,0.031-0.27,0.055-0.398,0.07c-0.132,0.016-0.259,0.033-0.384,0.055c-0.125,0.01-0.248,0.019-0.366,0.022
		c-0.119,0.006-0.237,0.009-0.352,0.009s-0.226-0.003-0.336-0.009c-0.11-0.004-0.211-0.013-0.305-0.022
		c-0.104-0.011-0.197-0.023-0.28-0.039s-0.157-0.034-0.22-0.055v5.012c-0.062,0-0.122-0.003-0.179-0.008
		c-0.058-0.005-0.111-0.013-0.165-0.023c-0.051-0.011-0.105-0.019-0.164-0.023c-0.057-0.005-0.11-0.008-0.162-0.008
		c-0.063,0-0.126,0.003-0.188,0.008s-0.124,0.013-0.187,0.023s-0.129,0.019-0.195,0.023c-0.068,0.005-0.144,0.008-0.228,0.008
		V75.577L125.996,75.577z M127.464,80.746h1.483c0.375,0.021,0.709-0.028,1-0.148c0.292-0.12,0.541-0.295,0.75-0.523
		c0.208-0.24,0.372-0.489,0.492-0.749c0.12-0.261,0.194-0.536,0.226-0.828c0-0.01,0-0.021,0-0.031c0-0.01,0.006-0.021,0.017-0.031
		c0-0.01,0-0.021,0-0.031s0-0.021,0-0.03c0-0.021,0-0.043,0-0.063s0-0.041,0-0.063c0-0.271-0.042-0.522-0.126-0.757
		c-0.083-0.234-0.208-0.455-0.374-0.664c-0.167-0.207-0.375-0.364-0.624-0.469c-0.251-0.104-0.542-0.155-0.875-0.155
		c-0.011,0-0.021,0-0.031,0c-0.011,0-0.021,0-0.031,0c-0.011,0-0.022,0-0.031,0c-0.011,0-0.017,0-0.017,0
		c-0.009,0.011-0.021,0.016-0.03,0.016c-0.011,0-0.021,0-0.031,0s-0.021,0-0.031,0c-0.011,0-0.021,0-0.032,0l-1.733-0.031V80.746
		L127.464,80.746z"/>
	<path fill-rule="evenodd" clip-rule="evenodd" fill="#FFFFFF" d="M135.796,80.995c0-0.041,0-0.086,0-0.132c0-0.048,0-0.092,0-0.133
		c0-0.053,0.002-0.104,0.008-0.156c0.005-0.053,0.013-0.104,0.023-0.157c0.063-0.624,0.234-1.226,0.515-1.803
		c0.281-0.577,0.672-1.132,1.171-1.662c0.49-0.532,1.094-0.93,1.812-1.194c0.719-0.266,1.552-0.399,2.498-0.399
		c0.959,0.032,1.778,0.157,2.459,0.375c0.683,0.22,1.231,0.541,1.648,0.969c0.416,0.416,0.758,0.854,1.022,1.311
		c0.266,0.459,0.454,0.938,0.57,1.438c0.021,0.063,0.036,0.125,0.047,0.187c0.01,0.063,0.021,0.12,0.032,0.172
		c0.009,0.063,0.021,0.125,0.029,0.188c0.012,0.063,0.021,0.125,0.032,0.188c0.021,0.125,0.033,0.248,0.04,0.367
		c0.004,0.119,0.011,0.236,0.021,0.351c0,0.011,0,0.019,0,0.023c0,0.006,0,0.013,0,0.024c0,0.01,0,0.021,0,0.03
		c0,0.011,0,0.016,0,0.016c0,0.011,0,0.021,0,0.031c0,0.011,0,0.021,0,0.031c0,0.011,0,0.019,0,0.023s0,0.014,0,0.023
		c0,0.864-0.147,1.637-0.444,2.319c-0.297,0.682-0.747,1.267-1.351,1.756c-0.605,0.5-1.246,0.869-1.929,1.108
		c-0.682,0.24-1.402,0.359-2.162,0.359c-0.021,0-0.042,0-0.063,0c-0.021,0-0.041,0-0.062,0c-0.021,0-0.044,0-0.07,0s-0.05,0-0.071,0
		c-0.135,0-0.268-0.003-0.397-0.008s-0.264-0.019-0.397-0.039c-0.136-0.011-0.271-0.031-0.406-0.063
		c-0.136-0.031-0.271-0.063-0.406-0.094c-0.521-0.114-1.021-0.313-1.499-0.594c-0.479-0.28-0.938-0.635-1.374-1.061
		c-0.438-0.428-0.763-0.956-0.977-1.585c-0.214-0.63-0.319-1.356-0.319-2.179V80.995L135.796,80.995z M137.404,80.995
		c0,0.812,0.101,1.53,0.304,2.155c0.203,0.624,0.513,1.155,0.93,1.592c0.416,0.438,0.89,0.766,1.421,0.984
		c0.53,0.219,1.118,0.327,1.764,0.327c0.584,0,1.123-0.108,1.617-0.327c0.493-0.219,0.934-0.547,1.319-0.984
		c0.396-0.437,0.707-0.968,0.937-1.592c0.229-0.625,0.375-1.332,0.438-2.124c0-0.021,0-0.044,0-0.07c0-0.025,0-0.044,0-0.055
		c0-0.021,0-0.041,0-0.062s0-0.043,0-0.063c0-0.677-0.102-1.301-0.305-1.873c-0.203-0.573-0.508-1.088-0.914-1.546
		c-0.415-0.458-0.892-0.801-1.429-1.03c-0.536-0.229-1.131-0.344-1.788-0.344c-0.593,0-1.116,0.094-1.568,0.281
		s-0.836,0.463-1.147,0.828c-0.313,0.374-0.575,0.765-0.789,1.171c-0.213,0.405-0.383,0.827-0.507,1.265
		c-0.031,0.135-0.063,0.265-0.095,0.39s-0.058,0.25-0.078,0.375c-0.021,0.124-0.039,0.25-0.055,0.374
		c-0.016,0.125-0.032,0.245-0.054,0.359V80.995L137.404,80.995z"/>
	<path fill="#FFFFFF" d="M151.119,86.397v-10.82c0.042,0.031,0.088,0.055,0.14,0.071c0.052,0.015,0.108,0.028,0.172,0.038
		c0.062,0.011,0.125,0.016,0.187,0.016c0.064,0,0.131,0,0.204,0c0.063,0,0.125,0,0.187,0c0.063,0,0.125-0.005,0.188-0.016
		c0.052-0.01,0.102-0.023,0.147-0.038c0.048-0.017,0.087-0.029,0.118-0.04v9.931c0.071,0.021,0.151,0.036,0.234,0.046
		c0.083,0.012,0.171,0.016,0.266,0.016c0.093,0.011,0.191,0.017,0.296,0.017s0.208,0,0.312,0c0.085,0,0.168,0,0.251,0
		s0.172,0,0.266,0c0.052,0,0.099,0,0.141,0s0.088-0.006,0.141-0.017c0.041,0,0.086,0,0.132,0c0.047,0,0.091,0,0.133,0
		c0.209-0.01,0.412-0.021,0.608-0.03c0.198-0.011,0.396-0.021,0.595-0.031c0.187-0.021,0.358-0.04,0.516-0.056
		c0.154-0.015,0.295-0.027,0.42-0.038c-0.009,0.031-0.021,0.063-0.03,0.094c-0.011,0.031-0.016,0.062-0.016,0.093
		c-0.011,0.031-0.017,0.063-0.017,0.095s0,0.057,0,0.077c0,0.031,0,0.063,0,0.094s0,0.058,0,0.079c0,0.03,0.004,0.059,0.01,0.085
		c0.004,0.026,0.012,0.05,0.022,0.07c0,0.011,0,0.023,0,0.039s0.005,0.034,0.017,0.055c0,0.011,0,0.023,0,0.039s0,0.029,0,0.039
		c0,0.011,0,0.021,0,0.031c0,0.011,0.005,0.021,0.014,0.031c0,0.011,0,0.019,0,0.023s0,0.008,0,0.008H151.119L151.119,86.397z"/>
	<path fill-rule="evenodd" clip-rule="evenodd" fill="#FFFFFF" d="M159.328,86.397l4.92-10.944h0.357l4.81,10.944
		c-0.031,0-0.064,0-0.101,0s-0.076,0-0.117,0c-0.042,0-0.082,0-0.118,0c-0.037,0-0.079,0-0.132,0c-0.021,0-0.045,0-0.07,0
		c-0.026,0-0.049-0.005-0.07-0.015c-0.031,0-0.06,0-0.086,0c-0.025,0-0.05,0-0.07,0c-0.03,0-0.061,0-0.086,0s-0.05-0.006-0.07-0.017
		c-0.031,0-0.06,0-0.086,0s-0.049,0-0.069,0c-0.011,0-0.021,0-0.031,0c-0.011,0-0.017,0-0.017,0c-0.011,0-0.021,0-0.031,0
		s-0.021,0-0.031,0c-0.021,0-0.038,0-0.054,0c-0.017,0-0.035,0-0.056,0c-0.042,0.011-0.081,0.019-0.116,0.023
		c-0.036,0.005-0.071,0.008-0.102,0.008c-0.021,0-0.042,0-0.063,0c-0.021,0-0.036,0-0.048,0c-0.021,0-0.038,0-0.054,0
		s-0.034,0-0.055,0l-1.718-4.31h-3.81l-1.593,4.31c-0.011,0-0.026,0-0.048,0c-0.021,0-0.037,0-0.046,0
		c-0.021,0-0.039-0.003-0.056-0.008c-0.015-0.005-0.033-0.007-0.054-0.007c-0.011,0-0.026,0-0.048,0
		c-0.021,0-0.037-0.006-0.046-0.017c-0.021,0-0.039,0-0.056,0c-0.015,0-0.033,0-0.054,0c-0.021,0-0.042,0-0.063,0
		c-0.021,0-0.042,0-0.063,0c-0.01,0-0.021,0-0.03,0c-0.012,0-0.021,0-0.032,0c-0.01,0.011-0.021,0.017-0.03,0.017
		c-0.011,0-0.021,0-0.032,0c-0.009,0-0.018,0-0.023,0c-0.004,0-0.012,0-0.022,0c-0.011,0.01-0.019,0.015-0.023,0.015
		c-0.006,0-0.014,0-0.022,0c-0.012,0-0.024,0-0.04,0s-0.034,0-0.055,0c-0.011,0-0.025,0-0.047,0c-0.021,0-0.036,0-0.047,0
		c-0.021,0-0.039,0-0.055,0s-0.034,0-0.055,0c-0.031,0-0.063,0-0.094,0S159.359,86.397,159.328,86.397L159.328,86.397z
		 M162.529,81.354h3.186l-1.593-3.811L162.529,81.354L162.529,81.354z"/>
	<path fill-rule="evenodd" clip-rule="evenodd" fill="#FFFFFF" d="M172.569,86.397v-10.82h3.811
		c0.521,0.021,0.977,0.094,1.367,0.219s0.709,0.308,0.96,0.546c0.25,0.25,0.438,0.529,0.562,0.837
		c0.125,0.307,0.188,0.643,0.188,1.006c0,0.354-0.05,0.675-0.147,0.961c-0.1,0.286-0.253,0.533-0.461,0.741
		c-0.198,0.209-0.408,0.391-0.633,0.547s-0.456,0.281-0.694,0.374c-0.114,0.042-0.227,0.084-0.336,0.126
		c-0.108,0.041-0.222,0.072-0.335,0.093c-0.104,0.031-0.209,0.055-0.313,0.07s-0.197,0.028-0.281,0.039l4.185,5.262
		c-0.042,0-0.08,0-0.117,0c-0.035,0-0.074-0.005-0.116-0.015c-0.041,0-0.08-0.003-0.117-0.009c-0.036-0.006-0.069-0.013-0.102-0.023
		c-0.042,0-0.084,0-0.125,0c-0.042,0-0.079,0-0.108,0c-0.022,0-0.043,0-0.063,0s-0.036-0.005-0.046-0.016c-0.022,0-0.043,0-0.063,0
		c-0.021,0-0.042,0-0.063,0c-0.072,0-0.148,0.003-0.227,0.008c-0.077,0.005-0.158,0.013-0.241,0.023
		c-0.072,0.011-0.148,0.019-0.229,0.023c-0.076,0.005-0.157,0.008-0.24,0.008l-4.044-5.168h-0.5v5.168c-0.031,0-0.063,0-0.094,0
		s-0.063-0.005-0.094-0.015c-0.011,0-0.022,0-0.039,0c-0.016,0-0.028-0.006-0.039-0.017c-0.021,0-0.037-0.002-0.046-0.008
		c-0.012-0.006-0.027-0.008-0.048-0.008c-0.031,0-0.063,0-0.093,0c-0.031,0-0.063,0-0.094,0c-0.011,0-0.024,0-0.039,0
		c-0.017,0-0.029-0.005-0.04-0.016c-0.021,0-0.035,0-0.048,0c-0.01,0-0.024,0-0.045,0c-0.063,0-0.125,0.003-0.188,0.008
		c-0.063,0.005-0.126,0.013-0.188,0.023c-0.063,0.011-0.125,0.019-0.188,0.023C172.694,86.395,172.632,86.397,172.569,86.397
		L172.569,86.397z M174.038,80.62c0.021,0.021,0.044,0.034,0.07,0.04c0.026,0.005,0.055,0.007,0.086,0.007c0.021,0,0.045,0,0.07,0
		c0.026,0,0.049,0,0.07,0c0.021,0,0.041,0,0.063,0c0.021,0,0.047,0,0.078,0c0.021,0,0.041,0,0.063,0c0.021,0,0.041,0,0.063,0
		c0.458,0,0.861-0.03,1.21-0.093c0.348-0.063,0.637-0.161,0.866-0.297c0.24-0.136,0.44-0.279,0.603-0.43
		c0.16-0.15,0.288-0.31,0.382-0.477c0.072-0.114,0.133-0.231,0.179-0.351c0.048-0.12,0.076-0.231,0.087-0.336
		c0.021-0.114,0.033-0.213,0.038-0.297c0.006-0.083,0.009-0.15,0.009-0.203c0-0.052-0.006-0.109-0.016-0.172
		c-0.011-0.062-0.026-0.135-0.048-0.218c-0.01-0.084-0.035-0.167-0.077-0.251c-0.043-0.083-0.089-0.171-0.141-0.265
		c-0.075-0.136-0.178-0.266-0.313-0.39c-0.136-0.126-0.292-0.24-0.468-0.345c-0.178-0.114-0.392-0.197-0.642-0.249
		c-0.25-0.053-0.54-0.078-0.874-0.078l-1.358-0.031V80.62L174.038,80.62z"/>
</g>
</svg>
