<?xml version="1.0" encoding="utf-8"?>
<!-- Generator: Adobe Illustrator 16.0.0, SVG Export Plug-In . SVG Version: 6.00 Build 0)  -->
<!DOCTYPE svg PUBLIC "-//W3C//DTD SVG 1.1//EN" "http://www.w3.org/Graphics/SVG/1.1/DTD/svg11.dtd">
<svg version="1.1" id="Capa_1" xmlns="http://www.w3.org/2000/svg" xmlns:xlink="http://www.w3.org/1999/xlink" x="0px" y="0px"
	 width="237px" height="132px" viewBox="0 0 237 132" enable-background="new 0 0 237 132" xml:space="preserve">
<g>
	<path fill="#636363" d="M131.796,42.175l1.455,0.751c0.364-1.016,0.989-2.812,1.555-4.542c-0.405-0.94-0.791-1.893-1.173-2.942
		c-0.275,0.887-0.575,1.839-0.863,2.735c-0.376,1.205-0.741,2.347-0.842,2.756c-0.105,0.458-0.505,0.761-0.993,0.761
		c-0.235,0-0.561-0.081-0.971-0.25c-0.238,0.97-0.45,1.667-0.684,2.438c-0.18,0.579-0.392,1.223-0.63,2.091
		c1.062,1.603,2.793,4.182,3.857,5.724c0.013,0,0.034,0.006,0.045,0.011c-0.919-1.336-1.854-2.703-2.446-3.574
		C130.853,45.421,131.199,44.761,131.796,42.175"/>
	<path fill="#636363" d="M95.927,75.994c0.617,0.143,1.258,0.367,1.909,0.658c-0.792-0.725-1.729-1.344-2.7-1.781
		C95.487,75.35,95.927,75.994,95.927,75.994"/>
	<path fill="#636363" d="M126.544,66.063c0.095,0.056,0.185,0.125,0.321,0.214C126.815,66.244,126.681,66.146,126.544,66.063"/>
	<path fill="#636363" d="M103.623,48.746l5.914-0.084l-1.202-1.444l-5.965,0.097c-0.457,1.095-1.667,2.43-4.121,2.613
		c0.125,0,0.244,0.011,0.371,0.035c0.283,0.369,0.984,1.407,0.984,1.407C101.262,51.636,103.263,50.369,103.623,48.746"/>
	<path fill="#636363" d="M96.849,48.416c-0.577,0.086-1.318,0.325-1.57,0.949l-0.307,0.825L94.94,50.17
		c0.338,0.372,0.768,0.737,1.268,0.972c0.285-0.502,0.955-1.098,1.8-1.195c-0.108,0-0.172,0.019-0.283,0.019l-0.916,0.008
		l0.021-0.923L96.849,48.416z"/>
	<path fill="#636363" d="M139.324,34.926c-0.201-0.401-0.397-0.822-0.529-1.265c-0.497-1.703-0.116-4.042,0.964-5.918
		c-0.006,0-0.006,0-0.006,0c-0.198-0.108-0.375-0.148-0.571-0.148c-0.633,0-1.171,0.558-1.435,1.026
		c-0.736,1.288-0.699,2.316,0.158,5.214c0.551,1.9,1.906,5.241,2.705,7.248l0.186,0.445c0.959,2.376,1.351,3.365,1.92,6.258
		c0.479,2.328-0.395,4.696-1.406,5.906c-1.747,2.094-4.396,2.831-5.975,3.096c0.845,1.837,1.361,3.102,1.596,3.854
		c0.226,0.65,0.6,1.12,1.144,1.403c-0.434-1.139-0.992-2.525-1.439-3.522c0,0,3.884-0.457,6.206-3.247
		c0.87-1.045,1.794-2.781,1.774-4.864c-0.041-4.682-3.761-11.562-4.682-13.934C139.785,36.097,139.555,35.557,139.324,34.926"/>
	<path fill="#636363" d="M100.306,37.081c-0.379-0.488-0.794-1.033-1.258-1.649c-0.471,0.125-1.048,0.177-1.783,0.177
		c-0.684,0-1.634-0.067-2.468-0.212l0.868,1.217C97.235,37.206,98.413,37.351,100.306,37.081"/>
	<path fill="#636363" d="M114.334,26.693c0.28,0.042,0.538,0.056,0.772,0.056c0.397,0,0.721-0.056,1.035-0.147
		c-0.494-0.501-1.114-0.573-1.426-0.573c-0.586,0-1.129,0.221-1.502,0.589h0.008C113.614,26.618,113.995,26.646,114.334,26.693"/>
	<path fill="#636363" d="M143.46,80.463c0.526,0.094,0.82-0.727,0.648-1.38c-0.294-1.128-1.006-2.739-1.049-3.454v-9.428
		c-0.619-0.723-1.461-2.033-1.501-2.081v9.586v0.041v0.035c-0.079,0.746,0.323,1.768,0.551,2.104
		c0.435,0.632,0.392,1.493,0.116,2.017c-0.223,0.419-0.604,0.668-1.014,0.668l-0.108-0.006l-0.085-0.005
		c-0.5-0.085-0.967-0.169-1.393-0.243c-1.435-0.26-2.478-0.447-3.5-0.447c-1.32,0-2.649,0.333-4.613,1.148l-0.405,0.174
		l-0.387-0.238l-0.093-0.047c-0.871-0.551-2.433-1.49-4.32-1.748c0.676,0.898,1.188,1.59,1.188,1.59c2.647,0,4.628,1.363,5.673,2
		C137.481,78.932,139.182,79.689,143.46,80.463"/>
	<path fill="#636363" d="M92.901,33.605l0.199-0.164l0.599-0.479c-0.613-0.631-1.105-0.725-1.455-0.725
		c-0.096,0-0.186,0.019-0.275,0.028c-0.022,0.09-0.04,0.155-0.04,0.155s0.476,0.642,0.855,1.214
		C92.825,33.617,92.856,33.617,92.901,33.605"/>
	<path fill="#636363" d="M112.428,33.181c0,0.007-0.005,0.012,0,0.029c0,0,0.034,0.044,0.096,0.104
		c0.021-0.043,0.032-0.085,0.052-0.134H112.428z"/>
	<path fill="#636363" d="M147.632,41.347c0.73-0.556-1.072-3.507-1.033-4.104c0.043-0.54,0.058-1.035,0.244-1.618
		c0.193-0.641,0.498-1.588,0.693-2.57c0.342-1.906-0.486-4.26-1.874-5.896c0.387,1.023,0.524,2.198,0.397,3.427
		c-0.117,0.867-0.371,1.66-0.58,2.299c-0.056,0.154-0.108,0.298-0.157,0.446c-0.157,0.51-0.29,0.948-0.333,1.403
		c0.016,0.221,0.308,0.856,0.501,1.276c0.608,1.342,1.247,2.725,0.241,3.497c-0.131,0.091-0.353,0.213-0.673,0.213
		c-0.186,0-0.424-0.052-0.636-0.14c0.559,0.464,1.067,0.813,1.355,1C145.778,40.58,147.313,41.584,147.632,41.347"/>
	<path fill="#636363" d="M133.305,27.17c-0.313-0.602-0.654-1.161-0.987-1.695c0.313,0.64,0.617,1.273,0.913,1.896
		C133.251,27.298,133.278,27.242,133.305,27.17"/>
	<path fill="#636363" d="M123.046,63.578c0,0,2.563,1.874,3.842,2.714c2.043,1.337,2.965,1.943,4.971,2.958
		c0.266-0.118,0.563-0.188,0.843-0.229c0.013-0.246-0.051-0.646-0.28-0.974c-0.238-0.355-0.625-0.541-1.154-0.541
		c-0.209,0-0.43,0.032-0.668,0.088l-0.053,0.014l-0.068,0.008l-0.641,0.047l-0.281,0.02l-0.228-0.131
		c-0.127-0.082-3.298-1.85-5.739-3.64c-0.572-0.418-1.142-0.842-1.636-1.207c-0.313-0.23-0.617-0.468-0.879-0.65
		c-4.638,4.287-10.167,10-10.582,11.006c-0.49,1.162-0.22,1.795-0.019,2.258c0.313,0.729,0.271,1.578-0.079,2.107
		c-0.222,0.355-0.604,0.561-1.001,0.561c-0.132,0-0.254-0.021-0.386-0.061c-0.548-0.188-3.426-1.094-6.2-1.094
		c-1.361,0-2.43,0.23-3.152,0.676l-0.178,0.127c0.617,0.434,1.172,0.967,1.662,1.615c2.483-1.629,8.103-0.143,10.192,0.545
		c0.571,0.24,1.048-0.19,1.006-0.996c-0.053-0.898-0.95-2.188-0.45-3.668C112.77,72.488,119.427,67.017,123.046,63.578"/>
	<path fill="#636363" d="M91.054,31.523c0.291-0.065,0.672-0.149,1.069-0.164c0.04,0,0.071-0.007,0.122-0.007
		c0.783,0,1.736,0.323,2.705,1.759l-0.54,0.429l-0.751,0.587c0.222,0.166,0.813,0.319,1.561,0.429
		c0.642,0.097,1.361,0.166,2.045,0.166c0.879,0,1.683-0.108,2.107-0.357c0,0,0.895,1.192,1.932,2.548
		c1.346,1.739,2.906,3.749,3.187,3.893c0.278,0.149-1.884,0.267-4.286,0.442c-2.062,0.035-3.997,0.061-5.53,0.1
		c-1.36,0.021-2.351,1.06-2.689,1.951c-0.329,0.888-0.699,2.756-0.543,3.572l0.773-0.248c0.156,0.29,0.294,0.515,0.416,0.725
		c0.582,0.985,0.805,1.31,1.828,1.692c0.57-1.439,2.434-1.573,3.074-1.573c0.151,0,0.223,0.003,0.223,0.003l-0.032,1.596
		c3.632-0.022,3.966-2.639,3.966-2.639l7.068-0.107l1.928,2.327l2.535,3.089c-3.655,3.809-6.21,8.522-8.979,13.567
		c1.329,1.205,0.86,3.672-1.314,3.91c-0.082,0.003-0.158,0.003-0.238,0.003c-1.223,0-2.541-0.874-4.07-0.874
		c-0.271,0-0.541,0.032-0.834,0.093c-2.451,0.537-1.951,2.494-3.879,5.066c0.43,0.102,0.842,0.246,1.277,0.414
		c1.503,0.627,2.96,1.654,4.003,2.84c0.941-0.598,2.26-0.82,3.621-0.82c2.451,0,5.14,0.688,6.48,1.141
		c0.043,0.008,0.074,0.021,0.105,0.021c0.393,0,0.527-0.773,0.236-1.428c-0.236-0.584-0.574-1.482,0.045-2.959
		c0.556-1.326,6.864-7.73,11.336-11.795c0.005,0,0.063,0.039,0.147,0.096c0.374,0.276,1.645,1.225,2.959,2.183
		c2.421,1.776,5.608,3.616,5.608,3.616l0.82-0.069c0.334-0.077,0.633-0.109,0.897-0.098c0.172,0.014,0.331,0.032,0.469,0.063
		c0.069,0.014,0.121,0.043,0.201,0.059c0.122,0.04,0.249,0.098,0.365,0.164c0.093,0.053,0.172,0.12,0.255,0.186
		c0.028,0.004,0.036,0.033,0.068,0.039c0.551,0.508,0.754,1.263,0.754,1.848c0,0.229-0.029,0.438-0.087,0.588
		c-0.085,0.215-0.19,0.396-0.32,0.557c-0.034,0.039-0.079,0.057-0.104,0.1c-0.132,0.111-0.229,0.217-0.373,0.299
		c-0.062,0.029-0.119,0.051-0.173,0.074c-0.143,0.077-0.307,0.135-0.486,0.178c-0.011,0-0.016,0-0.016,0.014
		c-0.223,0.033-0.484,0.05-0.73,0.031c-1.182-0.088-2.473-0.654-4.029,0.268c-1.584,0.879-0.922,3.862-1.87,5.104
		c0.62,0,1.237,0.085,1.822,0.209c1.784,0.416,3.219,1.311,4.01,1.799c4.308-1.822,5.616-1.24,9.998-0.496
		c0.313,0.057,0.526-0.82,0.187-1.4c-0.28-0.482-0.789-1.648-0.709-2.589l-0.006-2.854v-6.585V63.22h-0.016v-0.019
		c-0.876,0.111-1.588,0.066-2.207-0.085c-0.579-0.146-1.064-0.389-1.43-0.717c0-0.011-0.006-0.014-0.006-0.021
		c-0.148-0.127-0.271-0.261-0.376-0.41c-0.008-0.011-0.021-0.019-0.021-0.026c-0.244-0.315-0.402-0.667-0.527-1.034
		c-0.352-1.128-1.382-3.395-2.067-4.853c0,0,2.886-0.078,5.22-1.641c0.514-0.34,1.001-0.757,1.414-1.267
		c0.302-0.351,0.572-0.794,0.791-1.302c0.448-0.99,0.71-2.274,0.488-3.834c-0.355-2.566-1.293-4.73-1.852-6.186
		c-0.762-2.03-2.348-5.529-2.959-7.616c-0.434-1.485-0.73-2.545-0.773-3.453c-0.016-0.219-0.016-0.437,0-0.64v-0.003
		c0.043-0.639,0.229-1.234,0.614-1.906c0.419-0.794,1.303-1.546,2.349-1.472c0.251,0.016,0.543,0.076,0.806,0.219
		c0.938,0.438,0.729,0.693,0.634,0.859c-0.313,0.485-0.556,0.998-0.754,1.532c-0.551,1.403-0.696,2.914-0.355,4.073
		c0.402,1.355,1.346,2.555,2.229,3.415c0.562,0.546,1.097,0.965,1.453,1.194c0,0,1.57,1.016,1.882,0.782
		c0.736-0.557-1.175-3.252-1.105-4.126c0.037-0.556,0.19-1.044,0.381-1.618c0.19-0.653,0.59-1.636,0.704-2.614
		c0.214-1.89-0.376-3.685-1.554-4.898c-0.76-0.781-1.761-1.332-2.941-1.484c-0.782-0.108-3.977-0.596-6.2,2.727
		c-0.204,0.3-0.447,0.806-0.656,1.395c-0.201,0.654-0.35,1.394-0.317,2.105c-1.096-2.616-2.42-5.581-3.881-7.771
		c-0.187-0.237-0.747-0.924-1.306-1.516c-0.455-0.486-0.907-0.917-1.108-0.976c-1.832-0.492-5.438-1.357-6.444-1.413
		c0,0,0.024,0.007,0.024,0.023c-0.024-0.012-0.032-0.016-0.045-0.016c-0.803,0.082-6.788,2.221-6.984,2.487
		c0,0-0.693,0.719-0.693,0.729c-1.414,0.35-4.347,0.805-4.569,1.079c-0.622,0.766-0.185,1.485,0.019,1.799
		c0.074,0.115,0.543,1.774,1.385,1.774h0.207l2.074,0.004c0.512-0.877,1.503-1.358,2.516-1.358c1.117,0,2.229,0.596,2.716,1.902
		c-0.122,0.051-0.225,0.099-0.336,0.148c-0.559,0.238-1.109,0.454-1.983,0.454c-0.234,0-0.492-0.022-0.772-0.056
		c-0.032,0-0.079-0.002-0.111-0.008c-0.328-0.045-0.673-0.07-1.001-0.07c-1,0-1.916,0.197-2.478,0.404
		c-0.35,0.132-0.559,0.254-0.559,0.347c0.032,0.447,2.39,0.592,3.011,0.598c0.698,0.021,1.639,0.072,2.604,0.072
		c0.45,0,0.913-0.011,1.347-0.047c-0.121,0.166-0.256,0.308-0.395,0.433c-0.725,0.641-1.768,0.904-2.53,0.904h-1.993h-1.637
		c0.184,0.771,0.479,1.478,0.916,2.063h1.482c0.665,0.048,0.743,0.217,0.661,0.508c-0.037,0.154-0.109,0.327-0.172,0.527
		c-0.088,0.242-0.199,0.521-0.324,0.806c-0.396,1.004-1.006,2.168-1.85,2.926c-3.675-3.207-8.609-7.215-12.077-9.762
		c-0.673-0.476-2.647-0.867-4.534-0.867c-1.02,0-2.033,0.115-2.765,0.393c-0.607,0.228-0.985,0.722-1.199,1.117l1.035,0.301
		C89.856,29.376,91.054,31.523,91.054,31.523 M118.543,22.135c0.063-0.022,0.141-0.07,0.141-0.07S118.636,22.089,118.543,22.135
		 M132.294,52.554c-0.102-0.022-0.23-0.036-0.329-0.068v0.002c-1.159-1.681-3.214-4.749-4.268-6.355
		c0.744-2.719,1.083-3.377,1.673-5.962c0,0,1.154,0.629,1.547,0.629c0.01,0,0.01,0.002,0.018,0.002c0.029,0,0.058-0.002,0.094-0.01
		v-0.012c0.016-0.006,0.037-0.006,0.037-0.029c0.27-1.149,2.128-6.551,2.461-8.289c0,0,0.281,0.771,0.657,1.892
		c0.328,0.974,0.678,1.857,1.043,2.724c0.55,1.341,1.122,2.603,1.626,3.889c1.154,2.901,1.556,4.139,1.938,6.111
		c0.284,1.542,0.137,2.971-0.472,3.796c-0.312,0.413-0.85,0.937-1.651,1.33c-0.032,0.007-0.053,0.021-0.09,0.03
		c-0.186,0.085-0.393,0.169-0.609,0.234c-0.053,0.018-0.09,0.03-0.144,0.041c-0.11,0.042-0.222,0.065-0.359,0.094
		c-0.069,0.015-0.13,0.028-0.21,0.044c-0.209,0.034-0.426,0.061-0.632,0.078c-0.111,0.004-0.204,0.009-0.315,0.012
		c-0.124,0.01-0.252,0.01-0.395,0.01c-0.206-0.01-0.429-0.021-0.656-0.047h-0.006c-0.152-0.015-0.302-0.033-0.436-0.053
		C132.643,52.621,132.479,52.581,132.294,52.554 M115.313,23.009c-0.143-0.458-0.148-0.874-0.056-1.443
		c0.892-0.138,2.177-0.313,3.011-0.313c0.121,0,0.214,0.033,0.279,0.091c0.281,0.18,0.313,0.642-0.078,0.829
		c-0.699,0.313-2.013,0.764-3.061,1.117C115.361,23.193,115.343,23.102,115.313,23.009"/>
	<path fill="#636363" d="M155.489,95.236c-5.634,0.139-9.358,4.006-9.234,9.607c0.148,5.633,3.712,8.975,9.408,8.84
		c5.762-0.148,9.309-3.902,9.309-9.836C164.972,98.586,161.133,95.094,155.489,95.236 M155.745,111.561
		c-2.951,0-4.753-2.402-4.847-6.664c-0.115-4.638,1.614-7.468,4.765-7.473c3.153,0,4.628,2.936,4.729,7.086
		C160.444,107.052,159.646,111.549,155.745,111.561"/>
	<path fill="#636363" d="M122.736,111.089c0,0-0.053,0.05-0.159,0.099c-0.571,0.262-1.746,0.398-2.928,0.229
		c-3.012-0.413-5.014-3.161-5.014-6.841c0-4.357,3.847-6.719,6.42-6.827c2.57-0.099,4.285,0.439,5.096,0.669l0.664-2.059
		c-1.818-0.848-4.124-1.133-6.133-1.133c-8.255,0-10.961,5.541-10.961,9.283c0,4.84,3.23,9.176,10.111,9.176
		c4.739,0,7.446-1.619,7.446-1.619v-7.432h-4.543V111.089z"/>
	<path fill="#636363" d="M126.146,98.418c0,0-0.036-0.004-0.063-0.018C126.088,98.4,126.128,98.414,126.146,98.418"/>
	<path fill="#636363" d="M125.987,98.369C125.653,98.275,125.822,98.324,125.987,98.369"/>
	<polygon fill="#636363" points="165.445,98.25 171.005,98.25 171.005,112.9 175.64,112.9 175.64,98.25 181.358,98.25 
		181.358,95.872 165.445,95.872 	"/>
	<path fill="#636363" d="M69.884,96.523c-1.24-0.529-2.023-0.651-5.457-0.651h-9.032v17.032h4.854v-6.279h4.58
		c4.226,0,7.768-0.892,7.768-5.808C72.597,99.176,71.432,97.183,69.884,96.523 M63.69,104.698h-3.462V98l3.677-0.021
		c2.113,0,3.777,1.504,3.777,3.357C67.683,103.207,66.052,104.698,63.69,104.698"/>
	<path fill="#636363" d="M102.718,107.549c0,2.322-1.518,3.813-3.627,3.813H99.08c-2.103,0-3.692-1.406-3.692-4V95.872h-4.525
		v10.282c0,2.885,0.705,4.209,1.688,5.193c1.636,1.637,3.443,2.336,6.53,2.336h0.019c3.09,0,4.906-0.818,6.541-2.465
		c0.998-0.982,1.61-2.176,1.61-4.964V95.872h-4.532V107.549z"/>
	<polygon fill="#636363" points="74.608,112.904 87.708,112.904 87.708,110.164 79.212,110.164 79.212,104.633 86.082,104.633 
		86.082,102.563 79.212,102.563 79.212,98.291 87.708,98.291 87.708,95.872 74.608,95.872 	"/>
	<polygon fill="#636363" points="131.199,112.904 144.307,112.904 144.307,110.227 135.804,110.227 135.804,104.695 
		142.681,104.695 142.681,102.628 135.804,102.628 135.804,98.355 144.307,98.355 144.307,95.872 131.199,95.872 	"/>
</g>
</svg>
