<?xml version="1.0" encoding="utf-8"?>
<!-- Generator: Adobe Illustrator 16.0.0, SVG Export Plug-In . SVG Version: 6.00 Build 0)  -->
<!DOCTYPE svg PUBLIC "-//W3C//DTD SVG 1.1//EN" "http://www.w3.org/Graphics/SVG/1.1/DTD/svg11.dtd">
<svg version="1.1" id="Capa_1" xmlns="http://www.w3.org/2000/svg" xmlns:xlink="http://www.w3.org/1999/xlink" x="0px" y="0px"
	 width="237px" height="132px" viewBox="0 0 237 132" enable-background="new 0 0 237 132" xml:space="preserve">
<g>
	<path fill-rule="evenodd" clip-rule="evenodd" fill="#636363" d="M214.324,65.143v-0.877c1.646-0.219,2.304-0.658,3.729-2.304
		c0-0.987,0-2.083,0-3.071c-1.098-1.755-2.084-2.304-3.729-2.413V55.6c0.438,0,0.878,0.109,1.317,0.109
		c4.277,2.084,4.277,6.252,0.656,9.104C215.642,64.923,214.983,65.033,214.324,65.143L214.324,65.143z M214.324,61.194
		c0.659,0.987,1.097,1.536,2.413,1.536c-0.219-0.658-0.219-0.658-1.316-2.194c0.549-0.329,0.549-0.329,0.987-1.096
		c0-1.646-0.878-2.084-2.084-2.084v1.098c0.55,0,0.659,0.109,0.878,0.219c0,0.219,0,0.548,0.109,0.768
		c-0.438,0.219-0.549,0.219-0.987,0.329V61.194z M214.324,55.6v0.877c-0.438,0-0.985,0-1.646,0
		c-1.096,0.548-1.863,1.207-2.303,1.975v-1.207C211.253,56.258,212.679,55.709,214.324,55.6L214.324,55.6z M214.324,57.354
		c-0.659,0-1.536,0.11-2.304,0.11c0,1.755,0,3.62,0,5.374c0.33,0,0.768,0,1.207,0c0-0.768,0-1.426,0-2.084c0.219,0,0.547,0,0.768,0
		c0.111,0.219,0.219,0.33,0.329,0.439v-1.426c-0.218,0-0.55,0-1.097,0c0-0.438,0-0.987,0-1.426c0.547,0.11,0.879,0.11,1.097,0.11
		V57.354L214.324,57.354z M214.324,64.265v0.877c-0.11,0.109-0.218,0.109-0.438,0.219c-1.535-0.438-2.742-1.096-3.51-1.974v-1.316
		c0.549,0.877,1.426,1.646,2.521,2.413C213.446,64.484,213.995,64.375,214.324,64.265L214.324,64.265z M210.376,91.248v-1.865
		c0.439,0,0.768,0.109,1.207,0.109L210.376,91.248z M210.376,57.245v1.207c-0.658,1.206-0.658,2.413,0,3.619v1.316
		C208.62,61.523,208.839,58.891,210.376,57.245L210.376,57.245z M210.376,89.383h-0.549c-1.426-1.316-0.88-4.277-0.88-6.143
		c-0.108-4.059-0.108-8.116-0.108-12.064c0-1.098-0.107-2.193-0.107-3.182c-1.866-2.303-1.866-2.303-6.582-7.788
		c-0.109,0.11-0.33,0.219-0.549,0.329c-0.438,0.549-0.768,0.988-1.205,1.536v5.813c0.768,0.548,1.095,1.426,1.424,2.633
		c0,6.142,0,12.284,0,18.536c0,0-0.109,0.109-0.109,0.22c-0.547,0-0.988-0.11-1.314-0.329v5.813
		c0.656-0.768,1.314-1.646,1.863-2.413c0.986,0.657,0.986,0.657,4.826,4.167c1.096-1.754,2.195-3.51,3.291-5.264V89.383z
		 M172.644,102.217c0.988,0,1.865,0.219,2.193,1.426c-1.205-0.11-1.426-0.33-2.193-0.33V102.217L172.644,102.217z M172.644,104.08
		c2.303-0.328,3.4,2.963,0,3.84v-1.098c1.097-0.329,0.988-1.535,0-1.645V104.08L172.644,104.08z M200.396,62.071v5.813
		c-0.33-0.329-0.768-0.549-1.428-0.658c-0.107,20.621-0.107,20.621,0.111,20.949c0.438,0.33,0.875,0.549,1.316,0.769v5.813
		c-0.549,0.657-1.098,1.315-1.646,2.084c-1.316,0-5.484-3.62-6.361-5.266c0-1.316,0-2.742,0-4.058c0-6.69,0.109-13.272,0.109-19.963
		C195.788,66.239,198.199,64.594,200.396,62.071L200.396,62.071z M172.644,90.809V90.26l0.439,0.109L172.644,90.809L172.644,90.809z
		 M172.644,81.486v-1.537h0.877c0,0.439,0,0.988,0,1.537H172.644L172.644,81.486z M172.644,79.949h0.877l-0.877-0.109V79.949
		L172.644,79.949z M172.644,73.039V62.071c1.865,2.413,2.412,5.265,1.645,8.665C173.74,71.504,173.192,72.271,172.644,73.039
		L172.644,73.039z M186.242,97.171c2.196-1.975,3.622-6.582,4.72-9.214c1.096-5.594-0.549-8.556-4.059-12.723
		c-2.633-2.305-5.045-4.607-7.568-6.802c-0.549-0.877-0.549-1.864-0.109-2.742c2.303-0.548,4.168,0.659,6.471,0.439
		c1.865-0.549,5.924-3.839,4.717-6.252c-1.975,0.657-3.51,1.096-5.705,1.207c-1.863-1.536-1.863-1.536-2.303-1.646
		c-2.083,0.658-3.619,2.413-4.936,4.059c-5.264,10.53,3.512,16.013,10.969,22.375c0.549,1.316,0.439,2.522,0,3.839
		c-6.361-2.413-12.616-0.22-12.616,7.239c0.442-0.109,0.442-0.109,1.538-1.207C181.528,93.332,182.626,94.647,186.242,97.171z
		 M172.315,107.92c-2.414-0.769-2.414-3.4-1.207-5.375c0.439-0.109,0.988-0.219,1.535-0.328v1.096c-0.11,0-0.328,0-0.438,0
		c-0.33,0.439-0.55,0.439-0.33,1.098c0.221-0.11,0.549-0.22,0.768-0.33v1.098c-0.219,0-0.438,0.109-0.768,0.219
		c0,0.439,0,0.878,0,1.316c0.109,0.109,0.221,0.109,0.439,0.219c0.109,0,0.218,0,0.328-0.109v1.098
		C172.533,107.92,172.425,107.92,172.315,107.92L172.315,107.92z M172.644,62.071v10.968c-1.535,2.195-3.071,4.389-4.605,6.582
		v-3.51c1.314-2.414,1.645-4.388,0-6.801v-7.678c0.656-0.439,1.314-0.987,1.973-1.536c0.219,0,0.33,0,0.551,0
		C171.329,60.755,172.097,61.413,172.644,62.071L172.644,62.071z M172.644,79.84v0.109c-3.291-0.109-4.387-0.109-4.605-0.219v-0.109
		C169.572,79.73,171.108,79.84,172.644,79.84L172.644,79.84z M172.644,79.949c-3.291-0.109-4.387-0.109-4.605-0.219v1.865
		c1.534-0.109,3.07-0.109,4.605-0.109V79.949L172.644,79.949z M172.644,90.26v0.549c-1.535,1.756-3.071,3.4-4.605,5.155v-7.349
		C169.242,89.712,170.669,89.932,172.644,90.26L172.644,90.26z M168.038,107.371v-4.826c0.877,0.658,1.204,2.304,0.768,4.168
		C168.585,107.043,168.257,107.262,168.038,107.371z M168.038,61.633v7.678c-0.33-0.439-0.658-0.878-1.098-1.316
		c0,3.291,0,6.691,0,10.091c0.439-0.768,0.768-1.315,1.098-1.974v3.51l0,0c-0.111,0.109-0.111,0.109,0,0.109v1.865h-1.207
		c0,1.974,0,3.838,0.109,5.813c0.33,0.549,0.658,0.878,1.098,1.207v7.349l-0.549,0.659c-0.219,0.109-0.439,0.109-0.768,0.109V62.62
		C167.158,62.291,167.599,61.961,168.038,61.633L168.038,61.633z M168.038,79.621L168.038,79.621c-0.111,0.109-0.111,0.109,0,0.109
		V79.621L168.038,79.621z M168.038,102.545v4.826c-0.439,0.22-0.768,0.33-1.316,0.439v-1.098c0.658,0,1.096-0.22,0.877-0.987
		c-0.328,0-0.549,0.11-0.877,0.11v-0.878c1.316-0.329,0.986-1.646,0-1.755v-0.986C167.271,102.217,167.708,102.326,168.038,102.545z
		 M166.722,62.62v34.113c-2.414,0.219-4.607-1.975-5.924-4.059V66.569C162.772,65.361,164.856,64.046,166.722,62.62L166.722,62.62z
		 M166.722,102.217v0.986c-0.219,0-0.439,0.109-0.768,0.329c0,0.768,0,0.878,0.328,1.426c0.221,0,0.33,0,0.439,0v0.878
		c-1.865,0-2.195-0.768-1.865-2.962C165.515,102.436,166.173,102.217,166.722,102.217L166.722,102.217z M166.722,106.713v1.098
		c-0.219,0-0.549,0-0.986,0c-0.661-0.329-0.988-0.768-1.1-1.427C164.968,106.384,165.954,106.713,166.722,106.713L166.722,106.713z
		 M160.798,107.701v-3.072c0.219-0.329,0.438-0.768,0.658-1.206h-0.658v-1.097c0.768,0,1.646-0.109,2.414-0.109
		c0,1.426-1.865,3.838-2.304,5.484H160.798L160.798,107.701z M160.798,65.252c0.438-0.658,0.768-1.206,0.768-1.535
		c-0.219-0.33-0.549-0.658-0.768-0.987V65.252z M160.798,62.729v2.522c-0.33,0.329-0.549,0.659-0.877,0.987v-4.278
		C160.249,62.181,160.468,62.51,160.798,62.729L160.798,62.729z M160.798,66.569v26.105c-0.33-0.439-0.656-0.878-0.877-1.316V75.234
		c0-2.743,0-5.484,0.109-8.228C160.249,66.897,160.468,66.788,160.798,66.569L160.798,66.569z M160.798,102.326v1.097
		c-0.33,0-0.549,0-0.877,0v-1.097C160.249,102.326,160.468,102.326,160.798,102.326L160.798,102.326z M160.798,104.629v3.072h-0.877
		v-1.317C160.142,105.726,160.468,105.178,160.798,104.629L160.798,104.629z M159.921,75.234c0-2.743,0-5.484,0.109-8.228
		c-0.109,0-0.109,0-0.109,0.11V75.234z M159.921,61.961v4.278c-1.207,1.316-2.852,2.743-3.291,2.853
		c-1.207-1.098-2.193-1.865-3.729-2.304c0,8.336-0.109,16.782-0.109,25.228c-2.414,1.426-4.938,2.961-7.131,4.496
		c-0.109-8.993-0.109-17.878-0.219-26.872c-0.221-1.536-0.439-2.961-1.207-3.839v-3.29c1.207-1.426,2.521-2.743,3.07-2.852
		c1.646,1.207,3.291,2.303,4.937,3.51c0.987,0,3.181-2.522,3.841-3.181C157.507,59.987,158.822,60.865,159.921,61.961
		L159.921,61.961z M159.921,67.117c-0.109,0.328-0.109,2.961,0,24.131c0-5.375,0-10.75,0-16.014v16.123v-0.109
		c0-5.375,0-10.75,0-16.014V67.117L159.921,67.117z M159.921,102.326v1.097c-0.439,0-0.879-0.11-1.316-0.11
		c0-0.328,0.109-0.657,0.109-0.986C159.153,102.326,159.481,102.326,159.921,102.326L159.921,102.326z M159.921,106.384v1.317h-0.33
		C159.699,107.151,159.812,106.713,159.921,106.384L159.921,106.384z M144.235,107.701v-3.072c0-0.658,0.109-0.658,0.109-0.438
		c1.207,1.755,1.535,3.291,3.729,3.511c0-1.865,0-3.73,0-5.596c-0.438,0-0.877,0-1.207,0c-0.11,1.098-0.11,2.305-0.11,3.511
		c-0.877-1.097-1.535-2.304-2.303-3.399h-0.219v2.412c0-0.658,0.109-0.658,0.109-0.438
		C144.235,104.19,144.235,104.19,144.235,107.701L144.235,107.701L144.235,107.701z M148.074,107.701c0-1.865,0-3.73,0-5.596
		C148.185,102.105,148.185,107.701,148.074,107.701L148.074,107.701z M154.765,107.701c0-1.208,0-2.523,0-3.73
		c-0.547-0.109-0.986-0.109-1.535-0.109c0-0.219,0-0.549,0-0.768c1.207-0.22,1.756-0.768,2.961-0.877c0,1.754,0,3.619,0,5.484
		C155.753,107.701,155.204,107.701,154.765,107.701z M144.235,62.51v3.29c-0.329-0.219-0.77-0.439-1.205-0.658v-1.206
		C143.358,63.498,143.798,62.948,144.235,62.51L144.235,62.51z M144.235,102.217v2.412c-0.109,0.549-0.109,1.426-0.219,3.072h-0.986
		v-5.596C143.358,102.105,143.798,102.105,144.235,102.217L144.235,102.217z M144.235,104.629c-0.109,0.549-0.109,1.426-0.219,3.072
		h0.219V104.629L144.235,104.629z M143.03,35.966v-3.4C143.358,33.663,143.358,34.76,143.03,35.966z M143.03,32.566v3.4
		c-0.439,1.207-1.208,2.413-2.523,3.839c-0.549,0.439-1.099,0.877-1.646,1.316l-0.219,0.768v-4.717
		c0.219,0.549,0.439,1.097,0.658,1.645c3.619-4.058,2.305-6.8-0.658-9.213v-2.193C140.835,29.166,142.372,30.812,143.03,32.566
		L143.03,32.566z M143.03,63.937v1.206c-0.221,0-0.439-0.11-0.551-0.11C142.479,64.813,142.697,64.375,143.03,63.937L143.03,63.937z
		 M143.03,102.105v5.596h-0.221c0-1.865,0-3.73,0-5.596H143.03L143.03,102.105z M138.642,107.701v-1.098
		c0.767,0,1.645,0,2.521,0.109c0,0.219,0,0.658,0,0.988H138.642L138.642,107.701z M138.642,105.287v-1.097h2.084
		c0,0.329,0,0.768,0,1.097H138.642L138.642,105.287z M138.642,103.094v-0.877h2.303c0,0.219,0,0.548,0,0.877H138.642
		L138.642,103.094z M138.642,102.217h2.303c0-0.22,0-0.22-2.303-0.22V102.217L138.642,102.217z M138.642,92.016V90.15
		c0.439,0,0.986,0.109,1.426,0.219C139.628,90.919,139.081,91.467,138.642,92.016L138.642,92.016z M138.642,81.486v-1.537h1.974
		c0,0.439,0,0.988,0,1.537C139.958,81.486,139.3,81.486,138.642,81.486L138.642,81.486z M138.642,79.949h1.974l-1.974-0.109V79.949
		L138.642,79.949z M138.642,74.465V60.974c2.742,2.633,3.619,6.033,2.633,9.762C140.396,72.053,139.519,73.259,138.642,74.465z
		 M138.642,27.411v2.193c-0.77-0.658-1.756-1.206-2.633-1.865v-1.535c0.877,0.329,1.756,0.768,2.523,1.207H138.642L138.642,27.411z
		 M138.642,37.173v4.717c-0.877,2.193-1.645,3.948-2.633,5.594v-3.62c0.108-0.219,0.219-0.438,0.328-0.658c0-0.219,0-0.329,0-0.548
		l-0.328,0.11v-1.646h0.108c0.55-0.33,1.099-0.658,1.647-0.987c-0.328-1.536-0.986-2.743-1.756-3.729v-2.961
		c0.108,0.109,0.219,0.109,0.438,0.219C137.437,34.65,138.093,35.857,138.642,37.173L138.642,37.173z M138.642,60.974v13.491
		c-0.877,1.207-1.756,2.523-2.633,3.73v-4.278c0.108-0.768,0.108-1.535,0-2.303v-10.64c1.207-0.877,1.315-0.877,1.537-0.877
		C137.872,60.317,138.313,60.646,138.642,60.974L138.642,60.974z M138.642,79.84v0.109h-2.633V79.84H138.642L138.642,79.84z
		 M138.642,79.949h-2.633v1.537c0.877,0,1.756,0,2.633,0V79.949L138.642,79.949z M138.642,90.15v1.865
		c-0.877,0.986-1.756,1.864-2.633,2.852v-5.484C136.778,89.712,137.655,89.932,138.642,90.15L138.642,90.15z M138.642,101.997v0.22
		h-2.524c0,1.754,0,3.619,0,5.484h2.524v-1.098h-1.096c-0.109-0.439-0.109-0.878-0.109-1.316h1.205v-1.097h-1.205
		c0-0.329,0-0.768,0-1.097h1.205v-0.877h-2.524c0-0.111,0-0.111,0-0.111L138.642,101.997L138.642,101.997z M136.009,107.701v-5.596
		h0.108c0,0,0,0,0,0.111c0,1.754,0,3.619,0,5.484H136.009z M136.009,26.205v1.535h-0.109l-2.084-0.658v-1.755
		C134.583,25.546,135.24,25.875,136.009,26.205L136.009,26.205z M136.009,33.444v2.961c-0.658-0.659-1.426-1.207-2.193-1.536v-2.084
		C134.474,33.005,135.24,33.224,136.009,33.444L136.009,33.444z M136.009,41.122v1.646c-0.986,0.329-1.645,0.658-2.193,0.768V41.89
		C134.583,41.67,135.24,41.45,136.009,41.122L136.009,41.122z M136.009,43.863v3.62c-0.658,1.097-1.316,2.084-2.193,3.071v-4.826
		C134.692,45.29,135.46,44.741,136.009,43.863L136.009,43.863z M136.009,60.974v10.64c-0.328-1.206-0.986-2.413-2.084-3.729
		c0,3.4,0,6.801,0,10.2c1.098-1.535,1.756-2.851,2.084-4.168v4.278l-0.986,1.315c-0.221,0-0.221,0-0.221,0.438h1.207v1.537
		l-2.084,0.109h-0.109V62.51C134.802,61.852,135.46,61.304,136.009,60.974L136.009,60.974z M136.009,79.84l-0.986-0.109
		c0-0.109,0-0.109,0-0.22c-0.221,0-0.221,0-0.221,0.438h1.207V79.84L136.009,79.84z M136.009,89.383v5.484
		c-0.549,0.658-0.986,1.206-1.535,1.756c-0.219,0.109-0.44,0.109-0.658,0.109V86.97h0.109
		C134.474,88.176,135.132,88.944,136.009,89.383L136.009,89.383z M136.009,102.105v5.596h-0.109c0-1.865,0-3.73,0-5.596H136.009
		L136.009,102.105z M133.815,86.97h0.109c0-1.864,0-3.62,0-5.374h-0.109V86.97z M133.815,25.327v1.755
		c-2.633-0.658-2.633-0.768-2.852-0.877c-2.412-0.33-4.826-0.658-7.129-0.769v-1.974C127.235,23.682,130.634,24.34,133.815,25.327
		L133.815,25.327z M133.815,32.785v2.084c-2.084-0.987-4.717-0.219-6.473,2.852c0,0.987,0.221,3.4,1.865,2.852
		c0.33-1.316,0.33-1.316,0.657-1.755c0.44,0,0.877,0,1.427,0c2.305,3.839-4.387,4.717-5.703,0.768
		C125.589,34.211,129.319,31.908,133.815,32.785L133.815,32.785z M133.815,41.89c-3.4,0.987-6.691,0.768-9.98,0.109v1.536
		c2.633,0.439,5.154,0.768,7.348,0.768c1.096-0.219,1.428-0.329,2.633-0.768V41.89L133.815,41.89z M133.815,45.729v4.826
		c-0.549,0.548-1.096,1.096-1.754,1.754c-0.987,0.33-1.975,0.768-2.854,1.207c-1.314,0.11-2.523,0.22-3.838,0.33
		c0,14.917,0,29.944,0,44.861c-0.221,2.304-0.658,4.059-1.535,5.374v-7.129c0.109-8.007,0.109-32.467,0-40.474v-10.53l0.657,0.109
		C127.235,46.167,131.074,47.044,133.815,45.729L133.815,45.729z M133.815,62.51c-0.986,0.768-2.305,1.755-4.059,2.961
		c-0.986,0.439-1.974,0.987-2.852,1.535c0,8.008,0,16.124,0,24.132c0.658,2.193,4.059,5.703,6.91,5.594V86.97h-0.109
		c0-1.864,0-3.62,0-5.374h0.109V62.51L133.815,62.51z M133.815,81.596h-0.109c0,1.754,0,3.51,0,5.374h0.109V81.596L133.815,81.596z
		 M123.835,96.951c0.109-8.007,0.109-32.467,0-40.474V96.951z M123.835,23.462v1.974c-0.439,0-0.768,0-1.207,0v-1.974
		C123.067,23.462,123.396,23.462,123.835,23.462L123.835,23.462z M123.835,41.999v1.536c-0.439-0.11-0.768-0.219-1.207-0.219V41.78
		C123.067,41.89,123.396,41.999,123.835,41.999L123.835,41.999z M123.835,45.948v10.53c0-1.646,0-2.523,0-2.523
		c-0.439-0.109-0.768-0.109-1.098-0.109c-0.109,0-0.109,0-0.109,1.755v-9.872C123.067,45.729,123.396,45.838,123.835,45.948
		L123.835,45.948z M123.835,56.478v40.474c0,1.535,0,2.522,0,2.522c-0.221,1.316-0.221,1.316-0.877,3.291
		c-0.111,0.22-0.221,0.329-0.33,0.438v2.193c0.439-0.328,0.877-0.768,1.207-1.316v-7.129c0,1.535,0,2.522,0,2.522
		c0-15.246,0-30.382,0-45.519C123.835,53.955,123.835,54.832,123.835,56.478L123.835,56.478z M122.628,72.711l0.109-18.866
		c-0.109,0-0.109,0-0.109,1.755V72.711z M122.628,23.462v1.974c-2.852-0.109-5.594,0-8.336,0.549V24.34
		C117.034,23.682,119.776,23.462,122.628,23.462L122.628,23.462z M122.628,41.78v1.535c-2.742-0.548-5.594-0.987-8.336-1.317v-1.864
		h0.658C117.583,40.683,120.104,41.341,122.628,41.78L122.628,41.78z M122.628,45.729V55.6c0,3.071,0,11.626-0.111,35.319
		c-2.631,1.864-5.373,3.619-8.115,5.593c0-4.936-0.109-9.762-0.109-14.588V55.271c0.328,0.548,0.658,1.206,1.096,1.864
		c5.703-3.181,5.703-3.181,5.814-3.509c-1.646-0.33-4.168-1.097-6.91-1.756v-7.677C117.034,44.522,119.776,45.18,122.628,45.729
		L122.628,45.729z M122.628,55.6c0,3.071,0,11.626-0.111,35.319l0.111-18.208V55.6L122.628,55.6z M122.628,103.203v2.193
		c-1.205,0.987-2.961,1.426-5.264,1.426c-1.428-0.658-2.415-1.535-3.072-2.632v-4.826c0.438-0.768,1.096-1.426,1.975-1.864
		c2.851,0,4.168,0.219,4.496,3.18c-1.975,2.743-3.398,0.549-4.166-1.535c-1.209,0-1.318,3.072-1.318,3.84
		C116.923,106.384,120.544,105.726,122.628,103.203L122.628,103.203z M114.292,92.125c0,4.387,0.109,4.387,0.109,4.387
		c0-4.936-0.109-9.762-0.109-14.588V92.125L114.292,92.125z M114.292,37.173v-1.316c1.975-0.33,3.729-0.987,5.594-2.194
		c0-0.33,0.109-0.768,0.109-1.097c-0.986-1.316-3.18-1.974-5.703-2.303v-1.317c2.742,0.22,5.264,0.878,7.02,2.852
		C122.079,35.747,117.364,36.625,114.292,37.173z M114.292,24.34v1.646c-2.521,0.548-5.045,1.426-7.568,2.742
		c-0.109,0.11-0.109,0.219-0.109,0.33c2.303,0,5.044-0.33,7.678-0.11v1.317c-3.84-0.439-8.445,0.109-10.313,0.768v-2.084
		C106.944,26.643,110.562,25.218,114.292,24.34L114.292,24.34z M114.292,35.857v1.316l-0.439,0.11c-2.633,0-7.129,0.109-9.873-1.646
		v-1.865c1.1,1.536,4.388,1.974,6.254,2.413C111.659,36.076,113.085,35.966,114.292,35.857L114.292,35.857z M114.292,40.135v1.864
		c-3.84-0.329-7.459-0.218-10.313,1.207v-1.645C106.944,40.354,110.452,40.024,114.292,40.135L114.292,40.135z M114.292,44.193
		v7.677c-4.059-0.877-8.336-1.315-10.313,0.659v-7.02c0.332-0.438,0.768-0.768,1.318-0.987
		C108.368,43.754,111.329,43.754,114.292,44.193L114.292,44.193z M114.292,55.271c-1.646-2.633-3.51-3.291-7.24-1.317
		c-1.316,1.974-1.096,5.045,1.865,4.607c0.768-0.439,1.207-1.207,0.768-2.084c-0.549-0.11-1.205-0.11-1.754-0.11
		c0-3.729,7.129-1.865,5.375,2.632c-1.647,1.535-3.182,1.974-5.375,2.084c-0.219-0.219-1.428-0.439-3.072-1.317
		c-0.33-0.329-0.659-0.768-0.879-1.096v2.303c3.072,2.194,6.473,2.194,10.203-0.109c0,7.02,0.109,14.039,0.109,21.059V55.271
		L114.292,55.271z M114.292,81.924v10.201c0-4.387,0-13.382-0.109-31.26C114.183,67.885,114.292,74.904,114.292,81.924
		L114.292,81.924z M114.292,99.364v4.826C113.413,102.655,113.306,100.899,114.292,99.364L114.292,99.364z M103.979,91.027v-1.535
		c0.22,0,0.549,0,0.988-0.109L103.979,91.027L103.979,91.027z M103.979,65.252v-1.315c2.304,0.987,4.279,0.987,6.912,1.206
		C108.698,66.458,106.175,66.239,103.979,65.252z M103.979,28.946v2.084c-0.107,0-0.219,0.109-0.219,0.109
		c-0.438,1.097-0.328,1.974,0.219,2.632v1.865c-0.657-0.329-1.205-0.768-1.645-1.316v-4.607l0.77-0.109
		C103.323,29.385,103.653,29.166,103.979,28.946L103.979,28.946z M103.979,41.561v1.645c-0.547,0.22-1.094,0.549-1.645,0.878v-1.755
		C102.886,42.109,103.433,41.78,103.979,41.561L103.979,41.561z M103.979,45.509v7.02c-1.094,0.987-1.424,2.523-0.875,5.045
		c0.218,0.33,0.549,0.658,0.875,1.097v2.303c-0.547-0.329-1.094-0.768-1.645-1.207V47.154
		C102.774,46.496,103.323,45.948,103.979,45.509L103.979,45.509z M103.979,63.937v1.315c-0.547-0.219-1.094-0.548-1.645-0.877
		v-1.426c0.33,0.22,0.658,0.549,0.988,0.769C103.542,63.826,103.761,63.826,103.979,63.937L103.979,63.937z M103.979,89.492v1.535
		c-0.547,0.879-1.094,1.756-1.645,2.523v-8.008c0.109,0.77,0.109,1.646,0.109,2.414C102.665,89.163,103.104,89.383,103.979,89.492
		L103.979,89.492z M102.335,107.591v-1.427l0.658,1.427H102.335L102.335,107.591z M102.335,85.543
		c0.109,0.77,0.109,1.646,0.109,2.414c0-1.975,0-3.839,0-5.703h-0.109V85.543L102.335,85.543z M102.335,82.254v-5.046
		c0.109,1.755,0.109,3.4,0.109,5.046H102.335z M102.335,29.714v4.607c-0.109-0.219-0.219-0.548-0.328-0.768
		c-0.109-0.768-0.109-1.536-0.109-2.194l-1.977,0.768v-1.755C100.69,30.043,101.567,29.934,102.335,29.714L102.335,29.714z
		 M102.335,42.328v1.755c-0.877,0.658-1.754,1.535-2.414,2.632v-2.304C100.69,43.535,101.458,42.876,102.335,42.328L102.335,42.328z
		 M102.335,47.154v12.613c-0.109-0.219-0.219-0.329-0.438-0.548C99.813,55.38,99.921,50.555,102.335,47.154L102.335,47.154z
		 M102.335,62.948v1.426c-0.877-0.548-1.645-1.207-2.414-1.974v-2.303C100.581,61.194,101.349,62.071,102.335,62.948L102.335,62.948
		z M102.335,77.208v5.046h-0.109c0.109,1.096,0.109,2.193,0.109,3.289v8.008c-0.547,1.097-1.096,2.084-1.754,3.072l-0.66-0.659
		V65.143c0.551,0.768,1.209,1.755,2.195,2.961c0,0.658,0.11,1.427,0.11,2.085c0,4.058,0,8.007,0,12.065
		c0.109,1.096,0.109,2.193,0.109,3.289v-3.289h-0.109c0-4.059,0-8.008,0-12.065C102.335,72.491,102.335,74.904,102.335,77.208
		L102.335,77.208z M102.335,106.164v1.427h-0.768c-0.219-0.329-0.328-0.659-0.438-0.878h-1.209v-1.207c0.111,0,0.332,0,0.551,0
		c0-0.548,0-0.548-0.551-1.535v-1.754c0.221,0,0.551,0,0.879,0C101.239,103.532,101.788,104.849,102.335,106.164L102.335,106.164z
		 M99.921,39.915v-0.329c0.441,0.11,0.879,0.219,1.318,0.329C100.8,39.915,100.362,39.915,99.921,39.915z M99.921,30.372v1.755
		c-0.656,0.22-1.203,0.439-1.754,0.658c-2.961,2.084-4.057,4.278-0.328,6.252c0.658,0.219,1.314,0.439,2.082,0.548v0.329
		c-2.082-0.11-3.947-0.438-5.043-1.646v-5.265C96.083,31.689,97.948,30.92,99.921,30.372L99.921,30.372z M99.921,44.412v2.304
		c-0.768,1.097-1.314,2.304-1.861,3.839c-0.221,3.51,0.219,6.8,1.861,9.542V62.4c-0.547-0.548-1.094-1.097-1.535-1.646
		c-1.863-4.058-2.191-7.787-1.205-12.175C97.948,46.935,98.827,45.509,99.921,44.412L99.921,44.412z M99.921,65.143
		c-1.861-2.304-2.303-2.852-4.275-5.045c-0.109,0-0.219,0-0.33,0c-0.109,0.22-0.328,0.438-0.438,0.658v8.665
		c0,0.11,0.109,0.22,0.219,0.33c0,6.471,0,13.052,0,19.523c-0.109,0-0.219,0-0.219,0v4.168c0.328-0.439,0.658-0.768,1.096-0.987
		c1.207,1.097,2.633,2.304,3.947,3.51V65.143L99.921,65.143z M99.921,102.217v1.754l-0.107-0.219
		c-0.328,0.768-0.549,1.097-0.549,1.864c0.221-0.11,0.439-0.11,0.656-0.11v1.207h-1.314c-0.109,0.219-0.328,0.549-0.439,0.878
		c-0.438,0-0.877,0.11-1.316,0.11c0-1.537,1.428-3.949,2.084-5.484C99.265,102.217,99.595,102.217,99.921,102.217L99.921,102.217z
		 M94.878,107.262v-4.826c0.438,0.329,0.877,0.877,1.205,1.645C96.083,105.945,95.646,106.822,94.878,107.262z M94.878,33.005v5.265
		c-0.33-0.329-0.658-0.768-0.768-1.097v-3.181C94.327,33.663,94.548,33.333,94.878,33.005L94.878,33.005z M94.878,60.755v8.665
		c-0.33-0.438-0.551-0.877-0.768-1.207v-6.58C94.327,61.304,94.548,61.084,94.878,60.755L94.878,60.755z M94.878,89.273v4.168
		c-0.33,0.329-0.551,0.549-0.768,0.877v-5.265C94.327,89.163,94.548,89.273,94.878,89.273L94.878,89.273z M94.878,102.436v4.826
		c-0.33,0.109-0.551,0.22-0.768,0.329v-1.316c0.109-0.22,0.328-0.438,0.438-0.769c0-1.096-0.109-1.754-0.438-2.083v-1.206
		C94.327,102.217,94.548,102.326,94.878,102.436z M94.11,33.992v3.181c-0.33-0.658-0.439-1.316-0.551-2.194
		C93.671,34.65,93.892,34.321,94.11,33.992L94.11,33.992z M94.11,61.633v6.58c-0.219-0.219-0.551-0.438-0.877-0.657V62.62
		C93.452,62.291,93.78,61.961,94.11,61.633L94.11,61.633z M94.11,89.054v5.265c-0.33,0.439-0.658,0.768-0.877,1.207v-6.91
		C93.452,88.834,93.78,88.944,94.11,89.054L94.11,89.054z M94.11,102.217v1.206c-0.219-0.11-0.551-0.22-0.877-0.22v-1.098
		C93.56,102.105,93.78,102.105,94.11,102.217L94.11,102.217z M94.11,106.274v1.316c-0.33,0-0.551,0.11-0.877,0.11v-1.098
		C93.56,106.604,93.78,106.493,94.11,106.274z M93.233,62.62v4.936c-0.221-0.11-0.441-0.22-0.661-0.329c0,7.02,0,13.93,0,20.949
		c0.219,0.22,0.44,0.33,0.661,0.439v6.91c-0.33,0.328-0.551,0.658-0.77,0.986V86.97c0,0.769,0,1.206,0.109,1.206
		c0-7.02,0-13.93,0-20.949c-0.109,0-0.109,0.438-0.109,1.206v-5.155C92.683,63.059,92.903,62.839,93.233,62.62L93.233,62.62z
		 M93.233,102.105v1.098c-0.221,0-0.441,0-0.77-0.109v-1.097C92.683,101.997,93.013,101.997,93.233,102.105L93.233,102.105z
		 M93.233,106.604v1.098c-0.221,0-0.551,0-0.77,0v-0.988C92.683,106.713,93.013,106.713,93.233,106.604z M92.464,63.278v5.155
		c-0.109,3.729-0.109,14.808,0,18.537v9.542c-0.109,0.111-0.219,0.33-0.219,0.439c-1.316,0-4.389-3.291-5.924-4.826v-24.68
		C88.845,66.239,90.71,64.923,92.464,63.278L92.464,63.278z M92.464,101.997v1.097c-0.219,0-0.439,0-0.658,0
		c0,1.206,0,2.412,0,3.619c0.219,0,0.439,0,0.658,0v0.988c-0.658,0-1.316,0-2.084,0c0-1.865,0-3.73,0-5.596
		C91.147,102.105,91.806,101.997,92.464,101.997L92.464,101.997z M86.321,106.713v-1.207c0.221,0,0.439,0,0.658,0
		c-0.109-0.548-0.109-0.548-0.658-1.535v-1.754c0.33,0,0.658,0,0.876,0c0.768,1.754,1.426,3.509,2.196,5.374
		c-0.439,0-0.877,0-1.428,0c-0.109-0.329-0.328-0.659-0.436-0.878H86.321L86.321,106.713z M86.321,63.607h0.549
		c0.219-0.877,0.549-1.646,0.768-2.413h-1.316V63.607L86.321,63.607z M86.321,61.194v-0.109l1.316,0.109H86.321z M86.321,61.084
		v0.109h-0.547v-0.109H86.321L86.321,61.084z M86.321,61.194h-0.547v2.413h0.547V61.194L86.321,61.194z M86.321,67.445v24.68
		c-0.219-0.109-0.329-0.329-0.438-0.438c0-8.007,0-16.015,0-24.021C85.993,67.556,86.212,67.445,86.321,67.445L86.321,67.445z
		 M86.321,102.217v1.754l-0.109-0.219c-0.219,0.548-0.328,0.877-0.438,1.206v-2.741C85.993,102.217,86.212,102.217,86.321,102.217
		L86.321,102.217z M86.321,105.506v1.207h-0.547v-1.097C85.993,105.506,86.212,105.506,86.321,105.506L86.321,105.506z
		 M85.774,90.26c0,0.879,0.109,1.427,0.109,1.427c0-8.007,0-16.015,0-24.021c0,0-0.109,0.548-0.109,1.427V90.26z M85.774,61.084
		v0.109H83.36l-0.109-3.4v-0.109l0.109,3.29c0,0.11,0,0.11,0,0.22l-0.109-3.4v19.744l0.109-13.711
		c0.768-0.109,1.646-0.109,2.414-0.219v-2.413H83.36c0-0.109,0-0.109,0-0.22L85.774,61.084L85.774,61.084z M85.774,69.092V90.26
		C85.774,85.982,85.774,73.369,85.774,69.092L85.774,69.092z M85.774,102.217v2.741c0,0.22,0,0.438,0,0.658l0,0v1.097h-0.659
		c-0.22,0.219-0.33,0.549-0.439,0.878c-0.549,0-0.986,0.11-1.426,0.11c0-1.537,1.535-3.949,2.193-5.484
		C85.554,102.217,85.663,102.217,85.774,102.217z M83.251,57.684v0.109l-0.109-3.181c-0.219,0.109-0.219,0.109-1.975,3.181
		c-0.549,0.659-0.986,1.097-1.535,1.536V93.99c1.205-1.098,2.305-2.084,3.51-3.071l0.109-13.382V57.793l-0.109-3.181L83.251,57.684
		L83.251,57.684z M79.632,107.591v-0.878c0.438-0.109,0.877-0.329,1.316-0.877c0.11-1.975-0.111-2.523-1.316-2.633v-1.098
		c0.877,0,1.754,0.221,2.521,0.769C83.142,106.384,81.937,107.262,79.632,107.591z M79.632,59.329V93.99
		c-0.879,0.768-1.754,1.535-2.633,2.303c-0.109-10.859-0.109-21.607-0.221-32.467l-2.521-0.109v-1.865
		C76.45,61.194,78.097,60.646,79.632,59.329L79.632,59.329z M79.632,102.105v1.098c-0.33-0.109-0.768-0.109-1.316-0.109
		c0,1.206,0,2.412,0,3.619c0.438,0,0.877,0,1.316,0v0.878c-0.879,0.11-1.754,0.11-2.854,0.11c0-1.865,0-3.73,0-5.596
		C77.657,102.105,78.646,101.997,79.632,102.105L79.632,102.105z M74.257,107.371v-1.975c0-0.438,0-1.426,0.109-3.291
		c0.329,0,0.768,0,1.207,0c0,1.865,0,3.73,0,5.596C75.024,107.701,74.587,107.591,74.257,107.371L74.257,107.371z M74.257,105.396
		c0-0.438,0-1.426,0.109-3.291c-0.109,0.439-0.109,0.879-0.109,1.427V105.396L74.257,105.396z M74.257,92.564
		c0.549-0.769,1.098-1.537,1.754-2.195c-0.768-0.219-1.316-0.438-1.754-0.548V92.564z M74.257,61.852v1.865l-0.986-0.11
		c0.219-0.548,0.549-1.207,0.768-1.755H74.257L74.257,61.852z M74.257,89.821c-1.316-0.438-1.865-0.877-2.084-2.741
		c0-6.033,0-12.065,0-18.098c-1.316-3.401-3.947-6.034-6.471-8.666c-0.111,0.109-0.33,0.329-0.549,0.548v21.717
		c0.107,3.291,0.107,6.691,0.107,9.982c1.867,1.315,3.84,2.632,5.705,4.059c1.098-1.317,2.193-2.743,3.291-4.059V89.821
		L74.257,89.821z M74.257,103.532v1.864c-0.111,0.439-0.111,0.439-0.111,0.329c-0.875-1.206-1.645-2.413-2.521-3.509
		c-0.549,0-1.096-0.111-1.645-0.111c0,1.865,0,3.73,0,5.596c0.438,0,0.877,0,1.426,0c0-1.208,0.109-2.414,0.109-3.621
		c1.096,1.536,1.426,2.742,2.742,3.291v-1.975c-0.111,0.439-0.111,0.439-0.111,0.329C74.146,104.958,74.146,104.19,74.257,103.532
		L74.257,103.532z M65.153,107.811v-1.207c0.658,0.328,1.645,0.109,1.975-0.329c0-1.426,0.109-2.852,0.109-4.169
		c0.438,0,0.988,0,1.426,0c0,1.317,0,2.743,0,4.169C68.226,107.591,66.579,108.139,65.153,107.811L65.153,107.811z M65.153,92.454
		v-9.872c0.107,3.291,0.107,6.691,0.107,9.982C65.261,92.564,65.261,92.564,65.153,92.454L65.153,92.454z M68.663,106.274
		c0.109,0,0.109,0,0.219,0c0-1.426,0-2.852,0-4.169c-0.109,0-0.109,0-0.219,0C68.663,103.423,68.663,104.849,68.663,106.274z
		 M65.153,60.865v21.717c0-3.619,0-7.348,0-11.078c-0.439-1.754-0.879-2.633-2.195-3.839c-0.109,7.788-0.219,15.575-0.219,23.362
		c-2.412,1.865-4.826,3.62-7.131,5.376c0-9.214-0.107-18.318-0.107-27.532c-0.439-0.877-0.986-1.754-1.975-2.193v-2.413
		c0.877-1.207,1.756-2.523,2.632-3.73c1.426,0,4.497,2.633,5.813,3.511C63.069,62.948,64.056,61.852,65.153,60.865L65.153,60.865z
		 M65.153,82.582c0-3.619,0-7.348,0-11.078c0,17.33,0,20.402,0,20.95V82.582L65.153,82.582z M65.153,106.604v1.207
		c-0.768-0.22-1.538-0.659-1.865-1.427c0-1.535,0-2.961,0-4.278c0.438,0,0.986,0,1.426,0c0,1.207,0.109,2.633,0.109,3.949
		C64.823,106.274,65.042,106.493,65.153,106.604L65.153,106.604z M53.526,91.357l1.207-1.865c-0.439,0-0.879,0-1.207-0.109V91.357
		L53.526,91.357z M57.694,102.105c0,0,0,0,0,0.111c0,1.754,0,3.619,0,5.484C57.476,107.701,57.476,102.105,57.694,102.105
		L57.694,102.105z M57.694,107.701c0.328,0,0.768,0,1.205,0c0.111-0.77,0.111-1.537,0.221-2.195
		c0.988-0.109,1.975-0.109,2.852-0.109c0-0.328,0-0.768,0-1.097c-0.877,0-1.863-0.109-2.852-0.109c0-0.329,0-0.658,0-0.987
		c1.096,0,2.193-0.109,3.291-0.109c0-0.329,0-0.658,0-0.877c-1.535,0-3.182,0-4.717,0C57.694,103.971,57.694,105.836,57.694,107.701
		L57.694,107.701z M57.694,102.217c1.535,0,3.182,0,4.717,0c-1.535-0.111-3.182-0.111-4.717-0.111
		C57.694,102.105,57.694,102.105,57.694,102.217z M53.526,64.265v2.413c-0.221-0.109-0.659-0.22-0.988-0.22
		c-0.109-0.219-0.109-0.329-0.109-0.439C52.759,65.472,53.196,64.813,53.526,64.265L53.526,64.265z M53.526,89.383v1.975
		c-0.659,1.097-1.098,1.864-1.536,2.522V82.912c0,1.645,0.11,3.181,0.11,4.826C52.21,89.054,52.649,89.383,53.526,89.383
		L53.526,89.383z M51.991,82.912c0,1.645,0.11,3.181,0.11,4.826c0-3.84,0-7.789,0-11.627h-0.11V82.912L51.991,82.912z
		 M51.991,76.111V72.93c0,1.098,0.11,2.085,0.11,3.182H51.991z M51.991,72.93v3.182h-0.109c0,2.303,0.109,4.606,0.109,6.801V93.88
		c-1.207,1.974-1.316,2.084-1.755,2.632c-0.877-0.768-3.947-4.058-4.936-4.058l-0.328,0.438v-3.729h0.107c0-6.251,0-12.613,0-18.755
		h-0.107V60.207h0.437c2.194,2.632,4.497,5.265,6.473,8.117c0,2.522,0,5.155,0,7.788c0,2.303,0.109,4.606,0.109,6.801v-6.801h-0.109
		c0-2.633,0-5.266,0-7.788C51.882,69.859,51.991,71.395,51.991,72.93z M44.972,60.207v10.202H44.86c0,6.142,0,12.504,0,18.755h0.111
		v3.729l-1.537,1.865v-5.813c0.439,0.219,0.877,0.329,1.426,0.219c0-6.251,0-12.613,0-18.755c-0.328-1.207-0.656-2.085-1.426-2.523
		v-5.923C43.985,61.413,44.421,60.865,44.972,60.207L44.972,60.207z M43.435,61.961v5.923c-0.328-0.329-0.768-0.549-1.317-0.658
		c0,2.633,0,5.265,0,8.008c0,4.276,0,8.555,0,12.832c0.44,0.329,0.879,0.658,1.317,0.878v5.813l-1.317,1.865v-9.324
		c0,0.439,0,0.768,0,0.768c0-4.277,0-8.556,0-12.832c0,0,0,0.328,0,0.768V63.498C42.558,62.948,42.997,62.51,43.435,61.961z
		 M42.118,63.498v12.504c-0.109,2.303-0.109,8.993,0,11.297v9.324l-0.218,0.219c-0.219,0-0.328,0-0.438,0.109
		c-1.977-1.755-3.949-3.51-5.924-5.155c0-6.471-0.111-12.942-0.111-19.414c0.111-1.646,0.111-3.181,0.221-4.826
		C38.28,66.458,40.253,65.143,42.118,63.498L42.118,63.498z M18.427,97.061c-1.645-4.936,3.621-7.787,7.348-8.445
		c1.756,0.109,3.512,0.438,5.156,0.986c1.756-4.387-2.742-6.142-5.924-8.335c-5.813-5.595-9.432-11.627-4.166-18.976
		c1.096-0.987,2.412-2.523,3.947-2.852c2.852,2.194,4.826,1.646,8.008,0.439c0.877,4.059-3.619,6.581-7.021,6.252
		c-2.191-0.769-4.827-1.865-4.385,1.646c0.438,0.548,0.877,0.986,1.314,1.535c5.594,4.826,11.408,8.885,11.078,16.782
		c-0.768,3.729-2.74,7.458-4.605,10.749c-1.426,0-2.742-1.316-3.84-2.084C22.267,93.771,20.729,95.086,18.427,97.061z"/>
</g>
</svg>
