<?xml version="1.0" encoding="utf-8"?>
<!-- Generator: Adobe Illustrator 16.0.0, SVG Export Plug-In . SVG Version: 6.00 Build 0)  -->
<!DOCTYPE svg PUBLIC "-//W3C//DTD SVG 1.1//EN" "http://www.w3.org/Graphics/SVG/1.1/DTD/svg11.dtd">
<svg version="1.1" id="Capa_1" xmlns="http://www.w3.org/2000/svg" xmlns:xlink="http://www.w3.org/1999/xlink" x="0px" y="0px"
	 width="205px" height="50px" viewBox="0 0 205 50" enable-background="new 0 0 205 50" xml:space="preserve">
<g>
	<polygon fill="#666666" points="6.632,25.079 11.954,40.487 17.463,25.079 23.299,25.079 23.299,47.851 19.285,47.851 
		19.285,29.279 13.535,45.722 10.164,45.651 4.426,29.294 4.426,47.851 0.608,47.851 0.608,25.079 6.632,25.079 	"/>
	<path fill="#666666" d="M37.191,45.563c-1.07,1.299-1.973,2.768-4.969,2.768c-2.19,0-5.183-0.327-5.183-5.704v-10.26l3.898-0.021
		v9.749c0,2.158,0.587,3.396,2.645,3.396c2.514,0,3.043-2.01,3.429-3.057V32.367h3.851v15.639h-3.67V45.563L37.191,45.563z"/>
	<path fill="#666666" d="M48.393,34.885c1.07-1.3,2.188-2.767,5.183-2.767c2.19,0,5.183,0.327,5.183,5.703v10.26l-3.897,0.021
		v-9.751c0-2.158-0.588-3.395-2.645-3.395c-2.515,0-3.258,2.01-3.643,3.056v10.068h-3.85V32.442h3.669V34.885L48.393,34.885z"/>
	<polygon fill="#666666" points="66.166,47.851 62.349,47.851 62.349,32.414 66.166,32.414 66.166,47.851 	"/>
	<polygon fill="#666666" points="66.166,29.324 62.349,29.324 62.349,25.786 66.166,25.786 66.166,29.324 	"/>
	<path fill="#666666" d="M76.26,45.709c2.734,0,3.07-1.899,3.07-2.996h3.872c-0.01,1.063-0.313,2.037-0.912,2.921
		c-0.598,0.885-1.415,1.572-2.454,2.061c-1.038,0.488-2.185,0.732-3.441,0.732c-2.35,0-4.203-0.713-5.561-2.14
		c-1.356-1.426-2.036-3.396-2.036-5.909v-0.277c0-2.416,0.674-4.346,2.021-5.787c1.348-1.439,3.196-2.159,5.546-2.159
		c5.136,0,6.772,2.994,6.772,5.474h-3.733c-0.023-0.815-0.39-1.555-0.952-2.064c-0.563-0.511-1.305-0.767-2.226-0.767
		c-1.739,0-3.44,1.304-3.44,5.269v1.584C72.787,43.268,73.855,45.709,76.26,45.709L76.26,45.709z"/>
	<path fill="#666666" d="M89.896,34.934c1.455-2.245,3.114-2.688,4.854-2.688c3.519,0,5.304,1.374,5.354,5.464v10.393H96.19V37.806
		c0-1.195-0.315-2.736-3.015-2.736c-1.27,0-2.52,0.561-3.279,2.838v10.195h-3.815V24.919h3.815V34.934L89.896,34.934z"/>
	<path fill="#666666" d="M114.156,35.946h4.303c3.003,0,3.889-1.93,3.889-3.732c0-1.582-0.523-2.177-1.127-2.783
		c-0.604-0.607-1.529-0.909-2.777-0.909h-4.287V35.946L114.156,35.946z M118.172,39.077h-4.016v8.982h-4.081V25.603h8.003
		c6.516,0,8.381,3.02,8.381,6.611c0,3.605-2.403,5.439-4.459,6.01l4.902,9.836h-4.266L118.172,39.077L118.172,39.077z"/>
	<polygon fill="#666666" points="143.607,38.63 134.189,38.63 134.189,44.673 144.701,44.819 144.701,48.127 130.125,47.979 
		130.125,25.594 144.436,25.594 144.436,28.893 134.189,28.893 134.189,35.381 143.607,35.381 143.607,38.63 	"/>
	<polygon fill="#666666" points="200.16,28.937 203.354,25.743 157.898,25.743 157.898,28.937 200.16,28.937 	"/>
	<polygon fill="#666666" points="181.24,1.573 181,1.573 177.807,4.767 181.24,4.767 184.434,4.767 204.393,4.767 204.393,1.573 
		181.24,1.573 	"/>
	<polygon fill="#666666" points="198.628,18.962 195.436,15.769 157.898,15.769 157.803,15.769 157.803,18.962 157.898,18.962 
		198.628,18.962 	"/>
	<polygon fill="#666666" points="190.473,38.624 193.668,35.431 157.898,35.431 157.803,35.431 157.803,38.624 157.898,38.624 
		190.473,38.624 	"/>
	<polygon fill="#666666" points="163.777,30.634 166.971,33.829 204.393,33.829 204.393,30.634 163.777,30.634 	"/>
	<polygon fill="#666666" points="157.898,44.733 157.898,47.927 181.07,47.927 181.132,47.927 181.169,47.927 184.363,44.733 
		157.898,44.733 	"/>
	<polygon fill="#666666" points="173.271,40.13 176.467,43.324 204.393,43.324 204.393,40.13 173.271,40.13 	"/>
	<polygon fill="#666666" points="189.037,9.37 185.844,6.177 157.898,6.177 157.898,9.37 189.037,9.37 	"/>
	<polygon fill="#666666" points="171.601,10.974 168.407,14.167 204.393,14.167 204.393,10.974 171.601,10.974 	"/>
	<polygon fill="#666666" points="161.818,20.756 158.623,23.949 204.393,23.949 204.393,20.756 161.818,20.756 	"/>
</g>
</svg>
