<?xml version="1.0" encoding="utf-8"?>
<!-- Generator: Adobe Illustrator 16.0.0, SVG Export Plug-In . SVG Version: 6.00 Build 0)  -->
<!DOCTYPE svg PUBLIC "-//W3C//DTD SVG 1.1//EN" "http://www.w3.org/Graphics/SVG/1.1/DTD/svg11.dtd">
<svg version="1.1" id="Capa_1" xmlns="http://www.w3.org/2000/svg" xmlns:xlink="http://www.w3.org/1999/xlink" x="0px" y="0px"
	 width="237px" height="132px" viewBox="0 0 237 132" enable-background="new 0 0 237 132" xml:space="preserve">
<g>
	<path fill="#636363" d="M128.472,26.753c-3.295-0.871-6.772-1.327-10.275-1.327c-3.484,0-6.854,0.456-10.059,1.281l10.189,28.121
		L128.472,26.753z"/>
	<path fill="#636363" d="M158.36,65.648c0-5.014-0.859-9.806-2.538-14.241l-19.116,49.88
		C149.526,94.568,158.36,81.123,158.36,65.648"/>
	<path fill="#636363" d="M138.408,30.884l-11.782,32.427h-5.203h-6.174h-5.215L98.208,30.747c-4.373,2.505-8.191,5.81-11.361,9.713
		l16.805,43.557l6.152-15.914h4.736h6.656h4.742l6.154,15.914l16.955-44.076C146.063,36.325,142.446,33.252,138.408,30.884"/>
	<path fill="#636363" d="M118.196,11.979c-29.529,0-53.672,24.085-53.672,53.673c0,29.491,24.143,53.616,53.672,53.616
		c29.555,0,53.617-24.125,53.617-53.616C171.813,36.064,147.751,11.979,118.196,11.979 M118.196,112.407
		c-25.762,0-46.814-21.008-46.814-46.761c0-25.805,21.053-46.847,46.814-46.847c25.756,0,46.813,21.042,46.813,46.847
		C165.009,91.399,143.952,112.407,118.196,112.407"/>
	<path fill="#636363" d="M117.843,76.637l-10.367,26.9l-0.047,0.832c3.432,0.964,7.035,1.447,10.768,1.447
		c3.503,0,6.906-0.438,10.141-1.273l-0.121-1.006L117.843,76.637z"/>
	<path fill="#636363" d="M77.987,65.648c0,15.118,8.436,28.393,20.914,35.2L80.272,52.29C78.778,56.466,77.987,60.943,77.987,65.648
		"/>
</g>
</svg>
