<?xml version="1.0" encoding="utf-8"?>
<!-- Generator: Adobe Illustrator 16.0.0, SVG Export Plug-In . SVG Version: 6.00 Build 0)  -->
<!DOCTYPE svg PUBLIC "-//W3C//DTD SVG 1.1//EN" "http://www.w3.org/Graphics/SVG/1.1/DTD/svg11.dtd">
<svg version="1.1" id="Capa_1" xmlns="http://www.w3.org/2000/svg" xmlns:xlink="http://www.w3.org/1999/xlink" x="0px" y="0px"
	 width="205px" height="50px" viewBox="0 0 205 50" enable-background="new 0 0 205 50" xml:space="preserve">
<g>
	<path fill="#666666" d="M25.146,1.268C12.038,1.268,1.413,11.893,1.413,25s10.625,23.732,23.732,23.732S48.878,38.107,48.878,25
		S38.253,1.268,25.146,1.268z M18.796,37.078h-5.288V21.672h5.288V37.078z M27.79,37.078h-5.289V21.672h5.289V37.078z
		 M36.825,37.078h-5.289V21.672h5.289V37.078z M37.033,17.926H13.3v-4.997h23.733V17.926z"/>
	<g>
		<path fill="#666666" d="M82.487,19.716h-4.97c-0.053-2.353-1.765-3.688-4.062-3.688c-1.977,0-4.273,0.747-4.273,3.101
			c0,5.343,14,1.816,14,10.58c0,5.399-4.65,7.855-9.566,7.855c-5.611,0-10.26-1.975-10.207-8.121H68.7
			c0,2.671,1.443,4.488,4.275,4.488c2.084,0,4.863-0.747,4.863-3.26c0-5.612-13.788-1.816-13.788-10.849
			c0-5.345,4.97-7.429,9.565-7.429C78.479,12.395,82.167,14.746,82.487,19.716z"/>
		<path fill="#666666" d="M102.956,37.084l-2.404-8.016c-0.535-1.764-0.855-3.527-1.229-5.292c-0.27,1.283-0.48,2.568-0.856,3.796
			l-0.374,1.336l-2.243,8.176h-5.933L84.412,20.25h5.665l2.353,8.818l0.32,1.229l0.267,1.176c0.107,0.695,0.214,1.39,0.32,2.084
			c0.268-2.031,0.75-3.954,1.283-5.878l2.084-7.429h5.771l2.19,7.749c0.536,1.817,0.909,3.634,1.177,5.505l0.159-0.963
			c0.214-1.602,0.641-3.151,1.123-4.756l2.084-7.535h5.398l-5.772,16.834H102.956z"/>
		<rect x="117.118" y="20.25" fill="#666666" width="5.022" height="16.834"/>
		<rect x="116.958" y="12.93" fill="#666666" width="5.346" height="4.168"/>
		<path fill="#666666" d="M139.138,24.686h-4.49c-0.107-1.229-1.229-1.869-2.405-1.869c-1.069,0-2.619,0.32-2.565,1.709
			c0.053,1.069,1.229,1.39,2.086,1.603l1.923,0.483c2.939,0.64,6.306,1.869,6.306,5.396c0,4.274-4.383,5.558-7.908,5.558
			c-3.474,0-6.895-1.549-7.162-5.29h4.648c0.16,1.497,1.337,2.243,2.779,2.243c1.283,0,2.939-0.533,2.939-2.082
			c0-3.207-10.048-0.91-10.048-7.43c0-3.953,3.956-5.235,7.269-5.235c3.047,0,6.093,1.229,6.573,4.542L139.138,24.686z"/>
		<path fill="#666666" d="M155.649,24.686h-4.488c-0.107-1.229-1.23-1.869-2.404-1.869c-1.069,0-2.619,0.32-2.566,1.709
			c0.055,1.069,1.23,1.39,2.084,1.603l1.926,0.483c2.939,0.64,6.306,1.869,6.306,5.396c0,4.274-4.385,5.558-7.911,5.558
			c-3.474,0-6.893-1.549-7.16-5.29h4.649c0.161,1.497,1.337,2.243,2.78,2.243c1.283,0,2.937-0.533,2.937-2.082
			c0-3.207-10.046-0.91-10.046-7.43c0-3.953,3.955-5.235,7.268-5.235c3.047,0,6.094,1.229,6.574,4.542L155.649,24.686z"/>
		<path fill="#666666" d="M179.271,25.113c2.993-0.854,5.238-2.671,5.238-5.984c0-4.65-4.328-6.199-8.338-6.199h-9.992v24.154h5.184
			v-9.779h4.062c4.649,0,3.526,6.467,4.274,9.779h5.665C182.798,32.541,185.899,26.396,179.271,25.113z M175.102,23.35h-3.739
			v-6.626h3.793c2.139,0,3.902,0.907,3.902,3.261C179.058,22.388,177.294,23.35,175.102,23.35z"/>
		<path fill="#666666" d="M195.625,34.518c-2.673,0-3.153-2.297-3.153-4.539h11.115c0-5.4-1.923-10.208-8.176-10.208
			c-5.398,0-8.123,4.381-8.123,9.352c0,5.183,3.098,8.442,8.281,8.442c3.529,0,7.162-1.494,7.429-5.45h-4.487
			C198.188,33.716,197.282,34.518,195.625,34.518z M195.303,22.816c2.513,0,2.993,2.084,3.102,4.115h-5.933
			C192.522,25.113,193.06,22.816,195.303,22.816z"/>
	</g>
</g>
</svg>
