<?xml version="1.0" encoding="utf-8"?>
<!-- Generator: Adobe Illustrator 16.0.0, SVG Export Plug-In . SVG Version: 6.00 Build 0)  -->
<!DOCTYPE svg PUBLIC "-//W3C//DTD SVG 1.1//EN" "http://www.w3.org/Graphics/SVG/1.1/DTD/svg11.dtd">
<svg version="1.1" id="Capa_1" xmlns="http://www.w3.org/2000/svg" xmlns:xlink="http://www.w3.org/1999/xlink" x="0px" y="0px"
	 width="237px" height="132px" viewBox="0 0 237 132" enable-background="new 0 0 237 132" xml:space="preserve">
<g>
	<path fill="#636363" d="M74.404,56.63h25.659c0.791,0,1.066,0.365,1.066,1.063v3.763c0,1.126,0.658,1.646,1.644,1.646h14.481
		h14.473c0.986,0,1.648-0.493,1.648-1.646V57.71c0-0.76,0.32-1.081,1.069-1.081h16.099c1.098,0,1.9-0.298,2.465-1.336l7.976-15.595
		c0.174-0.328,0.299-0.532,0.299-0.914c0-1.073-0.915-1.443-1.544-1.443h-25.294c-0.657,0-1.069-0.178-1.069-1.063v-3.76
		c0-1.079-0.595-1.655-1.648-1.655h-28.954c-1.081,0-1.644,0.597-1.644,1.655v3.745c0,0.807-0.374,1.07-1.066,1.07l-16.574,0.008
		c-1.271,0-2.018,0.611-2.389,1.407l-8.077,15.78c-0.104,0.188-0.175,0.431-0.175,0.676C72.849,55.826,73.263,56.63,74.404,56.63
		 M80.767,50.352l3.854-7.537c0.146-0.285,0.391-0.452,0.971-0.452h19.466c0.671,0,1.095-0.268,1.095-1.096v-4.313
		c0-0.778,0.336-1.085,1.068-1.085h20.059c0.721,0,1.069,0.329,1.069,1.096v4.33c0,0.732,0.35,1.069,1.104,1.069h23.034
		c0.731,0,0.978,0.481,0.978,0.858c0,0.151-0.033,0.296-0.106,0.402l-3.841,7.543c-0.25,0.426-0.663,0.433-0.965,0.433h-19.1
		c-0.798,0-1.094,0.36-1.094,1.096v4.336c0,0.71-0.31,1.048-1.08,1.048h-10.023H107.22c-0.668,0-1.076-0.228-1.076-1.062v-4.332
		c0-0.792-0.361-1.085-1.087-1.085H81.634c-0.575,0-0.957-0.349-0.957-0.855C80.677,50.603,80.71,50.465,80.767,50.352"/>
	<path fill="#636363" d="M136.099,34.584h0.349l0.511,0.784h0.272l-0.522-0.806c0.312-0.007,0.557-0.146,0.557-0.503
		c0-0.374-0.328-0.478-0.63-0.478h-0.782v1.787h0.246V34.584z M136.099,33.805h0.476c0.188,0,0.43,0.027,0.43,0.255
		c0,0.167-0.081,0.318-0.43,0.318h-0.476V33.805z"/>
	<path fill="#636363" d="M136.442,36.061c0.879,0,1.589-0.692,1.589-1.575c0-0.887-0.71-1.577-1.589-1.577
		c-0.885,0-1.594,0.69-1.594,1.577C134.849,35.355,135.554,36.061,136.442,36.061 M136.442,33.148c0.744,0,1.318,0.599,1.318,1.324
		c0,0.747-0.574,1.344-1.318,1.344c-0.749,0-1.342-0.597-1.342-1.344C135.101,33.747,135.701,33.148,136.442,33.148"/>
	<polygon fill="#636363" points="59.646,91.25 66.46,91.25 66.46,101.434 71.206,101.434 71.206,78.678 66.46,78.678 66.46,87.792 
		59.646,87.792 59.646,78.678 54.892,78.678 54.892,101.434 59.646,101.434 	"/>
	<polygon fill="#636363" points="186.23,101.434 190.981,101.434 190.981,82.154 197.436,82.154 197.436,78.678 179.783,78.678 
		179.783,82.154 186.23,82.154 	"/>
	<polygon fill="#636363" points="154.704,78.678 149.951,78.678 149.951,101.434 163.538,101.434 163.538,97.962 154.704,97.962 	
		"/>
	<path fill="#636363" d="M97.042,101.446h4.39c1.284,0,2.108-0.665,2.432-1.966l5.611-20.792h-4.188l-4.928,18.97
		c-0.07,0.23-0.248,0.304-0.497,0.304c-0.246,0-0.419-0.099-0.502-0.317l-5.005-18.967h-5.53l5.737,20.759
		C94.835,100.817,95.763,101.446,97.042,101.446"/>
	<path fill="#636363" d="M42.448,101.446l10.629-0.013v-3.472H45.39c-1.313,0-1.734-0.327-1.734-1.745v-12.33
		c0-1.371,0.322-1.732,1.734-1.732h7.688v-3.466H42.462c-2.429,0-3.56,1.248-3.56,3.534v15.661
		C38.902,100.417,40.194,101.446,42.448,101.446"/>
	<path fill="#636363" d="M80.541,82.154h7.801v-3.466H77.604c-2.451,0-3.549,1.214-3.549,3.534v15.661
		c0,2.393,1.173,3.563,3.549,3.563h11.723v-3.484h-8.786c-1.318,0-1.729-0.296-1.729-1.737V91.25h9.432v-3.458h-9.432v-3.905
		C78.812,82.57,79.095,82.154,80.541,82.154"/>
	<path fill="#636363" d="M126.884,88.26v-6.037c0-2.375-1.126-3.534-3.549-3.534h-13.238v22.758h4.748V82.154h5.538
		c1.478,0,1.745,0.416,1.745,1.732l0.005,2.767c0,1.342-0.369,1.745-1.737,1.745h-2.592c-1.012,0-1.581,0.621-1.581,1.599
		c0,0.494,0.249,0.848,0.446,1.199l6.002,10.237h5.883l-6.285-9.616h1.066C125.526,91.817,126.884,90.824,126.884,88.26"/>
	<path fill="#636363" d="M138.317,101.446h5.209c2.27,0,3.548-1.087,3.548-3.563l-0.005-15.661c0-2.32-1.092-3.534-3.543-3.534
		h-10.47c-2.507,0-3.558,1.264-3.558,3.534v15.661c0,2.574,1.387,3.563,3.558,3.563H138.317z M134.251,83.887
		c0-1.193,0.157-1.732,1.736-1.732h4.603c1.24,0,1.737,0.211,1.737,1.732l0.005,12.338c0,1.454-0.447,1.74-1.742,1.74h-2.272h-2.33
		c-1.362,0-1.736-0.38-1.736-1.74V83.887z"/>
	<path fill="#636363" d="M168.013,101.446l11.723-0.013v-3.472h-8.776c-1.329,0-1.745-0.296-1.745-1.745V91.25h9.438v-3.458h-9.43
		v-3.905c0-1.316,0.278-1.732,1.737-1.732h7.785v-3.477l-10.731,0.011c-2.452,0-3.544,1.214-3.544,3.534l-0.008,15.661
		C164.461,100.276,165.626,101.446,168.013,101.446"/>
</g>
</svg>
