<?xml version="1.0" encoding="utf-8"?>
<!-- Generator: Adobe Illustrator 16.0.0, SVG Export Plug-In . SVG Version: 6.00 Build 0)  -->
<!DOCTYPE svg PUBLIC "-//W3C//DTD SVG 1.1//EN" "http://www.w3.org/Graphics/SVG/1.1/DTD/svg11.dtd">
<svg version="1.1" id="Capa_1" xmlns="http://www.w3.org/2000/svg" xmlns:xlink="http://www.w3.org/1999/xlink" x="0px" y="0px"
	 width="237px" height="132px" viewBox="0 0 237 132" enable-background="new 0 0 237 132" xml:space="preserve">
<g>
	<path fill="#636363" d="M118.373,18.727c-25.864,0-46.907,21.039-46.907,46.895c0,25.86,21.043,46.897,46.907,46.897
		c25.854,0,46.893-21.037,46.893-46.897C165.266,39.766,144.227,18.727,118.373,18.727 M118.373,111.227
		c-25.149,0-45.605-20.455-45.605-45.604c0-25.15,20.456-45.6,45.605-45.6c25.147,0,45.594,20.449,45.594,45.6
		C163.967,90.771,143.521,111.227,118.373,111.227"/>
	<path fill="#636363" d="M91.642,47.211c0.043,0.039,0.086,0.079,0.132,0.11c0.014,0.005,0.036-0.032,0.036-0.037
		c0.92-1.147,1.839-2.291,2.746-3.429c0.332-0.414,0.672-0.829,1.001-1.252c0.343-0.416,0.409-0.962,0.214-1.455
		c-0.253-0.513-0.748-0.854-1.334-0.832c-0.475,0.017-0.851,0.271-1.141,0.634c-0.408,0.504-0.804,1.013-1.213,1.518
		c-0.83,1.032-1.654,2.073-2.479,3.109c0.426,0.346,0.857,0.687,1.286,1.031C91.147,46.811,91.395,47.008,91.642,47.211"/>
	<path fill="#636363" d="M118.373,20.834c-24.74,0-44.791,20.054-44.791,44.788c0,24.735,20.051,44.79,44.791,44.79
		c24.733,0,44.785-20.055,44.785-44.79C163.158,40.888,143.106,20.834,118.373,20.834 M111.136,23.631l4.195-0.464l3.042,8.863
		l3.028-8.863l4.198,0.464l0.468,12.603l-3.269-0.466l-0.316-8.4l-2.946,8.4h-2.337l-2.956-8.4l-0.303,8.4l-3.263,0.466
		L111.136,23.631z M82.855,44.375c-0.329-0.275-0.666-0.55-1.009-0.819c-0.006-0.005-0.118-0.094-0.118-0.099
		c0.063-0.073,0.112-0.145,0.177-0.216c0.877-1.089,1.734-2.175,2.611-3.263c1.017-1.266,2.03-2.541,3.045-3.802
		c0.197-0.234,0.383-0.483,0.58-0.729c0.343-0.424,0.798-0.748,1.306-0.95c1.098-0.4,2.346-0.136,3.177,0.676
		c0.408,0.397,0.698,0.905,0.834,1.455c0.139,0.572,0.089,1.13-0.076,1.682c0.076-0.061,0.151-0.132,0.23-0.189
		c0.985-0.687,2.268-0.883,3.382-0.377c1.107,0.506,1.825,1.509,1.993,2.706c0.043,0.447,0.017,0.898-0.108,1.34
		c-0.257,0.837-0.851,1.473-1.384,2.139c-1.049,1.305-2.09,2.602-3.128,3.902c-0.867,1.087-1.743,2.167-2.606,3.253
		c-0.066,0.087-0.125,0.162-0.198,0.242c-0.006,0.018-0.079-0.058-0.099-0.076c-0.316-0.255-0.646-0.509-0.963-0.771
		c-1.271-1.012-2.53-2.028-3.803-3.037C85.423,46.42,84.142,45.387,82.855,44.375 M118.373,93.617
		c-15.46,0-27.99-12.533-27.99-27.995c0-15.461,12.53-27.988,27.99-27.988c15.459,0,27.992,12.526,27.992,27.988
		C146.365,81.084,133.832,93.617,118.373,93.617 M145.037,51.153l-1.607-2.752l5.536-7.271l-8.31,3.809l-2.335-2.161l7.572-9.953
		l2.344,2.167l-4.376,5.739l6.989-3.207l2.05,2.553l-4.663,6.115l6.549-3.009l1.614,2.753L145.037,51.153z"/>
	<path fill="#636363" d="M91.536,39.219c0.105-0.458,0-0.936-0.32-1.292c-0.392-0.423-1.024-0.568-1.571-0.349
		c-0.389,0.162-0.629,0.506-0.88,0.835c-0.998,1.226-1.974,2.448-2.953,3.674c-0.01,0.019-0.224,0.275-0.207,0.282
		c0.185,0.162,0.388,0.317,0.593,0.481c0.527,0.425,1.054,0.845,1.569,1.271c0.527-0.654,1.034-1.295,1.555-1.944
		c0.527-0.646,1.035-1.289,1.556-1.935C91.131,39.919,91.421,39.623,91.536,39.219"/>
	<path fill="#636363" d="M91.793,65.622h26.58V39.048C103.862,39.432,92.176,51.118,91.793,65.622"/>
	<path fill="#636363" d="M118.373,92.203c14.504-0.386,26.196-12.078,26.574-26.578h-26.574V92.203z"/>
</g>
</svg>
