<?xml version="1.0" encoding="utf-8"?>
<!-- Generator: Adobe Illustrator 16.0.0, SVG Export Plug-In . SVG Version: 6.00 Build 0)  -->
<!DOCTYPE svg PUBLIC "-//W3C//DTD SVG 1.1//EN" "http://www.w3.org/Graphics/SVG/1.1/DTD/svg11.dtd">
<svg version="1.1" id="Capa_1" xmlns="http://www.w3.org/2000/svg" xmlns:xlink="http://www.w3.org/1999/xlink" x="0px" y="0px"
	 width="40px" height="40px" viewBox="0 0 40 40" enable-background="new 0 0 40 40" xml:space="preserve">
<linearGradient id="SVGID_1_" gradientUnits="userSpaceOnUse" x1="8.8828" y1="20" x2="31.1172" y2="20">
	<stop  offset="0" style="stop-color:#00FFB6"/>
	<stop  offset="1" style="stop-color:#147FFF"/>
</linearGradient>
<path fill="url(#SVGID_1_)" d="M25.086,24.228c9.123-3.848,4.348-12.676,4.348-12.676c-2.947,5.578-6.998,5.604-6.998,5.604
	c0-3.094-2.51-5.604-5.605-5.604c-2.947,0-5.357,2.273-5.582,5.164l-2.365,0.992l2.385,1.002l0.041-0.025
	c1.342,12.945,19.809,9.287,19.809,9.287C28.277,27.214,26.371,25.794,25.086,24.228z M14.646,15.552
	c-0.438,0-0.789-0.355-0.789-0.789c0-0.438,0.352-0.791,0.789-0.791c0.436,0,0.789,0.354,0.789,0.791
	C15.436,15.196,15.082,15.552,14.646,15.552z"/>
</svg>
